<?xml version="1.0" encoding="utf-8"?>
<!-- Generator: Adobe Illustrator 24.2.0, SVG Export Plug-In . SVG Version: 6.00 Build 0)  -->
<svg version="1.1" id="Layer_1" xmlns="http://www.w3.org/2000/svg" xmlns:xlink="http://www.w3.org/1999/xlink" x="0px" y="0px"
	 width="250px" height="200px" viewBox="0 0 250 200" style="enable-background:new 0 0 250 200;" xml:space="preserve">
<style type="text/css">
	.st0{fill:#5A6771;}
	.st1{fill:none;stroke:#274059;stroke-width:1.0271;stroke-miterlimit:10;}
	.st2{fill:#603813;}
	.st3{fill:#001E49;}
	.st4{fill:#754C24;}
	.st5{fill:url(#SVGID_1_);}
	.st6{fill:url(#SVGID_2_);}
	.st7{fill:url(#SVGID_3_);}
	.st8{fill:url(#SVGID_4_);}
	.st9{fill:url(#SVGID_5_);}
	.st10{fill:url(#SVGID_6_);}
	.st11{fill:url(#SVGID_7_);}
	.st12{fill:url(#SVGID_8_);}
	.st13{fill:#25A9D8;}
	.st14{fill:url(#SVGID_9_);}
	.st15{fill:#CC6633;}
	.st16{display:none;fill:#AF5228;}
	.st17{fill:#274059;}
	.st18{fill:#E4EDFC;}
	.st19{fill:none;stroke:#F8A72C;stroke-width:0.5511;stroke-miterlimit:10;}
	.st20{fill:#F8A72C;}
	.st21{fill:#BBCEEA;}
	.st22{fill:#AAC5EF;}
	.st23{fill:#FDCC5F;}
	.st24{fill:#FFFFFF;}
	.st25{fill:#FFBF41;stroke:#FFBF41;stroke-width:0.5694;stroke-miterlimit:10;}
	.st26{fill:#FFBF41;}
	.st27{fill:#EE8100;}
	.st28{fill:#2288B3;}
	.st29{fill:none;stroke:#14416D;stroke-width:0.5365;stroke-miterlimit:10;}
	.st30{fill:#E76F32;}
</style>
<path class="st0" d="M204.8,145.7c-34.4,41.4-97.2,33.2-137.7,2.7c-27.1-20.4-51.8-79.7-14-103.7c25.5-16.2,65,1.9,93.5-7.4
	c53-17.2,92.4,51.2,66.5,96.3C210.6,138.1,207.8,142.1,204.8,145.7z"/>
<path class="st1" d="M204.4,150.1c-34.4,41.4-97.2,33.2-137.7,2.7c-27.1-20.4-51.8-79.7-14-103.7c25.5-16.2,65,1.9,93.5-7.4
	c53-17.2,92.4,51.2,66.5,96.3C210.2,142.4,207.4,146.5,204.4,150.1z"/>
<g>
	<path class="st2" d="M87.8,56.5c2.7,1.4,5.6,2.9,8.3,4.3c-0.3-2.4-0.5-6.1,0.7-10.4c0.6-2,1.3-3.9,2.1-5.2c-3.2-2-6.5-3.9-9.7-5.9
		c-0.3,2-0.8,4.5-1.9,7.3c-0.5,1.1-0.9,2.2-1.5,3.1C84.4,52.2,85.3,55.2,87.8,56.5z"/>
	<path class="st3" d="M107.5,34.4c1.1-1.4,1.5-3.9,0.9-6.1c-0.7-2.1-2.8-3.3-3.8-1.8c0.6-1.5,0.4-3.6-0.4-5
		c-0.8-1.5-2.2-2.2-3.3-1.6c-0.7,0.3-1.4,1.1-2.1,0.5c-0.4-0.3-0.6-1-0.9-1.6c-0.8-1.5-2.4-1.6-3-0.2c-0.2,0.5-0.3,1.1-0.5,1.6
		c-0.5,1.4-3,1.8-4.6,2.5c-3.6,1.7-4.6,6.5-4.7,6.9c-1,4.9,2.3,8.9,3.4,10.3c1.3,1.6,3.1,3.3,5.2,3.6c1.7,0.2,2.3-2.7,5.9-5.2
		C103.3,35.8,105.7,36.9,107.5,34.4L107.5,34.4z"/>
	<path class="st4" d="M96.3,35.4c-8.2,8.1,1.2,12.8,4.3,13.5c3.1,0.8,5.3-4.4,6.9-10.6s0.9-8.3-2-8.7
		C101.7,29.2,103.1,28.8,96.3,35.4z"/>
	<path class="st4" d="M92.6,36.6c0.8,1.5,2.1,2.3,2.9,1.9c0.8-0.5,0.8-2,0-3.5c-0.8-1.5-2.1-2.3-2.9-1.9
		C91.7,33.6,91.8,35.1,92.6,36.6z"/>
</g>
<g>
	<g>
		<g>
			
				<linearGradient id="SVGID_1_" gradientUnits="userSpaceOnUse" x1="1399.3251" y1="140.8371" x2="1406.1289" y2="140.8371" gradientTransform="matrix(-1 0 0 1 1479.8765 0)">
				<stop  offset="0" style="stop-color:#2288B3"/>
				<stop  offset="1" style="stop-color:#24658D"/>
			</linearGradient>
			<rect x="73.7" y="100.6" class="st5" width="6.8" height="80.4"/>
			
				<linearGradient id="SVGID_2_" gradientUnits="userSpaceOnUse" x1="1399.2762" y1="140.8371" x2="1406.1777" y2="140.8371" gradientTransform="matrix(-1 0 0 1 1479.8765 0)">
				<stop  offset="0" style="stop-color:#2288B3"/>
				<stop  offset="1" style="stop-color:#24658D"/>
			</linearGradient>
			<path class="st6" d="M73.7,100.6h6.9v80.5h-6.9V100.6z M80.5,100.7h-6.7V181h6.7V100.7z"/>
		</g>
		<g>
			
				<linearGradient id="SVGID_3_" gradientUnits="userSpaceOnUse" x1="1399.3232" y1="140.8371" x2="1406.1307" y2="140.8371" gradientTransform="matrix(-1 0 0 1 1479.8765 0)">
				<stop  offset="0" style="stop-color:#2288B3"/>
				<stop  offset="1" style="stop-color:#24658D"/>
			</linearGradient>
			<path class="st7" d="M73.7,100.6h6.8v80.5h-6.8V100.6z M80.5,100.7h-6.8V181h6.8V100.7z"/>
			
				<linearGradient id="SVGID_4_" gradientUnits="userSpaceOnUse" x1="1399.2744" y1="140.837" x2="1406.1796" y2="140.837" gradientTransform="matrix(-1 0 0 1 1479.8765 0)">
				<stop  offset="0" style="stop-color:#2288B3"/>
				<stop  offset="1" style="stop-color:#24658D"/>
			</linearGradient>
			<path class="st8" d="M73.7,100.5h6.9v80.6h-6.9V100.5z M80.5,100.7h-6.7v80.2h6.7V100.7z"/>
		</g>
	</g>
	<g>
		<g>
			
				<linearGradient id="SVGID_5_" gradientUnits="userSpaceOnUse" x1="1289.7324" y1="139.8137" x2="1296.5363" y2="139.8137" gradientTransform="matrix(-1 0 0 1 1479.8765 0)">
				<stop  offset="0" style="stop-color:#2288B3"/>
				<stop  offset="1" style="stop-color:#24658D"/>
			</linearGradient>
			<rect x="183.3" y="99.6" class="st9" width="6.8" height="80.4"/>
			
				<linearGradient id="SVGID_6_" gradientUnits="userSpaceOnUse" x1="1289.6836" y1="139.8137" x2="1296.5851" y2="139.8137" gradientTransform="matrix(-1 0 0 1 1479.8765 0)">
				<stop  offset="0" style="stop-color:#2288B3"/>
				<stop  offset="1" style="stop-color:#24658D"/>
			</linearGradient>
			<path class="st10" d="M183.3,99.6h6.9v80.5h-6.9V99.6z M190.1,99.7h-6.7V180h6.7V99.7z"/>
		</g>
		<g>
			
				<linearGradient id="SVGID_7_" gradientUnits="userSpaceOnUse" x1="1289.7306" y1="139.8137" x2="1296.5381" y2="139.8137" gradientTransform="matrix(-1 0 0 1 1479.8765 0)">
				<stop  offset="0" style="stop-color:#2288B3"/>
				<stop  offset="1" style="stop-color:#24658D"/>
			</linearGradient>
			<path class="st11" d="M183.3,99.6h6.8v80.5h-6.8V99.6z M190.1,99.7h-6.8V180h6.8V99.7z"/>
			
				<linearGradient id="SVGID_8_" gradientUnits="userSpaceOnUse" x1="1289.6816" y1="139.8137" x2="1296.5869" y2="139.8137" gradientTransform="matrix(-1 0 0 1 1479.8765 0)">
				<stop  offset="0" style="stop-color:#2288B3"/>
				<stop  offset="1" style="stop-color:#24658D"/>
			</linearGradient>
			<path class="st12" d="M183.3,99.5h6.9v80.6h-6.9V99.5z M190.1,99.7h-6.7v80.2h6.7V99.7z"/>
		</g>
	</g>
	<g>
		<g>
			<path class="st13" d="M89.4,100h111.3v3.9H84.6v-2.1c1.1-0.2,2.1-0.6,3-1.1C88.3,100.5,88.9,100.3,89.4,100z"/>
			<path class="st13" d="M84.7,103.8h116V100H89.3c0,0,0.1,0,0.1-0.1h111.3v3.9L84.7,103.8l-0.1-2c0,0,0,0,0.1,0V103.8z"/>
		</g>
		<g>
			<path class="st13" d="M84.6,103.8h116V100H89.3c0,0,0.1,0,0.1-0.1h111.3v3.9L84.6,103.8l-0.1-2c0,0,0,0,0.1,0V103.8z"/>
			<path class="st13" d="M80,103.9l120.6-0.2V100H89.3c0.1,0,0.1-0.1,0.2-0.1h111.3v4H84.6v-2.1c0,0,0.1,0,0.1,0L80,103.9z"/>
		</g>
	</g>
</g>
<linearGradient id="SVGID_9_" gradientUnits="userSpaceOnUse" x1="1378.0201" y1="113.319" x2="1411.1124" y2="113.319" gradientTransform="matrix(-1 0 0 -1 1479.8765 201)">
	<stop  offset="0" style="stop-color:#E76F32"/>
	<stop  offset="1" style="stop-color:#CC6633"/>
</linearGradient>
<path class="st14" d="M76,124.5c4.4,2.4,14.3,0.6,16.7,0c7.3-1.9,7.4-6.8,9.2-9.2c-1.3-1.9-2-5.9-2.7-10.2c-0.5-3-1.7-7.7-2.2-12.6
	c-1.4-14.2,2.2-28.2-1-31.6c-0.3-0.3-1.6-1.6-1.3-3c0.1-0.8,0.7-1.5,1.2-1.8l-7.2-5.6c-3.6-2-4.7-0.3-8,3.7c-4,4.8-7.5,12.3-9,21.1
	c-1.4,8.9,2.3,28.8-2.5,38.4C66.9,118.3,74.1,123.5,76,124.5z"/>
<path class="st15" d="M65.1,92.7l11.4,1c4.2,0.4,8.2-1.8,10.2-5.6l11.1-22.2c0.6-1,0.7-2.1,0.7-3.3c-0.2-5.8-4.3-10.7-10-11.4
	c-2.7-0.4-5.3,1.1-6.5,3.5C76.8,65.2,63.6,87.5,65.1,92.7z"/>
<path class="st16" d="M72.6,97.7c0.8,6.3-0.3,8.6-1.4,9.9c-2.1,2.4-5.4,2.7-6.8,2.7h-0.6c-3.7-0.3-6.8-3.7-7.9-8.7L49,70.7
	c0.3-8.4,4.9-15.1,10.4-14.9c2.3,0.1,3.9,3,5.1,5.4c4.2,7.9,1.2,11.9,3.9,22.3C69.9,89.5,71.6,91,72.6,97.7z"/>
<g>
	
		<rect x="122.8" y="97.3" transform="matrix(-1 -4.490509e-11 4.490509e-11 -1 281.2334 197.9781)" class="st17" width="35.7" height="3.4"/>
	<path class="st17" d="M122.7,97.3h35.8v2.4h-35.8V97.3z M158.4,97.4h-35.6v2.2h35.6V97.4z"/>
</g>
<g>
	
		<rect x="136.7" y="70.6" transform="matrix(-1 -4.488377e-11 4.488377e-11 -1 280.1577 168.0171)" class="st17" width="6.7" height="26.9"/>
	<path class="st17" d="M136.7,70.5h6.8v27h-6.8V70.5z M143.4,70.6h-6.6v26.8h6.6V70.6z"/>
</g>
<path class="st18" d="M139,98.7c-0.1,2.5-3.6,2.4-7.8,2.3c-4.2-0.1-8.3,0.8-8.3-1.7c0.1-2.5,4.3-4.5,8.5-4.4
	C135.7,95.1,139.1,96.2,139,98.7z"/>
<path class="st19" d="M140.2,98.9c-0.1,3-3.6,3-7.8,2.8c-4.2-0.1-8.4,1-8.3-2c0.1-3,4.3-5.5,8.6-5.4
	C136.9,94.6,140.3,95.9,140.2,98.9z"/>
<path class="st4" d="M123.3,94.8c-1.1,0.8-2.4,0.8-3.7,0.7c-0.8,0.1-1.5,0-2.2-0.1c-0.4,1.3-0.8,2.6-1.1,3.9
	c1.6,0.4,3.2,0.5,4.7,0.8c1.2,0.2,2.2,0.9,3.4,1.1c1.6,0.1,3.2,0.4,4.9,0.7c1,0.1,1.9-0.1,2.7-0.7c0.2-0.1,0.5-0.3,0.5-0.5
	c0-0.3-0.3-0.4-0.6-0.5c-0.1-0.1-0.3-0.1-0.4-0.1c-0.3-0.2-0.7-0.2-0.9-0.6c0.3-0.1,0.4,0,0.6,0.1c0.5,0.1,1,0.3,1.5,0.4
	c0.3,0.1,0.6-0.1,0.7-0.4c0.1-0.3-0.2-0.5-0.5-0.6c-1.7-0.8-3.4-1.6-5.1-2.5c-0.2-0.1-0.6-0.2-0.5-0.5c0-0.3,0.4-0.3,0.6-0.3
	c0.8-0.2,1.7-0.4,2.4-0.9c0.1-0.2,0.2-0.4,0.3-0.7c0.1-0.2,0.1-0.4,0-0.5c-0.1-0.1-0.3-0.1-0.5,0c-0.3,0.2-0.5,0.2-0.8,0
	c-1,0.1-1.9,0.3-2.9,0.4C125.5,94.1,124.3,94.1,123.3,94.8z"/>
<path class="st15" d="M118.5,94.8c-3.1-0.9-7.7-2.4-13.2-4.5c-5-1.9-7.2-3-11.2-4.7c-14.4-6.1-21.6-9.1-24-6.7
	c-2.6,2.5-0.4,10.3,4.2,14.7c3.6,3.4,5.7,1.4,17.7,4.4c0,0,18.1,4.6,23.8,2.7c0.3-0.1,1.3,0,1.5-0.8C117.7,98.3,118,96.5,118.5,94.8
	z"/>
<g>
	<g>
		<g>
			<g>
				<path class="st13" d="M109.2,79.2h60.7c1.8,0,3.4-1.4,3.5-3.2l2.7-35.7c0.2-2-1.5-3.8-3.5-3.8h-60.7c-1.8,0-3.4,1.4-3.5,3.2
					l-2.7,35.7C105.6,77.4,107.2,79.2,109.2,79.2z"/>
				<path class="st13" d="M106.6,78.1c-0.7-0.7-1-1.7-0.9-2.7l2.7-35.7c0.1-1.8,1.7-3.3,3.5-3.3h60.7c1,0,1.9,0.4,2.6,1.1
					c0.7,0.7,1,1.7,0.9,2.7l-2.7,35.7c-0.1,1.8-1.7,3.3-3.5,3.3h-60.7C108.2,79.2,107.3,78.8,106.6,78.1z M111.9,36.5
					c-1.8,0-3.3,1.4-3.4,3.2l-2.7,35.7c-0.1,1,0.3,1.9,0.9,2.6c0.7,0.7,1.6,1.1,2.5,1.1h60.7c1.8,0,3.3-1.4,3.4-3.2l2.7-35.7
					c0.1-1-0.3-1.9-0.9-2.6c-0.7-0.7-1.6-1.1-2.5-1.1H111.9z"/>
			</g>
		</g>
		<g>
			<g>
				<path class="st18" d="M110.7,74.6h57.9c1.7,0,3.2-1.2,3.3-2.7l2.6-29.5c0.1-1.7-1.4-3.1-3.3-3.1h-57.9c-1.7,0-3.2,1.2-3.3,2.7
					l-2.6,29.5C107.2,73.2,108.7,74.6,110.7,74.6z"/>
				<path class="st18" d="M108,73.6c-0.5-0.6-0.8-1.3-0.7-2.1l2.6-29.5c0.1-1.5,1.6-2.7,3.4-2.7h57.9c1,0,2,0.4,2.7,1.1
					c0.5,0.6,0.8,1.3,0.7,2.1L172,72c-0.1,1.5-1.6,2.7-3.4,2.7h-57.9C109.6,74.7,108.7,74.3,108,73.6z M113.2,39.4
					c-1.7,0-3.2,1.2-3.3,2.6l-2.6,29.5c-0.1,0.7,0.2,1.4,0.7,2c0.6,0.7,1.6,1.1,2.6,1.1h57.9c1.7,0,3.2-1.2,3.3-2.6l2.6-29.5
					c0.1-0.7-0.2-1.4-0.7-2c-0.6-0.7-1.6-1.1-2.6-1.1H113.2z"/>
			</g>
			<g>
				<path class="st20" d="M109.9,42.6h64.6l0-0.2c0.1-1.7-1.4-3.1-3.3-3.1h-57.9c-1.7,0-3.2,1.2-3.3,2.7L109.9,42.6z"/>
				<path class="st20" d="M109.9,42c0.1-1.5,1.6-2.7,3.4-2.7h57.9c1,0,2,0.4,2.7,1.1c0.5,0.6,0.8,1.3,0.7,2.1l0,0.2h-64.7L109.9,42z
					 M174.5,42.4c0.1-0.7-0.2-1.4-0.7-2c-0.6-0.7-1.6-1.1-2.6-1.1h-57.9c-1.7,0-3.2,1.2-3.3,2.6l0,0.6h64.5L174.5,42.4z"/>
			</g>
			<g>
				<g>
					<path class="st21" d="M157.3,51.9h12.8c0.4,0,0.7-0.3,0.7-0.6l0.6-6.5c0-0.4-0.3-0.7-0.7-0.7h-12.8c-0.4,0-0.7,0.3-0.7,0.6
						l-0.6,6.5C156.5,51.6,156.9,51.9,157.3,51.9z"/>
					<path class="st21" d="M156.7,51.7c-0.1-0.1-0.2-0.3-0.2-0.5l0.6-6.5c0-0.4,0.4-0.6,0.8-0.6h12.8c0.2,0,0.5,0.1,0.6,0.3
						c0.1,0.1,0.2,0.3,0.2,0.5l-0.6,6.5c0,0.4-0.4,0.6-0.8,0.6h-12.8C157,51.9,156.8,51.8,156.7,51.7z M157.8,44.1
						c-0.4,0-0.7,0.2-0.7,0.5l-0.6,6.5c0,0.1,0,0.3,0.1,0.4c0.1,0.1,0.3,0.2,0.5,0.2h12.8c0.4,0,0.7-0.2,0.7-0.5l0.6-6.5
						c0-0.1,0-0.3-0.1-0.4c-0.1-0.1-0.3-0.2-0.5-0.2H157.8z"/>
				</g>
				<g>
					<g>
						<g>
							<g>
								<g>
									<path class="st20" d="M160.8,47.8h6.2c0.1,0,0.3-0.1,0.3-0.3l0,0c0-0.1-0.1-0.3-0.3-0.3h-6.2c-0.1,0-0.3,0.1-0.3,0.3l0,0
										C160.6,47.6,160.7,47.8,160.8,47.8z"/>
									<path class="st20" d="M160.5,47.6v-0.1c0-0.1,0.1-0.2,0.2-0.2h6.3c0.1,0,0.2,0.1,0.2,0.2v0.1c0,0.1-0.1,0.2-0.2,0.2h-6.3
										C160.6,47.8,160.5,47.7,160.5,47.6z M160.8,47.3c-0.1,0-0.2,0.1-0.2,0.2v0.1c0,0.1,0.1,0.2,0.2,0.2h6.3
										c0.1,0,0.2-0.1,0.2-0.2v-0.1c0-0.1-0.1-0.2-0.2-0.2H160.8z"/>
								</g>
								<g>
									<path class="st20" d="M160.6,47.6v-0.1c0-0.1,0.1-0.2,0.2-0.2h6.3c0.1,0,0.2,0.1,0.2,0.2v0.1c0,0.1-0.1,0.2-0.2,0.2h-6.3
										C160.7,47.8,160.6,47.7,160.6,47.6z M160.8,47.3c-0.1,0-0.2,0.1-0.2,0.2v0.1c0,0.1,0.1,0.2,0.2,0.2h6.3
										c0.1,0,0.2-0.1,0.2-0.2v-0.1c0-0.1-0.1-0.2-0.2-0.2H160.8z"/>
									<path class="st20" d="M160.5,47.6v-0.1c0-0.1,0.1-0.3,0.3-0.3h6.3c0.1,0,0.3,0.1,0.3,0.3v0.1c0,0.1-0.1,0.3-0.3,0.3h-6.3
										C160.6,47.8,160.5,47.7,160.5,47.6z M160.8,47.3c-0.1,0-0.1,0.1-0.1,0.1v0.1c0,0.1,0.1,0.1,0.1,0.1h6.3
										c0.1,0,0.1-0.1,0.1-0.1v-0.1c0-0.1-0.1-0.1-0.1-0.1H160.8z"/>
								</g>
							</g>
							<g>
								<g>
									<path class="st20" d="M160.5,47.6v-0.2c0-0.1,0.1-0.2,0.3-0.2h6.2c0.2,0,0.3,0.1,0.3,0.2v0.2c0,0.1-0.1,0.2-0.3,0.2h-6.2
										C160.7,47.8,160.5,47.7,160.5,47.6z M160.8,47.3c-0.1,0-0.2,0.1-0.2,0.1v0.2c0,0.1,0.1,0.1,0.2,0.1h6.2
										c0.1,0,0.2-0.1,0.2-0.1v-0.2c0-0.1-0.1-0.1-0.2-0.1H160.8z"/>
									<path class="st20" d="M160.5,47.6v-0.2c0-0.1,0.2-0.3,0.3-0.3h6.2c0.2,0,0.3,0.1,0.3,0.3v0.2c0,0.1-0.2,0.3-0.3,0.3h-6.2
										C160.6,47.8,160.5,47.7,160.5,47.6z M160.8,47.3c-0.1,0-0.1,0-0.1,0.1v0.2c0,0,0.1,0.1,0.1,0.1h6.2c0.1,0,0.1,0,0.1-0.1
										v-0.2c0,0-0.1-0.1-0.1-0.1H160.8z M160.6,47.4v0.2c0,0,0,0.1,0,0.1c0,0,0,0,0-0.1L160.6,47.4
										C160.6,47.4,160.6,47.4,160.6,47.4C160.6,47.4,160.6,47.4,160.6,47.4z M167.2,47.4v0.2c0,0,0,0.1,0,0.1c0,0,0,0,0-0.1
										L167.2,47.4C167.3,47.4,167.2,47.4,167.2,47.4C167.2,47.4,167.2,47.4,167.2,47.4z"/>
								</g>
								<g>
									<path class="st20" d="M160.5,47.6v-0.2c0-0.1,0.1-0.2,0.3-0.2h6.2c0.2,0,0.3,0.1,0.3,0.2v0.2c0,0.1-0.1,0.2-0.3,0.2h-6.2
										C160.6,47.8,160.5,47.7,160.5,47.6z M160.8,47.2c-0.2,0-0.3,0.1-0.3,0.2v0.2c0,0.1,0.1,0.2,0.3,0.2h6.2
										c0.2,0,0.3-0.1,0.3-0.2v-0.2c0-0.1-0.1-0.2-0.3-0.2H160.8z M160.6,47.6v-0.2c0-0.1,0.1-0.1,0.2-0.1h6.2
										c0.1,0,0.2,0.1,0.2,0.1v0.2c0,0.1-0.1,0.1-0.2,0.1h-6.2C160.7,47.7,160.6,47.7,160.6,47.6z M160.8,47.3
										c-0.1,0-0.2,0.1-0.2,0.1v0.2c0,0.1,0.1,0.1,0.2,0.1h6.2c0.1,0,0.2-0.1,0.2-0.1v-0.2c0-0.1-0.1-0.1-0.2-0.1H160.8z"/>
									<path class="st20" d="M160.5,47.6v-0.2c0-0.2,0.2-0.3,0.4-0.3h6.2c0.2,0,0.4,0.1,0.4,0.3v0.2c0,0.2-0.2,0.3-0.4,0.3h-6.2
										C160.6,47.9,160.5,47.7,160.5,47.6z M160.8,47.4c-0.1,0-0.1,0-0.1,0.1v0.2c0,0,0,0.1,0.1,0.1h6.2c0.1,0,0.1,0,0.1-0.1v-0.2
										c0,0,0-0.1-0.1-0.1H160.8z"/>
								</g>
							</g>
						</g>
						<g>
							<g>
								<g>
									<path class="st20" d="M158.1,48.7h8.9c0.1,0,0.3-0.1,0.3-0.3l0,0c0-0.1-0.1-0.3-0.3-0.3h-8.9c-0.1,0-0.3,0.1-0.3,0.3l0,0
										C157.9,48.6,158,48.7,158.1,48.7z"/>
									<path class="st20" d="M157.8,48.5c0-0.2,0.1-0.3,0.3-0.3h8.9c0.2,0,0.3,0.1,0.3,0.3c0,0.2-0.1,0.3-0.3,0.3h-8.9
										C157.9,48.8,157.8,48.6,157.8,48.5z M158.1,48.3c-0.1,0-0.2,0.1-0.2,0.2c0,0.1,0.1,0.2,0.2,0.2h8.9c0.1,0,0.2-0.1,0.2-0.2
										c0-0.1-0.1-0.2-0.2-0.2H158.1z"/>
								</g>
								<g>
									<path class="st20" d="M157.8,48.5c0-0.2,0.1-0.3,0.3-0.3h8.9c0.2,0,0.3,0.1,0.3,0.3c0,0.2-0.1,0.3-0.3,0.3h-8.9
										C158,48.7,157.8,48.6,157.8,48.5z M158.1,48.2c-0.1,0-0.2,0.1-0.2,0.2c0,0.1,0.1,0.2,0.2,0.2h8.9c0.1,0,0.2-0.1,0.2-0.2
										c0-0.1-0.1-0.2-0.2-0.2H158.1z"/>
									<path class="st20" d="M157.8,48.5c0-0.2,0.1-0.3,0.3-0.3h8.9c0.2,0,0.3,0.1,0.3,0.3c0,0.2-0.1,0.3-0.3,0.3h-8.9
										C157.9,48.8,157.8,48.6,157.8,48.5z M158.1,48.3c-0.1,0-0.2,0.1-0.2,0.2c0,0.1,0.1,0.2,0.2,0.2h8.9c0.1,0,0.2-0.1,0.2-0.2
										c0-0.1-0.1-0.2-0.2-0.2H158.1z"/>
								</g>
							</g>
							<g>
								<g>
									<path class="st20" d="M157.8,48.5L157.8,48.5c0-0.2,0.2-0.3,0.4-0.3h8.7c0.2,0,0.4,0.1,0.4,0.3v0.1c0,0.1-0.2,0.3-0.4,0.3
										h-8.7C158,48.8,157.8,48.6,157.8,48.5z M158.2,48.2c-0.1,0-0.3,0.1-0.3,0.2v0.1c0,0.1,0.1,0.2,0.3,0.2h8.7
										c0.1,0,0.3-0.1,0.3-0.2v-0.1c0-0.1-0.1-0.2-0.3-0.2H158.2z"/>
									<path class="st20" d="M157.7,48.5L157.7,48.5c0-0.2,0.2-0.4,0.4-0.4h8.7c0.2,0,0.4,0.1,0.4,0.3v0.1c0,0.2-0.2,0.3-0.4,0.3
										h-8.7C157.9,48.8,157.7,48.7,157.7,48.5z M158.2,48.3c-0.1,0-0.2,0.1-0.2,0.1v0.1c0,0.1,0.1,0.1,0.2,0.1h8.7
										c0.1,0,0.2-0.1,0.2-0.1v-0.1c0-0.1-0.1-0.1-0.2-0.1H158.2z M157.8,48.4L157.8,48.4c0,0.1,0,0.1,0,0.2
										C157.9,48.6,157.9,48.5,157.8,48.4L157.8,48.4c0,0,0-0.1,0-0.1C157.9,48.4,157.8,48.4,157.8,48.4z M167.2,48.4L167.2,48.4
										c0,0.1,0,0.1,0,0.2C167.2,48.6,167.3,48.5,167.2,48.4L167.2,48.4c0,0,0-0.1,0-0.1C167.2,48.4,167.2,48.4,167.2,48.4z"/>
								</g>
								<g>
									<path class="st20" d="M157.8,48.5L157.8,48.5c0-0.2,0.2-0.3,0.4-0.3h8.7c0.2,0,0.4,0.1,0.4,0.3v0.1c0,0.2-0.2,0.3-0.4,0.3
										h-8.7C158,48.8,157.8,48.6,157.8,48.5z M158.2,48.2c-0.2,0-0.4,0.1-0.4,0.2v0.1c0,0.1,0.2,0.2,0.4,0.2h8.7
										c0.2,0,0.4-0.1,0.4-0.2v-0.1c0-0.1-0.2-0.2-0.4-0.2H158.2z M157.9,48.5L157.9,48.5c0-0.2,0.1-0.3,0.3-0.3h8.7
										c0.2,0,0.3,0.1,0.3,0.2v0.1c0,0.1-0.1,0.2-0.3,0.2h-8.7C158,48.7,157.9,48.6,157.9,48.5z M158.2,48.3
										c-0.1,0-0.3,0.1-0.3,0.2v0.1c0,0.1,0.1,0.2,0.3,0.2h8.7c0.1,0,0.3-0.1,0.3-0.2v-0.1c0-0.1-0.1-0.2-0.3-0.2H158.2z"/>
									<path class="st20" d="M157.7,48.5L157.7,48.5c0-0.2,0.2-0.4,0.4-0.4h8.7c0.2,0,0.4,0.1,0.4,0.3v0.1c0,0.2-0.2,0.3-0.4,0.3
										h-8.7C157.9,48.8,157.7,48.7,157.7,48.5z M158.2,48.3c-0.1,0-0.2,0.1-0.2,0.1v0.1c0,0.1,0.1,0.1,0.2,0.1h8.7
										c0.1,0,0.2-0.1,0.2-0.1v-0.1c0-0.1-0.1-0.1-0.2-0.1H158.2z"/>
								</g>
							</g>
						</g>
						<g>
							<g>
								<g>
									<path class="st20" d="M159.9,49.7h7.1c0.1,0,0.3-0.1,0.3-0.3v0c0-0.1-0.1-0.3-0.3-0.3h-7.1c-0.1,0-0.3,0.1-0.3,0.3l0,0
										C159.7,49.5,159.8,49.7,159.9,49.7z"/>
									<path class="st20" d="M159.6,49.4L159.6,49.4c0-0.2,0.1-0.4,0.3-0.4h7.2c0.1,0,0.3,0.1,0.3,0.3v0.1c0,0.1-0.1,0.3-0.3,0.3
										h-7.2C159.7,49.7,159.6,49.6,159.6,49.4z M159.9,49.2c-0.1,0-0.2,0.1-0.2,0.2v0.1c0,0.1,0.1,0.2,0.2,0.2h7.2
										c0.1,0,0.2-0.1,0.2-0.2v-0.1c0-0.1-0.1-0.2-0.2-0.2H159.9z"/>
								</g>
								<g>
									<path class="st20" d="M159.7,49.4L159.7,49.4c0-0.2,0.1-0.3,0.2-0.3h7.2c0.1,0,0.2,0.1,0.2,0.2v0.1c0,0.1-0.1,0.2-0.2,0.2
										h-7.2C159.8,49.7,159.7,49.6,159.7,49.4z M159.9,49.2c-0.1,0-0.2,0.1-0.2,0.2v0.1c0,0.1,0.1,0.2,0.2,0.2h7.2
										c0.1,0,0.2-0.1,0.2-0.2v-0.1c0-0.1-0.1-0.2-0.2-0.2H159.9z"/>
									<path class="st20" d="M159.6,49.4L159.6,49.4c0-0.2,0.1-0.4,0.3-0.4h7.2c0.2,0,0.3,0.1,0.3,0.3v0.1c0,0.2-0.1,0.3-0.3,0.3
										h-7.2C159.7,49.7,159.6,49.6,159.6,49.4z M159.9,49.2c-0.1,0-0.1,0.1-0.1,0.1v0.1c0,0.1,0.1,0.1,0.1,0.1h7.2
										c0.1,0,0.1-0.1,0.1-0.1v-0.1c0-0.1-0.1-0.1-0.1-0.1H159.9z"/>
								</g>
							</g>
							<g>
								<g>
									<path class="st20" d="M159.6,49.5v-0.2c0-0.1,0.1-0.2,0.3-0.2h7.1c0.2,0,0.3,0.1,0.3,0.2v0.2c0,0.1-0.1,0.2-0.3,0.2h-7.1
										C159.8,49.7,159.6,49.6,159.6,49.5z M159.9,49.2c-0.1,0-0.2,0.1-0.2,0.1v0.2c0,0.1,0.1,0.1,0.2,0.1h7.1
										c0.1,0,0.2-0.1,0.2-0.1v-0.2c0-0.1-0.1-0.1-0.2-0.1H159.9z"/>
									<path class="st20" d="M159.6,49.5v-0.2c0-0.1,0.2-0.3,0.4-0.3h7.1c0.2,0,0.4,0.1,0.4,0.3v0.2c0,0.1-0.2,0.3-0.4,0.3h-7.1
										C159.7,49.7,159.6,49.6,159.6,49.5z M159.9,49.2c-0.1,0-0.1,0-0.1,0.1v0.2c0,0,0.1,0.1,0.1,0.1h7.1c0.1,0,0.1,0,0.1-0.1
										v-0.2c0,0-0.1-0.1-0.1-0.1H159.9z M159.7,49.3v0.2c0,0,0,0.1,0,0.1c0,0,0-0.1,0-0.1L159.7,49.3
										C159.7,49.3,159.7,49.3,159.7,49.3C159.7,49.3,159.7,49.3,159.7,49.3z M167.2,49.3v0.2c0,0,0,0.1,0,0.1c0,0,0-0.1,0-0.1
										L167.2,49.3C167.3,49.3,167.2,49.3,167.2,49.3C167.2,49.3,167.2,49.3,167.2,49.3z"/>
								</g>
								<g>
									<path class="st20" d="M159.6,49.5v-0.2c0-0.1,0.1-0.2,0.3-0.2h7.1c0.2,0,0.3,0.1,0.3,0.2v0.2c0,0.1-0.1,0.2-0.3,0.2h-7.1
										C159.7,49.7,159.6,49.6,159.6,49.5z M159.9,49.1c-0.2,0-0.3,0.1-0.3,0.2v0.2c0,0.1,0.1,0.2,0.3,0.2h7.1
										c0.2,0,0.3-0.1,0.3-0.2v-0.2c0-0.1-0.1-0.2-0.3-0.2H159.9z M159.7,49.5v-0.2c0-0.1,0.1-0.2,0.2-0.2h7.1
										c0.1,0,0.2,0.1,0.2,0.2v0.2c0,0.1-0.1,0.2-0.2,0.2h-7.1C159.8,49.6,159.7,49.6,159.7,49.5z M159.9,49.2
										c-0.1,0-0.2,0.1-0.2,0.1v0.2c0,0.1,0.1,0.1,0.2,0.1h7.1c0.1,0,0.2-0.1,0.2-0.1v-0.2c0-0.1-0.1-0.1-0.2-0.1H159.9z"/>
									<path class="st20" d="M159.6,49.5v-0.2c0-0.2,0.2-0.3,0.4-0.3h7.1c0.2,0,0.4,0.1,0.4,0.3v0.2c0,0.2-0.2,0.3-0.4,0.3h-7.1
										C159.7,49.8,159.6,49.6,159.6,49.5z M159.9,49.2c-0.1,0-0.1,0-0.1,0.1v0.2c0,0,0.1,0.1,0.1,0.1h7.1c0.1,0,0.1,0,0.1-0.1
										v-0.2c0,0-0.1-0.1-0.1-0.1H159.9z"/>
								</g>
							</g>
						</g>
					</g>
					<g>
						<g>
							<g>
								<circle class="st20" cx="169.3" cy="48" r="1"/>
								<path class="st20" d="M168.3,48c0-0.6,0.5-1,1-1c0.6,0,1,0.5,1,1c0,0.6-0.5,1-1,1C168.8,49.1,168.3,48.6,168.3,48z
									 M168.4,48c0,0.5,0.4,0.9,0.9,0.9s0.9-0.4,0.9-0.9c0-0.5-0.4-0.9-0.9-0.9S168.4,47.5,168.4,48z"/>
							</g>
						</g>
						<g>
							<g>
								<path class="st20" d="M168.3,48c0-0.6,0.4-1,1-1c0.6,0,1,0.4,1,1c0,0.6-0.4,1-1,1C168.8,49,168.3,48.6,168.3,48z M168.4,48
									c0,0.5,0.4,1,1,1c0.5,0,1-0.4,1-1c0-0.5-0.4-1-1-1C168.8,47.1,168.4,47.5,168.4,48z"/>
								<path class="st20" d="M168.3,48c0-0.6,0.5-1.1,1.1-1.1s1.1,0.5,1.1,1.1c0,0.6-0.5,1.1-1.1,1.1S168.3,48.6,168.3,48z
									 M168.4,48c0,0.5,0.4,0.9,0.9,0.9s0.9-0.4,0.9-0.9c0-0.5-0.4-0.9-0.9-0.9S168.4,47.5,168.4,48z"/>
							</g>
						</g>
					</g>
				</g>
			</g>
			<g>
				<g>
					<path class="st21" d="M156.2,61.1H169c0.4,0,0.7-0.3,0.7-0.6l0.6-6.5c0-0.4-0.3-0.7-0.7-0.7h-12.8c-0.4,0-0.7,0.3-0.7,0.6
						l-0.6,6.5C155.4,60.8,155.7,61.1,156.2,61.1z"/>
					<path class="st21" d="M155.6,60.9c-0.1-0.1-0.2-0.3-0.2-0.5l0.6-6.5c0-0.4,0.4-0.6,0.8-0.6h12.8c0.2,0,0.5,0.1,0.6,0.3
						c0.1,0.1,0.2,0.3,0.2,0.5l-0.6,6.5c0,0.4-0.4,0.6-0.8,0.6h-12.8C155.9,61.2,155.7,61.1,155.6,60.9z M156.7,53.4
						c-0.4,0-0.7,0.2-0.7,0.5l-0.6,6.5c0,0.1,0,0.3,0.1,0.4c0.1,0.1,0.3,0.2,0.5,0.2H169c0.4,0,0.7-0.2,0.7-0.5l0.6-6.5
						c0-0.1,0-0.3-0.1-0.4c-0.1-0.1-0.3-0.2-0.5-0.2H156.7z"/>
				</g>
				<g>
					<g>
						<g>
							<g>
								<g>
									<path class="st20" d="M159.7,57h6.2c0.1,0,0.3-0.1,0.3-0.3l0,0c0-0.1-0.1-0.3-0.3-0.3h-6.2c-0.1,0-0.3,0.1-0.3,0.3l0,0
										C159.5,56.9,159.6,57,159.7,57z"/>
									<path class="st20" d="M159.4,56.8v-0.1c0-0.1,0.1-0.2,0.2-0.2h6.3c0.1,0,0.2,0.1,0.2,0.2v0.1c0,0.1-0.1,0.2-0.2,0.2h-6.3
										C159.5,57,159.4,56.9,159.4,56.8z M159.7,56.5c-0.1,0-0.2,0.1-0.2,0.2v0.1c0,0.1,0.1,0.2,0.2,0.2h6.3
										c0.1,0,0.2-0.1,0.2-0.2v-0.1c0-0.1-0.1-0.2-0.2-0.2H159.7z"/>
								</g>
								<g>
									<path class="st20" d="M159.4,56.8v-0.1c0-0.1,0.1-0.2,0.2-0.2h6.3c0.1,0,0.2,0.1,0.2,0.2v0.1c0,0.1-0.1,0.2-0.2,0.2h-6.3
										C159.5,57,159.4,56.9,159.4,56.8z M159.7,56.5c-0.1,0-0.2,0.1-0.2,0.2v0.1c0,0.1,0.1,0.2,0.2,0.2h6.3
										c0.1,0,0.2-0.1,0.2-0.2v-0.1c0-0.1-0.1-0.2-0.2-0.2H159.7z"/>
									<path class="st20" d="M159.4,56.8v-0.1c0-0.1,0.1-0.3,0.3-0.3h6.3c0.1,0,0.3,0.1,0.3,0.3v0.1c0,0.1-0.1,0.3-0.3,0.3h-6.3
										C159.5,57,159.4,56.9,159.4,56.8z M159.7,56.5c-0.1,0-0.1,0.1-0.1,0.1v0.1c0,0.1,0.1,0.1,0.1,0.1h6.3
										c0.1,0,0.1-0.1,0.1-0.1v-0.1c0-0.1-0.1-0.1-0.1-0.1H159.7z"/>
								</g>
							</g>
							<g>
								<g>
									<path class="st20" d="M159.4,56.8v-0.2c0-0.1,0.1-0.2,0.3-0.2h6.2c0.2,0,0.3,0.1,0.3,0.2v0.2c0,0.1-0.1,0.2-0.3,0.2h-6.2
										C159.5,57,159.4,56.9,159.4,56.8z M159.7,56.5c-0.1,0-0.2,0.1-0.2,0.1v0.2c0,0.1,0.1,0.1,0.2,0.1h6.2
										c0.1,0,0.2-0.1,0.2-0.1v-0.2c0-0.1-0.1-0.1-0.2-0.1H159.7z"/>
									<path class="st20" d="M159.4,56.8v-0.2c0-0.1,0.2-0.3,0.3-0.3h6.2c0.2,0,0.3,0.1,0.3,0.3v0.2c0,0.1-0.2,0.3-0.3,0.3h-6.2
										C159.5,57.1,159.4,56.9,159.4,56.8z M159.7,56.5c-0.1,0-0.1,0-0.1,0.1v0.2c0,0,0.1,0.1,0.1,0.1h6.2c0.1,0,0.1,0,0.1-0.1
										v-0.2c0,0-0.1-0.1-0.1-0.1H159.7z M166.1,56.6v0.2c0,0,0,0.1,0,0.1c0,0,0,0,0-0.1L166.1,56.6
										C166.1,56.6,166.1,56.6,166.1,56.6C166.1,56.6,166.1,56.6,166.1,56.6z M159.5,56.6v0.2c0,0,0,0.1,0,0.1c0,0,0,0,0-0.1
										L159.5,56.6C159.5,56.6,159.5,56.6,159.5,56.6C159.5,56.6,159.5,56.6,159.5,56.6z"/>
								</g>
								<g>
									<path class="st20" d="M159.4,56.8v-0.2c0-0.1,0.1-0.2,0.3-0.2h6.2c0.2,0,0.3,0.1,0.3,0.2v0.2c0,0.1-0.1,0.2-0.3,0.2h-6.2
										C159.5,57,159.4,56.9,159.4,56.8z M159.7,56.4c-0.2,0-0.3,0.1-0.3,0.2v0.2c0,0.1,0.1,0.2,0.3,0.2h6.2
										c0.2,0,0.3-0.1,0.3-0.2v-0.2c0-0.1-0.1-0.2-0.3-0.2H159.7z M159.5,56.8v-0.2c0-0.1,0.1-0.1,0.2-0.1h6.2
										c0.1,0,0.2,0.1,0.2,0.1v0.2c0,0.1-0.1,0.1-0.2,0.1h-6.2C159.6,57,159.5,56.9,159.5,56.8z M159.7,56.5
										c-0.1,0-0.2,0.1-0.2,0.1v0.2c0,0.1,0.1,0.1,0.2,0.1h6.2c0.1,0,0.2-0.1,0.2-0.1v-0.2c0-0.1-0.1-0.1-0.2-0.1H159.7z"/>
									<path class="st20" d="M159.3,56.8v-0.2c0-0.2,0.2-0.3,0.4-0.3h6.2c0.2,0,0.4,0.1,0.4,0.3v0.2c0,0.2-0.2,0.3-0.4,0.3h-6.2
										C159.5,57.1,159.3,57,159.3,56.8z M159.7,56.6c-0.1,0-0.1,0-0.1,0.1v0.2c0,0,0,0.1,0.1,0.1h6.2c0.1,0,0.1,0,0.1-0.1v-0.2
										c0,0,0-0.1-0.1-0.1H159.7z"/>
								</g>
							</g>
						</g>
						<g>
							<g>
								<g>
									<path class="st20" d="M157,57.9h8.9c0.1,0,0.3-0.1,0.3-0.3l0,0c0-0.1-0.1-0.3-0.3-0.3H157c-0.1,0-0.3,0.1-0.3,0.3l0,0
										C156.7,57.8,156.9,57.9,157,57.9z"/>
									<path class="st20" d="M156.7,57.7c0-0.2,0.1-0.3,0.3-0.3h8.9c0.2,0,0.3,0.1,0.3,0.3c0,0.2-0.1,0.3-0.3,0.3H157
										C156.8,58,156.7,57.8,156.7,57.7z M157,57.5c-0.1,0-0.2,0.1-0.2,0.2c0,0.1,0.1,0.2,0.2,0.2h8.9c0.1,0,0.2-0.1,0.2-0.2
										c0-0.1-0.1-0.2-0.2-0.2H157z"/>
								</g>
								<g>
									<path class="st20" d="M156.7,57.7c0-0.2,0.1-0.3,0.3-0.3h8.9c0.2,0,0.3,0.1,0.3,0.3c0,0.2-0.1,0.3-0.3,0.3H157
										C156.8,58,156.7,57.8,156.7,57.7z M157,57.4c-0.1,0-0.2,0.1-0.2,0.2c0,0.1,0.1,0.2,0.2,0.2h8.9c0.1,0,0.2-0.1,0.2-0.2
										c0-0.1-0.1-0.2-0.2-0.2H157z"/>
									<path class="st20" d="M156.7,57.7c0-0.2,0.1-0.3,0.3-0.3h8.9c0.2,0,0.3,0.1,0.3,0.3c0,0.2-0.1,0.3-0.3,0.3H157
										C156.8,58,156.7,57.9,156.7,57.7z M157,57.5c-0.1,0-0.2,0.1-0.2,0.2s0.1,0.2,0.2,0.2h8.9c0.1,0,0.2-0.1,0.2-0.2
										s-0.1-0.2-0.2-0.2H157z"/>
								</g>
							</g>
							<g>
								<g>
									<path class="st20" d="M156.7,57.7L156.7,57.7c0-0.2,0.2-0.3,0.4-0.3h8.7c0.2,0,0.4,0.1,0.4,0.3v0.1c0,0.1-0.2,0.3-0.4,0.3
										h-8.7C156.9,58,156.7,57.9,156.7,57.7z M157.1,57.5c-0.1,0-0.3,0.1-0.3,0.2v0.1c0,0.1,0.1,0.2,0.3,0.2h8.7
										c0.1,0,0.3-0.1,0.3-0.2v-0.1c0-0.1-0.1-0.2-0.3-0.2H157.1z"/>
									<path class="st20" d="M156.6,57.7L156.6,57.7c0-0.2,0.2-0.4,0.4-0.4h8.7c0.2,0,0.4,0.1,0.4,0.3v0.1c0,0.2-0.2,0.3-0.4,0.3
										h-8.7C156.8,58,156.6,57.9,156.6,57.7z M157.1,57.5c-0.1,0-0.2,0.1-0.2,0.1v0.1c0,0.1,0.1,0.1,0.2,0.1h8.7
										c0.1,0,0.2-0.1,0.2-0.1v-0.1c0-0.1-0.1-0.1-0.2-0.1H157.1z M156.7,57.6L156.7,57.6c0,0.1,0,0.1,0,0.2
										C156.8,57.8,156.8,57.7,156.7,57.6L156.7,57.6c0,0,0-0.1,0-0.1C156.8,57.6,156.7,57.6,156.7,57.6z M166.1,57.6L166.1,57.6
										c0,0.1,0,0.1,0,0.2C166.1,57.8,166.1,57.7,166.1,57.6L166.1,57.6c0,0,0-0.1,0-0.1C166.1,57.6,166.1,57.6,166.1,57.6z"/>
								</g>
								<g>
									<path class="st20" d="M156.7,57.7L156.7,57.7c0-0.2,0.2-0.3,0.4-0.3h8.7c0.2,0,0.4,0.1,0.4,0.3v0.1c0,0.2-0.2,0.3-0.4,0.3
										h-8.7C156.9,58,156.7,57.9,156.7,57.7z M157.1,57.4c-0.2,0-0.4,0.1-0.4,0.2v0.1c0,0.1,0.2,0.2,0.4,0.2h8.7
										c0.2,0,0.4-0.1,0.4-0.2v-0.1c0-0.1-0.2-0.2-0.4-0.2H157.1z M156.8,57.7L156.8,57.7c0-0.2,0.1-0.3,0.3-0.3h8.7
										c0.2,0,0.3,0.1,0.3,0.2v0.1c0,0.1-0.1,0.2-0.3,0.2h-8.7C156.9,57.9,156.8,57.8,156.8,57.7z M157.1,57.5
										c-0.1,0-0.3,0.1-0.3,0.2v0.1c0,0.1,0.1,0.2,0.3,0.2h8.7c0.1,0,0.3-0.1,0.3-0.2v-0.1c0-0.1-0.1-0.2-0.3-0.2H157.1z"/>
									<path class="st20" d="M156.6,57.7L156.6,57.7c0-0.2,0.2-0.4,0.4-0.4h8.7c0.2,0,0.4,0.1,0.4,0.3v0.1c0,0.2-0.2,0.3-0.4,0.3
										h-8.7C156.8,58,156.6,57.9,156.6,57.7z M157.1,57.5c-0.1,0-0.2,0.1-0.2,0.1v0.1c0,0.1,0.1,0.1,0.2,0.1h8.7
										c0.1,0,0.2-0.1,0.2-0.1v-0.1c0-0.1-0.1-0.1-0.2-0.1H157.1z"/>
								</g>
							</g>
						</g>
					</g>
					<g>
						<g>
							<g>
								<circle class="st20" cx="168.2" cy="57.2" r="1"/>
								<path class="st20" d="M167.2,57.2c0-0.6,0.5-1,1-1c0.6,0,1,0.5,1,1s-0.5,1-1,1C167.7,58.3,167.2,57.8,167.2,57.2z
									 M167.3,57.2c0,0.5,0.4,0.9,0.9,0.9c0.5,0,0.9-0.4,0.9-0.9c0-0.5-0.4-0.9-0.9-0.9C167.7,56.3,167.3,56.7,167.3,57.2z"/>
							</g>
						</g>
						<g>
							<g>
								<path class="st20" d="M167.2,57.2c0-0.6,0.4-1,1-1c0.6,0,1,0.4,1,1c0,0.6-0.4,1-1,1C167.7,58.2,167.2,57.8,167.2,57.2z
									 M167.3,57.2c0,0.5,0.4,1,1,1c0.5,0,1-0.4,1-1c0-0.5-0.4-1-1-1C167.7,56.3,167.3,56.7,167.3,57.2z"/>
								<path class="st20" d="M167.2,57.2c0-0.6,0.5-1.1,1.1-1.1c0.6,0,1.1,0.5,1.1,1.1c0,0.6-0.5,1.1-1.1,1.1
									C167.6,58.3,167.2,57.8,167.2,57.2z M167.3,57.2c0,0.5,0.4,0.9,0.9,0.9c0.5,0,0.9-0.4,0.9-0.9c0-0.5-0.4-0.9-0.9-0.9
									C167.7,56.3,167.3,56.7,167.3,57.2z"/>
							</g>
						</g>
					</g>
				</g>
			</g>
			<g>
				<g>
					<path class="st21" d="M129.8,66.8h19.6c0.6,0,1.1-0.4,1.1-1l0.9-10.8c0-0.6-0.5-1.1-1.1-1.1h-19.6c-0.6,0-1.1,0.4-1.1,1
						l-0.9,10.8C128.7,66.3,129.2,66.8,129.8,66.8z"/>
					<path class="st21" d="M128.9,66.5c-0.2-0.2-0.3-0.5-0.3-0.8l0.9-10.8c0-0.6,0.6-1,1.2-1h19.6c0.3,0,0.7,0.1,0.9,0.4
						c0.2,0.2,0.3,0.5,0.3,0.8l-0.9,10.8c0,0.6-0.6,1-1.2,1h-19.6C129.5,66.9,129.2,66.7,128.9,66.5z M130.7,54
						c-0.6,0-1,0.4-1.1,0.9l-0.9,10.8c0,0.3,0.1,0.5,0.3,0.7c0.2,0.2,0.5,0.3,0.8,0.3h19.6c0.6,0,1-0.4,1.1-0.9l0.9-10.8
						c0-0.3-0.1-0.5-0.3-0.7c-0.2-0.2-0.5-0.3-0.8-0.3H130.7z"/>
				</g>
				<g>
					<g>
						<polygon class="st20" points="145.7,64.9 149.1,65 149.4,60.3 146.1,60.2 						"/>
						<path class="st20" d="M145.7,65l0.3-4.8l3.5,0.1l-0.3,4.8L145.7,65z M146.1,60.3l-0.3,4.6l3.3,0.1l0.3-4.6L146.1,60.3z"/>
					</g>
					<g>
						<polygon class="st20" points="142,64.9 145.3,65 145.6,61.4 142.2,61.3 						"/>
						<path class="st20" d="M141.9,64.9l0.2-3.7l3.5,0.1l-0.2,3.7L141.9,64.9z M142.2,61.3l-0.2,3.5l3.3,0.1l0.2-3.5L142.2,61.3z"/>
					</g>
					<g>
						<polygon class="st20" points="138.1,64.9 141.5,65 141.9,59.3 138.5,59.2 						"/>
						<path class="st20" d="M138.1,64.9l0.4-5.8l3.5,0.1l-0.4,5.8L138.1,64.9z M138.5,59.2l-0.4,5.6l3.3,0.1l0.4-5.6L138.5,59.2z"/>
					</g>
					<g>
						<polygon class="st20" points="134.3,64.9 137.7,64.9 138.2,57 134.8,57 						"/>
						<path class="st20" d="M134.2,65l0.5-8l3.5,0l-0.5,8L134.2,65z M134.9,57l-0.5,7.8l3.3,0l0.5-7.8L134.9,57z"/>
					</g>
					<g>
						<polygon class="st20" points="130.5,64.9 133.8,65 134.4,56.2 131,56.2 						"/>
						<path class="st20" d="M130.4,65l0.6-8.8l3.5,0l-0.6,8.8L130.4,65z M131.1,56.3l-0.6,8.6l3.3,0l0.6-8.6L131.1,56.3z"/>
					</g>
				</g>
			</g>
			<g>
				<g>
					<g>
						<polygon class="st22" points="112.5,56.9 121.2,57.1 121.6,51.7 112.9,51.6 						"/>
					</g>
				</g>
				<g>
					<g>
						<polygon class="st23" points="117,54.6 121.6,51.8 112.9,51.6 						"/>
					</g>
					<g>
						<path class="st23" d="M112.9,51.6l8.7,0.2l-4.6,2.8l0,0L112.9,51.6z M113,51.6l4,2.9l4.5-2.8L113,51.6z"/>
					</g>
				</g>
				<g>
					<g>
						<polygon class="st22" points="117.1,54.2 121.4,51.8 113.1,51.6 						"/>
					</g>
					<g>
						<path class="st22" d="M112.9,51.6l8.6,0.2l-4.5,2.5L112.9,51.6z M113.3,51.7l3.8,2.5l4.2-2.3L113.3,51.7z"/>
					</g>
				</g>
			</g>
			<g>
				<g>
					<path class="st22" d="M110.9,62.3l0.6,0l0.1-1.1l1,0l-0.1,1.1l1,0l0.1-1.1l0,0l0.9,0l0,0l-0.1,1.1l1,0l0.1-1.1l0,0l0.9,0l0,0
						l-0.1,1.1l1,0l0.1-1.1l0,0l0.9,0l0,0l-0.1,1.1l1,0l0.1-1.1l0,0l0.9,0l0,0l-0.1,1.1l1,0l0.1-1.1l1,0l-0.1,1.1l0.6,0
						c0.4,0,0.8,0.4,0.7,0.8l-0.7,7.7c-0.1,0.7-0.6,1.2-1.3,1.2L110.7,72c-0.6,0-1.1-0.5-1.1-1.2l0.5-7.7
						C110.1,62.6,110.5,62.3,110.9,62.3z"/>
					<path class="st22" d="M109.5,70.8l0.5-7.7c0-0.5,0.5-0.9,0.9-0.9l0.6,0l0.1-1.1l1.1,0l-0.1,1.1l0.9,0l0.1-1.1l0-0.1l1.1,0
						l-0.1,1.1l0.9,0l0.1-1.1l0-0.1l1.1,0l-0.1,1.1l0.9,0l0.1-1.1l0-0.1l1.1,0l-0.1,1.1l0.9,0l0.1-1.1l0-0.1l1.1,0l-0.1,1.1l0.9,0
						l0.1-1.1l1.1,0l-0.1,1.1l0.6,0c0.5,0,0.8,0.4,0.8,0.9l-0.7,7.7c-0.1,0.7-0.7,1.3-1.4,1.3l-11.2-0.1
						C110,72.1,109.5,71.5,109.5,70.8z M122.4,62.4l0.1-1.1l-0.8,0l-0.1,1.1l-1.2,0l0.1-1.1l-0.8,0l-0.1,1.1l-1.2,0l0.1-1.1l-0.8,0
						l-0.1,1.1l-1.2,0l0.1-1.1l-0.8,0l-0.1,1.1l-1.2,0l0.1-1.1l-0.8,0l-0.1,1.1l-1.2,0l0.1-1.1l-0.8,0l-0.1,1.1l-0.7,0
						c-0.4,0-0.7,0.3-0.8,0.7l-0.5,7.7c0,0.6,0.4,1.1,1,1.1l11.2,0.1c0.6,0,1.1-0.5,1.2-1.1l0.7-7.7c0-0.4-0.3-0.7-0.7-0.7
						L122.4,62.4z"/>
				</g>
				<g>
					<path class="st24" d="M111.5,71.2l9.6,0.1c0.5,0,0.9-0.4,1-0.9l0.5-5.4c0-0.3-0.2-0.6-0.6-0.6l-10.3-0.1
						c-0.3,0-0.6,0.3-0.7,0.6l-0.3,5.4C110.7,70.8,111,71.2,111.5,71.2z"/>
					<path class="st24" d="M110.6,70.3l0.3-5.4c0-0.4,0.4-0.7,0.7-0.7l10.3,0.1c0.4,0,0.7,0.3,0.6,0.7l-0.5,5.4c0,0.6-0.5,1-1.1,1
						l-9.6-0.1C111,71.3,110.6,70.9,110.6,70.3z M111.7,64.4c-0.3,0-0.6,0.2-0.6,0.5l-0.3,5.4c0,0.5,0.3,0.8,0.8,0.9l9.6,0.1
						c0.5,0,0.9-0.4,0.9-0.8l0.5-5.4c0-0.3-0.2-0.5-0.5-0.6L111.7,64.4z"/>
				</g>
				<g>
					<g>
						<polygon class="st22" points="120,65.7 120.9,65.7 121,64.9 120.1,64.9 						"/>
						<path class="st22" d="M120.1,64.8l1,0l-0.1,0.9l-1,0L120.1,64.8z M120.9,64.9l-0.8,0l-0.1,0.8l0.8,0L120.9,64.9z"/>
					</g>
					<g>
						<polygon class="st22" points="118.9,65.7 119.7,65.7 119.8,64.9 118.9,64.9 						"/>
						<path class="st22" d="M118.9,64.8l1,0l-0.1,0.9l-1,0L118.9,64.8z M119.8,64.9l-0.8,0l-0.1,0.8l0.8,0L119.8,64.9z"/>
					</g>
					<g>
						<polygon class="st22" points="117.7,65.7 118.6,65.7 118.6,64.9 117.7,64.9 						"/>
						<path class="st22" d="M117.7,64.8l1,0l-0.1,0.9l-1,0L117.7,64.8z M118.6,64.9l-0.8,0l-0.1,0.8l0.8,0L118.6,64.9z"/>
					</g>
					<g>
						<polygon class="st22" points="116.5,65.7 117.4,65.7 117.4,64.9 116.6,64.9 						"/>
						<path class="st22" d="M116.5,64.8l1,0l-0.1,0.9l-1,0L116.5,64.8z M117.4,64.9l-0.8,0l-0.1,0.8l0.8,0L117.4,64.9z"/>
					</g>
					<g>
						<polygon class="st22" points="115.3,65.7 116.2,65.7 116.3,64.9 115.4,64.8 						"/>
						<path class="st22" d="M115.3,64.8l1,0l-0.1,0.9l-1,0L115.3,64.8z M116.2,64.9l-0.8,0l-0.1,0.8l0.8,0L116.2,64.9z"/>
					</g>
					<g>
						<polygon class="st25" points="114.1,65.7 115,65.7 115.1,64.8 114.2,64.8 						"/>
						<path class="st25" d="M114.2,64.8l1,0l-0.1,0.9l-1,0L114.2,64.8z M115,64.9l-0.8,0l-0.1,0.8l0.8,0L115,64.9z"/>
					</g>
					<g>
						<polygon class="st25" points="113,65.7 113.9,65.7 113.9,64.8 113,64.8 						"/>
						<path class="st25" d="M113,64.8l1,0l-0.1,0.9l-1,0L113,64.8z M113.9,64.9l-0.8,0l-0.1,0.8l0.8,0L113.9,64.9z"/>
					</g>
				</g>
				<g>
					<g>
						<polygon class="st22" points="119.9,66.9 120.8,66.9 120.9,66.1 120,66.1 						"/>
						<path class="st22" d="M120,66l1,0l-0.1,0.9l-1,0L120,66z M120.9,66.1l-0.8,0l-0.1,0.8l0.8,0L120.9,66.1z"/>
					</g>
					<g>
						<polygon class="st22" points="118.8,66.9 119.7,66.9 119.7,66.1 118.8,66 						"/>
						<path class="st22" d="M118.8,66l1,0l-0.1,0.9l-1,0L118.8,66z M119.7,66.1l-0.8,0l-0.1,0.8l0.8,0L119.7,66.1z"/>
					</g>
					<g>
						<polygon class="st22" points="117.6,66.9 118.5,66.9 118.5,66 117.7,66 						"/>
						<path class="st22" d="M117.6,66l1,0l-0.1,0.9l-1,0L117.6,66z M118.5,66.1l-0.8,0l-0.1,0.8l0.8,0L118.5,66.1z"/>
					</g>
					<g>
						<polygon class="st22" points="116.4,66.9 117.3,66.9 117.4,66 116.5,66 						"/>
						<path class="st22" d="M116.4,66l1,0l-0.1,0.9l-1,0L116.4,66z M117.3,66.1l-0.8,0l-0.1,0.8l0.8,0L117.3,66.1z"/>
					</g>
					<g>
						<polygon class="st22" points="115.3,66.9 116.1,66.9 116.2,66 115.3,66 						"/>
						<path class="st22" d="M115.3,66l1,0l-0.1,0.9l-1,0L115.3,66z M116.1,66.1l-0.8,0l-0.1,0.8l0.8,0L116.1,66.1z"/>
					</g>
					<g>
						<polygon class="st25" points="114.1,66.9 115,66.9 115,66 114.1,66 						"/>
						<path class="st25" d="M114.1,66l1,0l-0.1,0.9l-1,0L114.1,66z M115,66.1l-0.8,0l-0.1,0.8l0.8,0L115,66.1z"/>
					</g>
					<g>
						<polygon class="st25" points="112.9,66.8 113.8,66.9 113.8,66 113,66 						"/>
						<path class="st25" d="M112.9,66l1,0l-0.1,0.9l-1,0L112.9,66z M113.8,66.1l-0.8,0l-0.1,0.8l0.8,0L113.8,66.1z"/>
					</g>
				</g>
				<g>
					<g>
						<polygon class="st22" points="119.9,68.1 120.7,68.1 120.8,67.2 119.9,67.2 						"/>
						<path class="st22" d="M119.9,67.2l1,0l-0.1,0.9l-1,0L119.9,67.2z M120.8,67.3l-0.8,0l-0.1,0.8l0.8,0L120.8,67.3z"/>
					</g>
					<g>
						<polygon class="st22" points="118.7,68.1 119.6,68.1 119.6,67.2 118.8,67.2 						"/>
						<path class="st22" d="M118.7,67.2l1,0l-0.1,0.9l-1,0L118.7,67.2z M119.6,67.3l-0.8,0l-0.1,0.8l0.8,0L119.6,67.3z"/>
					</g>
					<g>
						<polygon class="st22" points="117.5,68 118.4,68.1 118.5,67.2 117.6,67.2 						"/>
						<path class="st22" d="M117.5,67.2l1,0l-0.1,0.9l-1,0L117.5,67.2z M118.4,67.3l-0.8,0l-0.1,0.8l0.8,0L118.4,67.3z"/>
					</g>
					<g>
						<polygon class="st22" points="116.4,68 117.2,68 117.3,67.2 116.4,67.2 						"/>
						<path class="st22" d="M116.4,67.2l1,0l-0.1,0.9l-1,0L116.4,67.2z M117.3,67.3l-0.8,0l-0.1,0.8l0.8,0L117.3,67.3z"/>
					</g>
					<g>
						<polygon class="st22" points="115.2,68 116.1,68 116.1,67.2 115.2,67.2 						"/>
						<path class="st22" d="M115.2,67.2l1,0l-0.1,0.9l-1,0L115.2,67.2z M116.1,67.2l-0.8,0l-0.1,0.8l0.8,0L116.1,67.2z"/>
					</g>
					<g>
						<polygon class="st25" points="114,68 114.9,68 114.9,67.2 114.1,67.2 						"/>
						<path class="st25" d="M114,67.2l1,0l-0.1,0.9l-1,0L114,67.2z M114.9,67.2l-0.8,0L114,68l0.8,0L114.9,67.2z"/>
					</g>
					<g>
						<polygon class="st25" points="112.8,68 113.7,68 113.8,67.2 112.9,67.2 						"/>
						<path class="st25" d="M112.9,67.1l1,0l-0.1,0.9l-1,0L112.9,67.1z M113.7,67.2l-0.8,0l-0.1,0.8l0.8,0L113.7,67.2z"/>
					</g>
				</g>
				<g>
					<g>
						<polygon class="st22" points="119.8,69.2 120.7,69.2 120.7,68.4 119.9,68.4 						"/>
						<path class="st22" d="M119.8,68.4l1,0l-0.1,0.9l-1,0L119.8,68.4z M120.7,68.4l-0.8,0l-0.1,0.8l0.8,0L120.7,68.4z"/>
					</g>
					<g>
						<polygon class="st22" points="118.6,69.2 119.5,69.2 119.6,68.4 118.7,68.4 						"/>
						<path class="st22" d="M118.6,68.4l1,0l-0.1,0.9l-1,0L118.6,68.4z M119.5,68.4l-0.8,0l-0.1,0.8l0.8,0L119.5,68.4z"/>
					</g>
					<g>
						<polygon class="st22" points="117.4,69.2 118.3,69.2 118.4,68.4 117.5,68.4 						"/>
						<path class="st22" d="M117.5,68.3l1,0l-0.1,0.9l-1,0L117.5,68.3z M118.3,68.4l-0.8,0l-0.1,0.8l0.8,0L118.3,68.4z"/>
					</g>
					<g>
						<polygon class="st22" points="116.3,69.2 117.2,69.2 117.2,68.4 116.3,68.4 						"/>
						<path class="st22" d="M116.3,68.3l1,0l-0.1,0.9l-1,0L116.3,68.3z M117.2,68.4l-0.8,0l-0.1,0.8l0.8,0L117.2,68.4z"/>
					</g>
					<g>
						<polygon class="st22" points="115.1,69.2 116,69.2 116,68.4 115.2,68.4 						"/>
						<path class="st22" d="M115.1,68.3l1,0l-0.1,0.9l-1,0L115.1,68.3z M116,68.4l-0.8,0l-0.1,0.8l0.8,0L116,68.4z"/>
					</g>
					<g>
						<polygon class="st25" points="113.9,69.2 114.8,69.2 114.9,68.4 114,68.4 						"/>
						<path class="st25" d="M114,68.3l1,0l-0.1,0.9l-1,0L114,68.3z M114.8,68.4l-0.8,0l-0.1,0.8l0.8,0L114.8,68.4z"/>
					</g>
					<g>
						<polygon class="st25" points="112.8,69.2 113.7,69.2 113.7,68.4 112.8,68.4 						"/>
						<path class="st25" d="M112.8,68.3l1,0l-0.1,0.9l-1,0L112.8,68.3z M113.7,68.4l-0.8,0l-0.1,0.8l0.8,0L113.7,68.4z"/>
					</g>
				</g>
				<g>
					<g>
						<polygon class="st22" points="119.7,70.4 120.6,70.4 120.6,69.6 119.8,69.6 						"/>
						<path class="st22" d="M119.7,69.5l1,0l-0.1,0.9l-1,0L119.7,69.5z M120.6,69.6l-0.8,0l-0.1,0.8l0.8,0L120.6,69.6z"/>
					</g>
					<g>
						<polygon class="st22" points="118.5,70.4 119.4,70.4 119.5,69.6 118.6,69.6 						"/>
						<path class="st22" d="M118.6,69.5l1,0l-0.1,0.9l-1,0L118.6,69.5z M119.4,69.6l-0.8,0l-0.1,0.8l0.8,0L119.4,69.6z"/>
					</g>
					<g>
						<polygon class="st22" points="117.4,70.4 118.2,70.4 118.3,69.6 117.4,69.6 						"/>
						<path class="st22" d="M117.4,69.5l1,0l-0.1,0.9l-1,0L117.4,69.5z M118.3,69.6l-0.8,0l-0.1,0.8l0.8,0L118.3,69.6z"/>
					</g>
				</g>
			</g>
			<g>
				<g>
					<g>
						<polygon class="st26" points="116.3,52.3 127.2,52.5 127.7,45.8 116.8,45.6 						"/>
						<path class="st26" d="M116.2,52.3l0.5-6.7l0,0l11.1,0.2l-0.5,6.7l0,0L116.2,52.3z M116.8,45.6l-0.5,6.6l10.9,0.2l0.5-6.6
							L116.8,45.6z"/>
					</g>
				</g>
				<g>
					<g>
						<polygon class="st27" points="121.9,49.4 127.7,45.8 116.8,45.6 						"/>
					</g>
					<g>
						<path class="st27" d="M116.8,45.6l11,0.2l-5.8,3.5l0,0L116.8,45.6z M116.9,45.6l5.1,3.7l5.7-3.5L116.9,45.6z"/>
					</g>
				</g>
				<g>
					<g>
						<polygon class="st26" points="122,48.9 127.5,45.9 117,45.7 						"/>
						<path class="st26" d="M116.9,45.6l10.8,0.2L122,49L116.9,45.6z M117.2,45.7l4.8,3.1l5.3-2.9L117.2,45.7z"/>
					</g>
					<g>
						<path class="st26" d="M116.8,45.6l10.9,0.2L122,49L116.8,45.6z M117.3,45.8l4.7,3.1l5.2-2.9L117.3,45.8z"/>
						<path class="st26" d="M116.7,45.6l11.2,0.2l-5.9,3.3L116.7,45.6z M117,45.7l5,3.3l5.5-3.1L117,45.7z M117.1,45.7l10.3,0.2
							l-5.4,3L117.1,45.7z M117.4,45.8l4.6,3l5.1-2.8L117.4,45.8z"/>
					</g>
				</g>
			</g>
			<g>
				<g>
					<circle class="st21" cx="170.2" cy="40.9" r="0.9"/>
					<path class="st21" d="M169.3,40.9c0-0.5,0.4-1,1-1c0.5,0,1,0.4,1,1c0,0.5-0.4,1-1,1C169.7,41.8,169.3,41.4,169.3,40.9z
						 M169.4,40.9c0,0.5,0.4,0.9,0.9,0.9s0.9-0.4,0.9-0.9c0-0.5-0.4-0.9-0.9-0.9S169.4,40.4,169.4,40.9z"/>
				</g>
				<g>
					<circle class="st21" cx="167.2" cy="40.9" r="0.9"/>
					<path class="st21" d="M166.3,40.9c0-0.5,0.4-1,1-1c0.5,0,1,0.4,1,1c0,0.5-0.4,1-1,1C166.7,41.8,166.3,41.4,166.3,40.9z
						 M166.4,40.9c0,0.5,0.4,0.9,0.9,0.9s0.9-0.4,0.9-0.9c0-0.5-0.4-0.9-0.9-0.9S166.4,40.4,166.4,40.9z"/>
				</g>
				<g>
					<circle class="st21" cx="164.4" cy="40.9" r="0.9"/>
					<path class="st21" d="M163.4,40.9c0-0.5,0.4-1,1-1c0.5,0,1,0.4,1,1c0,0.5-0.4,1-1,1C163.8,41.8,163.4,41.4,163.4,40.9z
						 M163.5,40.9c0,0.5,0.4,0.9,0.9,0.9s0.9-0.4,0.9-0.9c0-0.5-0.4-0.9-0.9-0.9S163.5,40.4,163.5,40.9z"/>
				</g>
			</g>
		</g>
	</g>
	<g>
		<g>
			<g>
				<g>
					<polygon class="st2" points="96.5,167.4 97.6,177.5 91.5,177.4 89.6,167 					"/>
					<path class="st2" d="M91.3,177.6l-2-10.7l7.2,0.4l1.2,10.4L91.3,177.6z M89.7,167.2l1.8,10.1l5.9,0.1l-1.1-9.8L89.7,167.2z"/>
				</g>
				<g>
					<path class="st20" d="M98.5,176.1l11.1,1.1c0.3,0,0.6,0.2,0.8,0.4l0.3,0.3c0.4,0.4,0.5,1.1,0.2,1.6l0,0
						c-0.2,0.3-0.5,0.5-0.9,0.6l-18.4,2.6c-0.8,0.1-1.5-0.5-1.5-1.2l-0.1-2.2c0-0.4,0.2-0.8,0.5-1l0.2-0.1l0.6-0.5
						c0.3-0.3,0.8-0.4,1.2-0.3l0.8,0.3c1.2,0.4,2.4,0.2,3.4-0.5l1-0.7C97.9,176.2,98.2,176.1,98.5,176.1z"/>
					<path class="st20" d="M110,180.2l-18.4,2.6c-0.4,0.1-0.8-0.1-1.1-0.3c-0.3-0.3-0.5-0.6-0.5-1.1l-0.1-2.2c0-0.4,0.2-0.9,0.5-1.1
						l0.8-0.7c0.4-0.3,0.9-0.4,1.4-0.3l0.8,0.3c1.1,0.3,2.3,0.2,3.3-0.5l1-0.7c0.3-0.2,0.6-0.3,1-0.3l11.1,1.1
						c0.3,0,0.6,0.2,0.9,0.4l0.3,0.3c0.5,0.5,0.6,1.2,0.2,1.8C110.7,179.9,110.4,180.1,110,180.2C110,180.2,110,180.2,110,180.2z
						 M98.5,176.2c-0.3,0-0.5,0-0.8,0.2l-1,0.7c-1,0.7-2.3,0.9-3.5,0.6l-0.8-0.3c-0.4-0.1-0.8,0-1.1,0.2l-0.6,0.5l-0.2,0.1
						c-0.3,0.2-0.4,0.6-0.4,0.9l0.1,2.2c0,0.3,0.2,0.6,0.4,0.8c0.2,0.2,0.6,0.3,0.9,0.3l18.4-2.6c0.3-0.1,0.6-0.2,0.8-0.5
						c0.3-0.5,0.2-1-0.2-1.4l-0.3-0.3c-0.2-0.2-0.4-0.3-0.7-0.3L98.5,176.2L98.5,176.2z"/>
				</g>
			</g>
			<g>
				<path class="st17" d="M97.7,173.9l4.3-54.2c0,0-1.3-4.3-31.9,0.8l-11.9,3l3.8,12.4l21.5-1.8l6.8,40.5L97.7,173.9z"/>
				<path class="st17" d="M83.4,134.3l-21.3,1.8l-0.2,0L58,123.4l12.1-3l0,0c15.8-2.7,23.7-2.7,27.5-2.3c4.2,0.4,4.6,1.5,4.6,1.6
					l0,0l-4.3,54.4l-7.7,0.8L83.4,134.3z M101.9,119.8c-0.1-0.1-0.8-1-4.3-1.4c-3.8-0.4-11.6-0.3-27.3,2.3l-11.7,2.9l3.7,12.1
					l21.5-1.8l6.8,40.5l7-0.7L101.9,119.8z"/>
			</g>
		</g>
		<g>
			<g>
				<g>
					<polygon class="st4" points="122.2,169 124.9,182 117.7,183.4 113.9,169 					"/>
					<path class="st4" d="M113.7,168.9l8.6-0.1l2.8,13.4l-7.6,1.4L113.7,168.9z M122,169.2l-7.9,0l3.7,13.9l6.9-1.2L122,169.2z"/>
				</g>
				<g>
					<path class="st20" d="M125.3,181.2l12.5,3.2c0.3,0.1,0.6,0.3,0.8,0.6l0.3,0.4c0.4,0.6,0.4,1.3-0.1,1.9l0,0
						c-0.3,0.3-0.7,0.5-1.1,0.5l-21.5-0.2c-0.9,0-1.6-0.8-1.5-1.7l0.3-2.5c0.1-0.4,0.3-0.8,0.7-1.1l0.2-0.1l1.1-0.7
						c0.4-0.3,0.9-0.3,1.4-0.1l2.2,0.9c0.3,0.1,0.7,0.2,1.1,0l2.7-1C124.7,181.1,125,181.1,125.3,181.2z"/>
					<path class="st20" d="M137.7,187.9l-21.5-0.2c-0.5,0-0.9-0.2-1.2-0.6c-0.3-0.4-0.5-0.8-0.4-1.3l0.3-2.5
						c0.1-0.5,0.3-0.9,0.8-1.2l1.3-0.8c0.5-0.3,1-0.4,1.5-0.1l2.2,0.9c0.3,0.1,0.6,0.1,1,0l2.7-1c0.3-0.1,0.7-0.1,1,0l12.5,3.2
						c0.4,0.1,0.7,0.3,0.9,0.6l0.3,0.4c0.5,0.6,0.4,1.5-0.1,2.1C138.6,187.7,138.2,187.9,137.7,187.9
						C137.7,187.9,137.7,187.9,137.7,187.9z M125.2,181.4c-0.3-0.1-0.5-0.1-0.8,0l-2.7,1c-0.4,0.1-0.8,0.1-1.2,0l-2.2-0.9
						c-0.4-0.2-0.9-0.1-1.2,0.1l-1.1,0.7l-0.2,0.1c-0.3,0.2-0.6,0.6-0.6,1l-0.3,2.5c0,0.4,0.1,0.7,0.3,1c0.2,0.3,0.6,0.4,1,0.5
						l21.5,0.2c0.4,0,0.8-0.2,1-0.5c0.4-0.5,0.4-1.1,0.1-1.6l-0.3-0.4c-0.2-0.2-0.4-0.4-0.7-0.5L125.2,181.4L125.2,181.4z"/>
				</g>
			</g>
			<g>
				<path class="st28" d="M124.7,178.4c0,0-5.6-58.9-14.8-59.6c-8.4-0.7-56.2,2.3-56.2,2.3s-6.3,12.4,6.3,15.7s40-2,40-2l15.8,44.1
					L124.7,178.4z"/>
				<path class="st28" d="M99.9,134.9c-1.1,0.2-7.5,1.4-15.1,2.2c-7.7,0.8-18.2,1.5-24.8-0.2c-3.7-1-6.1-2.7-7.3-5.3
					c-2.1-4.7,0.8-10.6,0.8-10.6l0-0.1l0.1,0c0.5,0,47.9-2.9,56.2-2.3c3.9,0.3,7.6,10.5,11,30.2c2.5,14.6,3.9,29.4,4,29.5l0,0.2
					l-9.2,0.5L99.9,134.9z M120.5,148.9c-3.3-19.3-7-29.6-10.7-29.9c-8.1-0.6-53.4,2.1-56,2.3c-0.4,0.8-2.7,5.9-0.8,10.2
					c1.1,2.5,3.5,4.2,7,5.1c6.5,1.7,17,1.1,24.7,0.2c8.3-0.9,15.2-2.2,15.2-2.2l0.2,0l15.8,44.1l8.6-0.4
					C124.3,176.4,122.9,162.6,120.5,148.9z"/>
			</g>
			<g>
				<path class="st29" d="M127.4,177.7c0,0-5.6-58.9-14.8-59.6c-8.4-0.7-56.2,2.3-56.2,2.3s-6.3,12.4,6.3,15.7s40-2,40-2l15.8,44.1
					L127.4,177.7z"/>
				<path class="st29" d="M102.6,134.3c-1.1,0.2-7.5,1.4-15.1,2.2c-7.7,0.8-18.2,1.5-24.8-0.2c-3.7-1-6.1-2.7-7.3-5.3
					c-2.1-4.7,0.8-10.6,0.8-10.6l0-0.1l0.1,0c0.5,0,47.9-2.9,56.2-2.3c3.9,0.3,7.6,10.5,11,30.2c2.5,14.6,3.9,29.4,4,29.5l0,0.2
					l-9.2,0.5L102.6,134.3z M123.2,148.2c-3.3-19.3-7-29.6-10.7-29.9c-8.1-0.6-53.4,2.1-56,2.3c-0.4,0.8-2.7,5.9-0.8,10.2
					c1.1,2.5,3.5,4.2,7,5.1c6.5,1.7,17,1.1,24.7,0.2c8.3-0.9,15.2-2.2,15.2-2.2l0.2,0l15.8,44.1l8.6-0.4
					C127,175.7,125.6,161.9,123.2,148.2z"/>
			</g>
		</g>
	</g>
	<g>
		<g>
			<g>
				<ellipse class="st20" cx="54" cy="180.9" rx="2.8" ry="2.9"/>
				<path class="st20" d="M51.1,180.9c0-1.6,1.3-2.9,2.9-2.9c1.6,0,2.9,1.3,2.9,2.9s-1.3,2.9-2.9,2.9
					C52.4,183.8,51.1,182.5,51.1,180.9z M51.2,180.9c0,1.6,1.3,2.8,2.8,2.8c1.5,0,2.8-1.3,2.8-2.8c0-1.6-1.3-2.8-2.8-2.8
					C52.5,178.1,51.2,179.4,51.2,180.9z"/>
			</g>
			<g>
				<polygon class="st30" points="52.5,177.4 52.3,179.8 69.9,181.7 70.4,177 				"/>
				<path class="st30" d="M52.2,179.8L52.2,179.8l0.2-2.5l18-0.4l-0.5,4.8L52.2,179.8z M52.6,177.5l-0.3,2.3l17.5,2l0.5-4.6
					L52.6,177.5z"/>
			</g>
			<g>
				<ellipse class="st20" cx="82.8" cy="180.9" rx="2.8" ry="2.9"/>
				<path class="st20" d="M79.9,180.9c0-1.6,1.3-2.9,2.9-2.9c1.6,0,2.9,1.3,2.9,2.9s-1.3,2.9-2.9,2.9
					C81.2,183.8,79.9,182.5,79.9,180.9z M80,180.9c0,1.6,1.3,2.8,2.8,2.8c1.5,0,2.8-1.3,2.8-2.8c0-1.6-1.3-2.8-2.8-2.8
					C81.2,178.1,80,179.4,80,180.9z"/>
			</g>
			<g>
				<polygon class="st30" points="83.2,177.2 84.6,179.8 65.9,181.6 65.4,176.8 				"/>
				<path class="st30" d="M65.3,176.8l17.9,0.4l0,0l1.4,2.6l-18.8,1.8l0,0L65.3,176.8z M83.2,177.3l-17.8-0.4l0.5,4.6l18.6-1.8
					L83.2,177.3z"/>
			</g>
			<g>
				<g>
					<g>
						<g>
							
								<rect x="46.3" y="139.9" transform="matrix(1 -7.462185e-03 7.462185e-03 1 -1.0435 0.4011)" class="st30" width="13.8" height="0.3"/>
							<path class="st30" d="M46.3,139.9l13.9-0.1l0,0.4l-13.9,0.1L46.3,139.9z M60.1,139.9L46.4,140l0,0.2l13.7-0.1L60.1,139.9z"/>
						</g>
						<g>
							<path class="st30" d="M46.3,139.9l13.9-0.1l0,0.4l-13.9,0.1L46.3,139.9z M60.1,139.9L46.4,140l0,0.2l13.7-0.1L60.1,139.9z"/>
							<path class="st30" d="M46.2,139.8l14-0.1l0,0.5l-14,0.1L46.2,139.8z M60.1,139.8l-13.8,0.1l0,0.3l13.8-0.1L60.1,139.8z
								 M46.3,139.9l13.8-0.1l0,0.3l-13.8,0.1L46.3,139.9z M60,139.9L46.4,140l0,0.1L60,140L60,139.9z"/>
						</g>
					</g>
				</g>
				<g>
					<g>
						<path class="st30" d="M46.4,144.4h1c0.5,0,0.7-0.4,0.6-0.8l0,0c-0.3-1-0.1-2.1,0.6-2.8l0.7-0.8h-2.9l-0.2,0.4
							c-0.4,0.8-0.7,1.6-0.8,2.5l0,0C45,143.6,45.6,144.4,46.4,144.4z"/>
						<path class="st30" d="M45.4,143.9c-0.2-0.3-0.3-0.7-0.2-1.1c0.1-0.9,0.3-1.7,0.8-2.5l0.3-0.5h3.1l-0.8,0.9
							c-0.7,0.8-0.9,1.8-0.5,2.8c0.1,0.2,0,0.4-0.1,0.6c-0.1,0.2-0.3,0.2-0.5,0.2h-1C46,144.4,45.6,144.2,45.4,143.9z M46.3,140
							l-0.2,0.4c-0.4,0.8-0.7,1.6-0.7,2.4l0,0c-0.1,0.3-0.1,0.7,0.1,1c0.2,0.3,0.5,0.5,0.9,0.5h1c0.2,0,0.4-0.1,0.5-0.2
							c0.1-0.1,0.1-0.3,0.1-0.5c-0.3-1-0.1-2.1,0.6-2.9l0.6-0.7H46.3z"/>
					</g>
					<g>
						<path class="st30" d="M45.4,143.9c-0.2-0.3-0.3-0.7-0.2-1.1c0.1-0.9,0.3-1.7,0.8-2.5l0.3-0.5h3.1l-0.8,0.9
							c-0.7,0.8-0.9,1.8-0.5,2.8c0.1,0.2,0.1,0.4-0.1,0.6c-0.1,0.2-0.3,0.3-0.6,0.3h-1C46,144.4,45.6,144.2,45.4,143.9z M46.3,140
							l-0.2,0.4c-0.4,0.8-0.7,1.6-0.7,2.4l0,0c-0.1,0.3-0.1,0.7,0.1,1c0.2,0.3,0.5,0.5,0.9,0.5h1c0.2,0,0.4-0.1,0.5-0.2
							c0.1-0.1,0.1-0.3,0.1-0.5c-0.3-1-0.1-2.1,0.6-2.9l0.6-0.7H46.3z"/>
						<path class="st30" d="M45.3,143.9c-0.2-0.3-0.3-0.7-0.2-1.1c0.1-0.9,0.3-1.7,0.8-2.5l0.3-0.5h3.2l-0.8,1
							c-0.6,0.8-0.8,1.8-0.5,2.7c0.1,0.2,0.1,0.5-0.1,0.6c-0.1,0.2-0.3,0.3-0.6,0.3h-1C45.9,144.5,45.6,144.3,45.3,143.9z
							 M46.2,139.9l-0.2,0.5c-0.4,0.8-0.7,1.6-0.8,2.5l0,0c-0.1,0.4-0.1,0.7,0.2,1c0.2,0.3,0.6,0.5,0.9,0.5h1c0.2,0,0.4-0.1,0.5-0.2
							c0.1-0.1,0.1-0.3,0.1-0.6c-0.3-1-0.1-2.1,0.6-2.8l0.7-0.8H46.2z M45.4,143.9c-0.2-0.3-0.3-0.7-0.2-1l0,0
							c0.1-0.9,0.3-1.7,0.8-2.5l0.2-0.4h2.9l-0.7,0.8c-0.7,0.8-0.9,1.9-0.6,2.9c0.1,0.2,0,0.4-0.1,0.5c-0.1,0.1-0.3,0.2-0.5,0.2h-1
							C46,144.4,45.6,144.2,45.4,143.9z M46.3,140l-0.2,0.4c-0.4,0.8-0.7,1.6-0.7,2.4l0,0c-0.1,0.3-0.1,0.7,0.1,1
							c0.2,0.3,0.5,0.4,0.9,0.4h1c0.2,0,0.3-0.1,0.4-0.2c0.1-0.1,0.1-0.3,0-0.5c-0.3-1-0.1-2.1,0.6-2.9l0.5-0.6H46.3z"/>
					</g>
				</g>
			</g>
			<g>
				<g>
					
						<rect x="65.9" y="119.2" transform="matrix(-1 -4.496371e-11 4.496371e-11 -1 136.6721 297.8559)" class="st30" width="4.9" height="59.4"/>
					<path class="st30" d="M65.8,119.2h5v59.5h-5V119.2z M70.8,119.3h-4.8v59.3h4.8V119.3z"/>
				</g>
			</g>
			<g>
				<path class="st30" d="M59.2,141.9h18.2c2.6,0,4.7-2.1,4.7-4.7v0H54.5v0C54.5,139.8,56.6,141.9,59.2,141.9z"/>
				<path class="st30" d="M54.4,137.2L54.4,137.2l27.7,0v0c0,2.6-2.1,4.7-4.7,4.7H59.2C56.5,141.9,54.4,139.8,54.4,137.2z
					 M54.5,137.2c0,2.5,2.1,4.6,4.6,4.6h18.2c2.5,0,4.6-2.1,4.6-4.6H54.5z"/>
			</g>
			<g>
				<ellipse class="st20" cx="83" cy="188.5" rx="2.8" ry="2.9"/>
				<path class="st20" d="M80.1,188.5c0-1.6,1.3-2.9,2.9-2.9c1.6,0,2.9,1.3,2.9,2.9c0,1.6-1.3,2.9-2.9,2.9
					C81.4,191.4,80.1,190.1,80.1,188.5z M80.2,188.5c0,1.6,1.3,2.8,2.8,2.8s2.8-1.3,2.8-2.8c0-1.6-1.3-2.8-2.8-2.8
					S80.2,187,80.2,188.5z"/>
			</g>
			<g>
				<polygon class="st30" points="85.2,188.7 86.4,186.5 69.4,177.1 67.6,181.1 				"/>
				<path class="st30" d="M67.5,181.1l1.9-4.1l17.1,9.5l0,0l-1.3,2.2L67.5,181.1z M69.4,177.2l-1.8,3.9l17.5,7.5l1.2-2.1L69.4,177.2
					z"/>
			</g>
			<g>
				<ellipse class="st20" cx="53.9" cy="189.1" rx="2.8" ry="2.9"/>
				<path class="st20" d="M51,189.1c0-1.6,1.3-2.9,2.9-2.9c1.6,0,2.9,1.3,2.9,2.9s-1.3,2.9-2.9,2.9C52.3,192,51,190.7,51,189.1z
					 M51.1,189.1c0,1.6,1.3,2.8,2.8,2.8c1.5,0,2.8-1.3,2.8-2.8s-1.3-2.8-2.8-2.8C52.4,186.3,51.1,187.5,51.1,189.1z"/>
			</g>
			<g>
				<polygon class="st30" points="51.9,188.7 50.7,186.5 66.7,177.5 68.9,181.4 				"/>
				<path class="st30" d="M50.6,186.5l16.1-9.1l0,0l2.3,4l-17.1,7.3l0,0L50.6,186.5z M66.6,177.5l-15.9,9l1.2,2.1l16.9-7.3
					L66.6,177.5z"/>
			</g>
			<g>
				<path class="st30" d="M71.7,176.5l-2.9,0.5l-2.5-0.1l-1.2-0.4l-0.8,2.9c2.2,1.9,5.4,2.4,8.1,0.1L71.7,176.5z"/>
				<path class="st30" d="M68.2,181.1c-1.4-0.1-2.7-0.6-3.9-1.6l0,0l0.8-3l1.3,0.4l2.5,0.1l2.9-0.5l0.7,3l0,0l0,0
					c-1.2,1-2.6,1.6-4,1.6C68.4,181.1,68.3,181.1,68.2,181.1z M71.7,176.5l-2.8,0.5l-2.5-0.1l-1.2-0.4l-0.7,2.8
					c1.9,1.6,5.1,2.5,8,0.1L71.7,176.5z"/>
			</g>
			<g>
				<path class="st30" d="M65.1,176.5c0,0.4,1.5,0.7,3.4,0.7c1.9,0,3.4-0.3,3.4-0.7c0,0,0,0,0,0c0,0,0,0,0,0c0,0,0,0,0,0
					c0,0,0,0,0,0c0,0,0,0-0.1-0.1c0,0,0,0,0,0c-0.1-0.1-0.2-0.1-0.4-0.1c0,0-0.1,0-0.1,0c-0.1,0-0.2-0.1-0.4-0.1h0
					c-0.1,0.4-1.2,0.6-2.6,0.6c-1.3,0-2.3-0.3-2.5-0.6c-0.1,0-0.2,0.1-0.3,0.1c0,0,0,0-0.1,0c-0.1,0-0.1,0.1-0.2,0.1c0,0,0,0,0,0
					c0,0-0.1,0-0.1,0.1C65.1,176.4,65.1,176.4,65.1,176.5C65.1,176.5,65.1,176.5,65.1,176.5C65.1,176.5,65.1,176.5,65.1,176.5
					L65.1,176.5C65.1,176.5,65.1,176.5,65.1,176.5C65.1,176.5,65.1,176.5,65.1,176.5z"/>
				<path class="st30" d="M65.1,176.5C65.1,176.5,65.1,176.5,65.1,176.5L65.1,176.5C65.1,176.5,65.1,176.5,65.1,176.5
					c0-0.1,0-0.1,0-0.1c0,0,0,0,0,0c0,0,0.1-0.1,0.1-0.1l0,0c0,0,0,0,0,0c0,0,0.1-0.1,0.2-0.1c0,0,0,0,0.1,0c0.1,0,0.2-0.1,0.3-0.1
					l0,0l0,0c0.2,0.3,1.3,0.6,2.5,0.6c1.5,0,2.5-0.3,2.5-0.6l0,0h0l0,0c0.1,0,0.3,0.1,0.4,0.1c0,0,0.1,0,0.1,0
					c0.2,0,0.3,0.1,0.4,0.2c0,0,0,0,0.1,0c0,0,0.1,0,0.1,0.1c0,0,0,0,0,0c0,0,0,0,0,0c0,0,0,0,0,0c0,0,0,0,0,0
					c0,0.5-1.8,0.7-3.4,0.7S65.1,177,65.1,176.5z M68.3,176.8c-1.2,0-2.3-0.2-2.6-0.6c-0.1,0-0.2,0.1-0.3,0.1c0,0,0,0-0.1,0
					c-0.1,0-0.1,0.1-0.2,0.1c0,0,0,0,0,0l0,0c0,0-0.1,0-0.1,0.1c0,0,0,0,0,0c0,0,0,0,0,0c0,0,0,0,0,0l0,0c0,0,0,0,0,0l0,0
					c0,0,0,0,0,0c0,0.3,1.4,0.6,3.3,0.6c2,0,3.3-0.3,3.3-0.6c0,0,0,0,0,0c0,0,0,0,0,0l0,0c0,0,0,0,0,0c0,0,0,0-0.1-0.1c0,0,0,0,0,0
					c-0.1,0-0.2-0.1-0.3-0.1c0,0-0.1,0-0.1,0c-0.1,0-0.2-0.1-0.3-0.1C70.8,176.5,69.7,176.8,68.3,176.8z"/>
			</g>
		</g>
		<g>
			<g>
				<path class="st26" d="M93.7,135.2l2.5-0.6l-3.8-14.4c-1.1-4.3-5-7.3-9.5-7.3c0,0-0.1,0-0.1,0l-11.6,0.1l0,2.5l11.6-0.1
					c3.3,0,6.2,2.2,7.1,5.4L93.7,135.2z"/>
				<path class="st26" d="M89.9,120.8c-0.8-3.2-3.7-5.4-7-5.4c0,0,0,0-0.1,0l-11.6,0.1l0,0l0-2.6l11.7-0.1l0.1,0
					c4.5,0,8.4,3,9.5,7.3l3.8,14.4l0,0l-2.6,0.7L89.9,120.8z M92.3,120.1c-1.1-4.3-5-7.3-9.4-7.3L71.2,113l0,2.4l11.6-0.1
					c0,0,0,0,0.1,0c3.3,0,6.2,2.2,7.1,5.4l3.8,14.4l2.4-0.6L92.3,120.1z"/>
			</g>
		</g>
		<g>
			<g>
				<path class="st20" d="M61.1,136.7h14v-30.9c0-11.5-9.3-20.7-20.7-20.7h-4.7c-6.4,0-11.5,5.2-11.5,11.5v17.1
					C38.1,126.4,48.4,136.7,61.1,136.7z"/>
				<path class="st20" d="M38,132.8V87.1c0-1.1,0.9-2,2-2h31.4c2,0,3.6,1.6,3.6,3.6v48.1H42C39.8,136.8,38,135,38,132.8z"/>
			</g>
			<g>
				<path class="st20" d="M42.7,138.2l39.5-0.4l-6.7-5.4H38v1.1C38,136.1,40.1,138.2,42.7,138.2z"/>
				<path class="st20" d="M38,133.5v-1.2h37.5l6.8,5.5l-39.6,0.4h0C40.1,138.2,38,136.1,38,133.5z M75.5,132.4H38.1v1.1
					c0,2.6,2.1,4.6,4.6,4.6l39.3-0.4L75.5,132.4z"/>
			</g>
			<g>
				<g>
					<g>
						<path class="st20" d="M80,137.4C80.1,137.4,80.1,137.4,80,137.4l16.6-0.3c0.7,0,1.2-0.5,1.2-1.2c0-0.6-0.5-1.2-1.2-1.2
							c0,0,0,0,0,0l-16.6,0.3c0,0,0,0,0,0c-1.4,0-2.7-0.5-3.8-1.5c-1-1-1.6-2.3-1.5-3.7l0.3-43.1c0-0.6-0.5-1.2-1.2-1.2c0,0,0,0,0,0
							c-0.7,0-1.2,0.5-1.2,1.2l-0.3,43.1c0,2,0.8,3.9,2.3,5.3C76,136.6,78,137.4,80,137.4z"/>
						<path class="st20" d="M74.3,135.5c-1.6-1.5-2.4-3.5-2.4-5.7l0.3-43.1c0-0.9,0.8-1.6,1.7-1.6h0c0.4,0,0.9,0.2,1.2,0.5
							c0.3,0.3,0.5,0.7,0.5,1.2l-0.3,43.1c0,1.2,0.5,2.4,1.4,3.3c0.9,0.9,2.1,1.4,3.4,1.4l16.6-0.3l0,0c0.9,0,1.7,0.7,1.7,1.6
							c0,0.4-0.2,0.9-0.5,1.2c-0.3,0.3-0.7,0.5-1.2,0.5l-16.6,0.3l0,0C77.9,137.9,75.8,137,74.3,135.5z M80.1,135.5L80.1,135.5
							c-1.6,0-3-0.6-4.1-1.6c-1.1-1.1-1.7-2.5-1.7-4l0.3-43.1c0-0.2-0.1-0.3-0.2-0.5c-0.1-0.1-0.3-0.2-0.5-0.2
							c-0.4,0-0.7,0.3-0.7,0.7l-0.3,43.1c0,1.9,0.7,3.6,2.1,5c1.4,1.3,3.2,2.1,5.1,2.1h0l16.6-0.3c0.2,0,0.4-0.1,0.5-0.2
							c0.1-0.1,0.2-0.3,0.2-0.5c0-0.4-0.3-0.7-0.7-0.7L80.1,135.5z"/>
					</g>
				</g>
			</g>
		</g>
	</g>
</g>
</svg>
