<?xml version="1.0" encoding="utf-8"?>
<!-- Generator: Adobe Illustrator 24.1.2, SVG Export Plug-In . SVG Version: 6.00 Build 0)  -->
<svg version="1.1" id="Layer_1" xmlns="http://www.w3.org/2000/svg" xmlns:xlink="http://www.w3.org/1999/xlink" x="0px" y="0px"
	 width="380px" height="280px" viewBox="0 0 380 280" style="enable-background:new 0 0 380 280;" xml:space="preserve">
<style type="text/css">
	.st0{fill-rule:evenodd;clip-rule:evenodd;fill:#BDE2EF;}
	.st1{fill:#FFFFFF;}
	.st2{fill:#0096CA;}
	.st3{fill:#D1E3ED;}
	.st4{fill:#94EBF3;}
	.st5{fill:#F4B68C;}
	.st6{fill:#F58025;}
	.st7{fill:#14416D;}
	.st8{fill:#2B78B1;}
	.st9{fill:none;stroke:#E76F32;stroke-width:0.5008;stroke-miterlimit:10;}
	.st10{fill:#FFA085;}
	.st11{fill:#FFB68E;}
	.st12{fill:#003960;}
	.st13{fill:#0096D8;}
	.st14{fill:none;stroke:#14416D;stroke-width:0.5008;stroke-miterlimit:10;}
	.st15{fill:#E88D37;}
	.st16{fill:#FFB099;}
	.st17{fill-rule:evenodd;clip-rule:evenodd;fill:#14416D;}
	.st18{fill:#6C9FFD;}
	.st19{fill-rule:evenodd;clip-rule:evenodd;fill:#9EC457;}
	.st20{fill:#D8E5B7;}
	.st21{fill-rule:evenodd;clip-rule:evenodd;fill:#D8E5B7;}
	.st22{fill:#598247;}
	.st23{fill:#9EC457;}
	.st24{fill-rule:evenodd;clip-rule:evenodd;fill:#5A6771;}
	.st25{fill-rule:evenodd;clip-rule:evenodd;fill:#CC6633;}
	.st26{fill-rule:evenodd;clip-rule:evenodd;fill:#FBB03F;}
	.st27{fill-rule:evenodd;clip-rule:evenodd;fill:#E76F32;}
	.st28{fill:#EA9459;}
	.st29{fill:#E76F32;}
	.st30{fill:#FBB03F;}
	.st31{fill-rule:evenodd;clip-rule:evenodd;fill:#2B78B1;}
	.st32{fill-rule:evenodd;clip-rule:evenodd;fill:#D4E9E2;}
	.st33{fill-rule:evenodd;clip-rule:evenodd;fill:#326092;}
	.st34{fill-rule:evenodd;clip-rule:evenodd;fill:none;stroke:#FBB03F;stroke-width:0.5008;stroke-miterlimit:10;}
	.st35{fill:#6CA7BC;}
	.st36{fill:none;stroke:#6CA7BC;stroke-width:1.252;stroke-linecap:round;stroke-miterlimit:10;}
	.st37{fill:none;stroke:#6CA7BC;stroke-width:1.252;stroke-miterlimit:10;}
</style>
<g>
	<path class="st0" d="M329.1,51.7c-26.5-82-147.9-25.8-197.2-15.6C76.3,47.6,25,76.5,53,121.9c28,45.5,54.5,40.9,80.3,79
		s82.7,58.6,125,19.4C300.6,181,352.5,119.4,329.1,51.7z"/>
	<g>
		<g>
			<rect x="118.1" y="60.1" class="st1" width="121.5" height="81.2"/>
			<path class="st2" d="M240,141.7H117.8V59.8H240V141.7z M118.5,141h120.8V60.5H118.5V141z"/>
		</g>
		<g>
			<g>
				<rect x="130.6" y="121.3" class="st3" width="7.8" height="9.1"/>
				<rect x="145.6" y="106.7" class="st3" width="7.8" height="23.8"/>
				<rect x="160.6" y="111.3" class="st4" width="7.8" height="19.1"/>
				<rect x="175.6" y="98.2" class="st3" width="7.8" height="32.2"/>
				<rect x="190.5" y="104.9" class="st3" width="7.8" height="25.6"/>
				<rect x="205.5" y="93.6" class="st3" width="7.8" height="36.8"/>
				<rect x="220.3" y="82.1" class="st3" width="7.8" height="48.4"/>
			</g>
			<rect x="147.3" y="78.5" class="st5" width="15.1" height="2.5"/>
			<rect x="147.3" y="71.7" class="st5" width="40.4" height="2.5"/>
			<path class="st6" d="M214.9,74.9l-14.5,12.8l0,0l-4.2,3.7c-1.4,1.2-3.3,1.3-4.7,0.1l-8.2-6.6c-2.7-2.2-6.4-1.8-8.8,1.1l-9.5,11.6
				c-1.4,1.7-3.5,2-5.2,0.7l-6-4.8c-2.7-2.2-6.3-1.7-8.6,1l-14.9,17.6l2,2.5l14.9-17.6c1.4-1.6,3.5-1.9,5.1-0.6l6,4.8
				c2.8,2.2,6.4,1.7,8.7-1.1l9.5-11.6c1.4-1.7,3.6-2,5.2-0.6l8.2,6.6c2.4,2,5.6,1.9,7.9-0.2L217.4,77
				C216.6,76.2,215.8,75.5,214.9,74.9z"/>
			<circle class="st5" cx="136.5" cy="76.3" r="4.7"/>
			<circle class="st7" cx="216" cy="76" r="5"/>
			<path class="st8" d="M218.8,76c0,1.5-1.2,2.8-2.8,2.8c-1.5,0-2.8-1.2-2.8-2.8c0-1.5,1.2-2.8,2.8-2.8
				C217.5,73.2,218.8,74.5,218.8,76z"/>
			<path class="st9" d="M215.4,76.8l-14.5,12.8l0,0l-4.2,3.7c-1.4,1.2-3.3,1.3-4.7,0.1l-8.2-6.6c-2.7-2.2-6.4-1.8-8.8,1.1l-9.5,11.6
				c-1.4,1.7-3.5,2-5.2,0.7l-6-4.8c-2.7-2.2-6.3-1.7-8.6,1L131,114l2,2.5l14.9-17.6c1.4-1.6,3.5-1.9,5.1-0.6l6,4.8
				c2.8,2.2,6.4,1.7,8.7-1.1l9.5-11.6c1.4-1.7,3.6-2,5.2-0.6l8.2,6.6c2.4,2,5.6,1.9,7.9-0.2l19.5-17.2
				C217.1,78.1,216.3,77.4,215.4,76.8z"/>
		</g>
		<g>
			<g>
				<circle class="st10" cx="156.8" cy="119.5" r="3.1"/>
				<path class="st10" d="M139.1,146.5c-0.7,1.3-0.2,2.8,1.1,3.5c1.3,0.7,2.8,0.2,3.5-1.1c0.7-1.3,0.2-2.8-1.1-3.5
					C141.4,144.7,139.8,145.2,139.1,146.5z"/>
				<path class="st10" d="M153.4,118.4c1.6-2,3.3-3,5-2.1c2,1.1,2,3.5,1,6c-6.3,15.4-10.7,16.4-14.7,26c-0.7,1.8-2.7,2.6-4.6,1.6
					c-1.2-0.6-1.4-2.3-0.8-4.1C146.2,123.5,151.8,120.3,153.4,118.4z"/>
			</g>
			<g>
				<path class="st10" d="M139,146.8c-0.4,1.4,0.4,2.8,1.7,3.2c1.4,0.4,2.8-0.4,3.2-1.7c0.4-1.4-0.4-2.8-1.7-3.2
					C140.8,144.7,139.4,145.5,139,146.8z"/>
				<path class="st10" d="M136.3,176.7c0.1-15.7,2.2-28,2.4-29.2c0.4-1.8,1.7-2.8,3.3-2.4c1.6,0.3,2.9,1.7,2.7,3.7
					c-1,9.4-3.6,17.4-6.5,28.6L136.3,176.7z"/>
			</g>
			<path class="st11" d="M150.8,115.5c0.4-0.6,1-0.9,1.6-1.2c-0.1,0.2-0.2,0.3-0.1,0.4c0.1,0.3,2.5,0,2.4,0.7c0,0.4-0.9,0.6-3.6,0.8
				c-0.1,0-0.3,0-0.6,0C150.6,116,150.6,115.7,150.8,115.5z"/>
			<g>
				
					<ellipse transform="matrix(0.9994 -3.383680e-02 3.383680e-02 0.9994 -7.5499 6.1111)" class="st10" cx="176.8" cy="226.1" rx="4.5" ry="4.5"/>
				<path class="st10" d="M172.8,225.9l8.5,0.4c0,9.1-0.7,22.2-1.5,35.8l0,0c-0.1,2.1,1.4,4.6,3.1,5.9c0.7,0.5,1.6,1,2.4,1.3
					c-0.4,2.3-9.6,0.8-9.8-4.3c0.3-0.5,0.5-1,0.5-1.5C175.1,252.6,166.9,235.9,172.8,225.9z"/>
			</g>
			<g>
				
					<ellipse transform="matrix(0.4039 -0.9148 0.9148 0.4039 -114.0536 279.8094)" class="st10" cx="157.7" cy="227.4" rx="4.5" ry="4.5"/>
				<path class="st10" d="M153.9,226.2l8.1,2.6c-2.3,8.8-6.4,21.2-10.7,34.1l0,0c-0.7,2,0.4,4.6,1.9,6.1c0.6,0.6,1.3,1.1,2,1.6
					c-0.8,2.2-10-1-8.8-6c0.4-0.4,0.7-0.8,0.8-1.4C149.2,252.5,145.6,234.3,153.9,226.2z"/>
			</g>
			<path class="st12" d="M145.7,271.7h11.7v-0.2c0-0.6-0.3-1.1-0.8-1.2c-0.7-0.1-2.1-0.6-3.2-1.2c-3.9,0.5-5.3-4.9-7.3-4.4
				c-0.1,0.2-0.2,0.4-0.3,0.7C144.7,267.6,145.5,269.8,145.7,271.7z"/>
			<g>
				<circle class="st10" cx="163.1" cy="181.4" r="10.7"/>
				<path class="st10" d="M173.5,184.5c-3.5,15.4-6.7,27.4-11.5,44l-9.5,0.2c-1-18.5-1.7-38.8,0.9-47.4L173.5,184.5z"/>
			</g>
			<path class="st12" d="M175,271.7h14.8v-0.2c0-0.6-0.4-1.1-1-1.2c-0.8-0.1-2.2-0.5-3.6-1.2c-0.2,0.3-0.8,0.6-2.1,0.3
				c-2.5-0.4-7.2-2-7.5-4.8c-0.1,0.2-0.2,0.4-0.4,0.7C173.8,267.6,174.7,269.8,175,271.7z"/>
			<g>
				
					<ellipse transform="matrix(0.9979 -6.485903e-02 6.485903e-02 0.9979 -11.4165 11.3527)" class="st10" cx="169.1" cy="181.5" rx="11.8" ry="11.8"/>
				<path class="st10" d="M181,180.6c0.6,15.8,0.7,28.2,0.3,45.5l-9.1,2.6c-5.8-17.6-11.7-37.1-11.4-46.1L181,180.6z"/>
			</g>
			<path class="st13" d="M150.6,169C150.6,169,150.6,169,150.6,169c0,0,6.5-13.7,3.9-26.5c-1.4-7-3.9-23,5.1-30
				c2.8-2.2,5.7-0.5,7.6,0.8c3.3,2.1,6.8,9.1,12.9,12.4c0,0,1.3,7.4-4.4,9.9c0.3-1.4-7,14.4,2.3,32.6l0,0c3.3,6.3,5.3,16.6,3.4,42.9
				c0,0-20.3,6.2-31.8-3.2c0,0,2.1-9.8,1.1-17.3C150.5,187.7,146.1,177.5,150.6,169z"/>
			<path class="st14" d="M149.1,168.4C149.1,168.4,149.1,168.4,149.1,168.4c0,0,6.5-13.7,3.9-26.5c-1.4-7-3.9-23,5.1-30
				c2.8-2.2,5.7-0.5,7.6,0.8c3.3,2.1,6.8,9.1,12.9,12.4c0,0,1.3,7.4-4.4,9.9c0.3-1.4-7,14.4,2.3,32.6l0,0c3.3,6.3,5.3,16.6,3.4,42.9
				c0,0-20.3,6.2-31.8-3.2c0,0,2.1-9.8,1.1-17.3C149,187.1,144.7,176.8,149.1,168.4z"/>
			<g>
				<path class="st10" d="M158.6,113.4c0.7-1.9,0.6-5.3,0.3-7.7c-0.2-1.6,0.7-3,2.1-3.1l0,0c1.3-0.1,2.5,1.1,2.6,2.8
					c0.2,2.5,0.6,5.8,1.6,7.6C165.3,115.1,158.8,115.6,158.6,113.4z"/>
			</g>
			<path class="st11" d="M163.9,86.5c5.5,5.4,5.3,14.8,5.3,14.8c-0.3,11.4-11.2,2.2-12.2,1.3c-2.6-2.4-4.8-8.1-2.9-11.4
				C156.4,87.1,162.7,85.3,163.9,86.5z"/>
			<path class="st15" d="M146.2,115.3c1.1-3.2,4.6-5.1,5.5-8.3c0.8-2.6-1.9-3.1-2.9-5.7c-1.9-4.8-0.5-10.5,3.1-14.2
				c2.8-2.9,5.4-3.9,9.4-4.2c1.3-0.1,3.9,1.1,4.8,3.3c0.7,1.6,0.4,4.1-1.7,5.6c-5.3,3.7,0.4,9.3,0.6,14.1c0.1,2.2-3.3,5.8-4.4,7.8
				c-1.3,2.5-0.9,4.3-0.5,6.9c0.6,3.2,0.5,6.6,0.5,9.8c0,2.7-0.2,5.4-1.6,7.7c-1.4,2.3-3.9,3.6-6.6,3.7c-1.5,0.1-3-0.4-3.9-1.5
				c-1-1.3-1-3.1-0.6-4.7c0.4-1.6,1.3-3,1.7-4.6c0.9-3-0.5-4.5-1.8-7C146.5,121.2,145.2,118.2,146.2,115.3z"/>
			<g>
				<path class="st16" d="M169.1,124.8c1.6-0.4,2.6-2.1,2.1-3.8c-0.4-1.6-2.1-2.6-3.8-2.1c-1.6,0.4-2.6,2.1-2.1,3.8
					C165.7,124.3,167.4,125.2,169.1,124.8z"/>
				<path class="st16" d="M200,116.3c1.4-0.4,2.2-1.8,1.8-3.2c-0.4-1.4-1.8-2.2-3.2-1.8c-1.4,0.4-2.2,1.8-1.8,3.2
					C197.2,115.8,198.6,116.7,200,116.3z"/>
				<path class="st16" d="M169.8,125.1c-2.5,0.2-4.5-0.4-5-2.2c-0.6-2.2,1.2-3.9,3.7-4.8c15.5-5.9,19.3-3.4,29-7
					c1.8-0.7,3.7,0.3,4.3,2.3c0.4,1.3-0.7,2.6-2.4,3.4C178.4,126.8,172.2,124.9,169.8,125.1z"/>
			</g>
			<path class="st10" d="M214.1,82.3c0.2-0.6-2.4-2-2.9-1.1s-1.3,2.7-1,3.3s1.4,1.2,1.9,0.5c0.5-0.6,0.3-1.6,0.1-2
				c-0.3-0.4,0.5-0.6,0.9-0.5C213.5,82.8,214,82.8,214.1,82.3z"/>
			<path class="st16" d="M215.9,85.2c0.7-0.6,1.2-1.4,1-1.7c-0.2-0.3-0.7,0-0.8-0.3c-0.2-0.2,0.4-0.7,0.2-1c-0.2-0.3-0.7,0.1-1-0.1
				c-0.3-0.2,0.3-0.8-0.1-1.2c-0.1-0.1-0.3-0.2-0.6-0.1c0.6-1.1,2.1-3.6,1.7-3.8c-0.5-0.2-2.2,2.2-3,3.1s-2.3,2.5-2.3,2.5l0,0
				c-0.6,0.7-1,1.6-0.9,2.4c0.3,1.7-1,3-1,3l1.8-0.1c0,0,0.8-0.7,1.8-0.9c0.5-0.1,1.1-0.6,1.9-1C215,85.9,215.5,85.5,215.9,85.2z"/>
			<g>
				<path class="st16" d="M201.4,115.2c0.8-1.2,0.4-2.8-0.8-3.6c-1.2-0.8-2.8-0.4-3.6,0.8c-0.8,1.2-0.4,2.8,0.8,3.6
					C199,116.8,200.6,116.4,201.4,115.2z"/>
				<path class="st16" d="M212.1,87.2c-4.4,15.1-9.7,26.3-10.3,27.5c-0.8,1.6-2.4,2.2-3.9,1.4c-1.4-0.8-2.3-2.4-1.6-4.3
					c3.5-8.7,8.2-15.8,14-25.8L212.1,87.2z"/>
			</g>
			<g>
				<path class="st10" d="M136.3,176.8c0,0.5,0.4,1,1,1c0.5,0,1-0.4,1-1c0-0.5-0.4-1-1-1C136.7,175.8,136.3,176.3,136.3,176.8z"/>
				<path class="st10" d="M142.8,179.9c0.4,0.9-2.4,0.4-2.7,0.6c-0.6,0.4,0.7,5.4-0.2,5.7c-0.6,0.1-0.4-3.4-1-3.2
					c-0.7,0.2,0.2,4-0.5,4c-0.7,0-0.2-3.8-1-3.8c-0.7-0.1-0.4,3.5-1.2,3.4c-0.6-0.1,0-3.7-0.4-3.8c-0.5-0.1-0.7,2.5-1.2,2.4
					c-0.4-0.1,0-2.7,0.5-4.4c0.5-1.9,1.3-2.8,1.3-3.5c-0.1-1.7,1.4-1.6,1.9-0.5c0.3,0.6,1.8,1.9,1.9,2
					C141.6,179.8,142.6,179.5,142.8,179.9z"/>
			</g>
		</g>
	</g>
	<g>
		<g>
			<g>
				<g>
					<path class="st7" d="M251.5,272c0.1,0,0-0.1-0.2-0.1l-0.2,0.1L251.5,272z"/>
				</g>
			</g>
			<g>
				<g>
					<path class="st7" d="M250,271.8c-0.3,0-0.6,0.1-0.4,0.2c0.3-0.1,0.3-0.1,0.6-0.2c0.2,0,0.4,0,0.4,0.1c0.1,0,0.3,0,0.5,0
						C250.8,271.8,250.4,271.8,250,271.8C249.9,271.8,250,271.8,250,271.8z"/>
				</g>
			</g>
			<g>
				<g>
					<path class="st7" d="M228.2,271.6l0.1,0C228.3,271.6,228.2,271.6,228.2,271.6z"/>
				</g>
			</g>
			<g>
				<g>
					<path class="st7" d="M214.6,271.6c0.1,0,0.1,0,0.2,0C214.7,271.6,214.6,271.6,214.6,271.6z"/>
				</g>
			</g>
			<g>
				<g>
					<path class="st7" d="M212.3,271.5c0,0,0.1,0,0.1,0C212.4,271.5,212.4,271.5,212.3,271.5z"/>
				</g>
			</g>
			<g>
				<g>
					<path class="st7" d="M228.2,271.6l-0.4,0C227.8,271.6,228,271.6,228.2,271.6z"/>
				</g>
			</g>
			<g>
				<g>
					<path class="st7" d="M247,272c0.1,0,0.1,0,0.2,0C247.1,272,247.1,272,247,272C247,272,247,272,247,272z"/>
				</g>
			</g>
			<g>
				<g>
					<path class="st7" d="M234.1,271.6l0.1,0c0,0,0.1,0,0.1,0L234.1,271.6z"/>
				</g>
			</g>
			<g>
				<g>
					<path class="st7" d="M238.7,271.6c-0.1,0-0.1,0.1-0.2,0.1C238.6,271.6,238.7,271.6,238.7,271.6
						C238.8,271.6,238.8,271.6,238.7,271.6z"/>
				</g>
			</g>
			<g>
				<g>
					<path class="st7" d="M246,271.7l0.1,0C246.1,271.7,246,271.7,246,271.7z"/>
				</g>
			</g>
			<g>
				<g>
					<path class="st7" d="M230.9,271.6C230.9,271.5,230.8,271.5,230.9,271.6C230.8,271.5,230.8,271.5,230.9,271.6z"/>
				</g>
			</g>
			<g>
				<g>
					<path class="st7" d="M208.1,271.4C208.1,271.4,208.1,271.4,208.1,271.4C208.2,271.4,208.2,271.4,208.1,271.4z"/>
				</g>
			</g>
			<g>
				<g>
					<path class="st7" d="M169.3,271.4c0.4,0.1-0.7,0.1-0.1,0.2C169.1,271.6,169.8,271.5,169.3,271.4z"/>
				</g>
			</g>
			<g>
				<g>
					<path class="st7" d="M246.9,272c-0.1,0-0.1,0-0.2,0C246.8,272,246.8,272,246.9,272z"/>
				</g>
			</g>
			<g>
				<g>
					<path class="st7" d="M169.2,271.6C169.2,271.6,169.2,271.6,169.2,271.6L169.2,271.6C169.2,271.6,169.2,271.6,169.2,271.6z"/>
				</g>
			</g>
			<g>
				<g>
					<path class="st7" d="M198.3,271.4C198.4,271.5,198.4,271.5,198.3,271.4C198.4,271.5,198.4,271.5,198.3,271.4z"/>
				</g>
			</g>
			<g>
				<g>
					<path class="st7" d="M205.6,271.5l-0.2,0C205.5,271.5,205.6,271.5,205.6,271.5z"/>
				</g>
			</g>
			<g>
				<g>
					<path class="st7" d="M194.6,271.5c-0.1,0-0.1,0-0.3,0c0,0,0,0,0,0C194.4,271.5,194.5,271.5,194.6,271.5z"/>
				</g>
			</g>
			<g>
				<g>
					<path class="st7" d="M190.7,271.5C190.7,271.6,190.7,271.6,190.7,271.5c0.1,0,0.2,0,0.2,0L190.7,271.5z"/>
				</g>
			</g>
			<g>
				<g>
					<path class="st7" d="M114.7,272.1c-0.1,0-0.1,0-0.2-0.1C114.6,272.1,114,272.1,114.7,272.1z"/>
				</g>
			</g>
			<g>
				<g>
					<path class="st7" d="M247,272c0,0-0.1,0-0.1,0C246.9,272,247,272,247,272C247,272,247,272,247,272z"/>
				</g>
			</g>
			<g>
				<g>
					<path class="st7" d="M194.4,272.2l-0.6,0C194,272.2,194.2,272.2,194.4,272.2z"/>
				</g>
			</g>
			<g>
				<g>
					<path class="st7" d="M142.8,272.1l-0.1,0C142.7,272.1,142.8,272.1,142.8,272.1z"/>
				</g>
			</g>
			<g>
				<g>
					<path class="st7" d="M191.9,272.2c-0.1,0-0.2,0-0.4-0.1c0,0-0.1,0-0.1,0L191.9,272.2z"/>
				</g>
			</g>
			<g>
				<g>
					<path class="st7" d="M114.5,272C114.5,272,114.5,272,114.5,272C114.5,272,114.5,272,114.5,272z"/>
				</g>
			</g>
			<g>
				<g>
					<path class="st7" d="M112.5,272.1c0.5-0.1,1.4,0,1.9-0.1c0,0,0.1,0,0.1,0c-0.1-0.1-0.1-0.1-0.1-0.1c0.3,0,0.5-0.1,0.6,0
						c-0.2,0-0.2,0-0.3,0l0.3,0c0.3,0.1-0.4,0-0.4,0.1c0.5,0,1.2-0.1,1.6-0.1c0.1,0.1-1,0-0.4,0.1l-0.6,0c0.5,0.1-0.4,0,0.1,0.1
						c0.8,0,0.9,0,1.8,0c0.2-0.1-0.1-0.1,0.1-0.1c1.2-0.1,0.9,0.2,1.8,0.1c0.2-0.1,0.3-0.2,0.9-0.1l-0.2,0.1c0.8,0,0.5-0.2,1.3-0.1
						c-0.2,0-0.6,0-0.5,0c0.6,0.1,0.4-0.1,0.8-0.1l0.1,0.1c0.9,0,1.8-0.1,2.8-0.1c-0.1,0-0.2,0.1,0,0.1c1.2,0,2.6,0,3.8,0.1l0.5-0.1
						c0.1,0,0.2,0,0.1,0.1c0.5,0,0-0.1,0.2-0.1c0.3,0,0.3,0,0.2,0.1c0.8-0.1,2.3-0.1,3.2-0.1l-0.2,0c0.7,0,0.8-0.2,1.4-0.1l-0.1,0
						c1.4,0,3,0,4.1,0.1c0.2-0.1,1.4,0.1,1.5-0.1c0.8,0.1,0.6,0.1,1.7,0.2c0.3,0,0.5-0.1,0.8-0.1l0,0.1l0.5-0.1l0.3,0.1l0.4,0
						c-0.1,0-0.3,0-0.3-0.1c0.6,0,1.4,0.1,1.4,0.1l1.3-0.1c0,0-0.2,0-0.3,0.1c0.5,0,0,0.1,0.6,0c-0.1,0,0-0.1,0.1-0.1
						c0.3,0.1,1.1,0.1,1.6,0l-0.1,0.1c1,0,2.1,0,3.2,0c-0.4,0-0.3-0.1,0-0.1l0.1,0.1c0.2-0.1-0.3,0,0.1-0.1c0.4,0,0.3,0.1,0,0.1
						l0.5,0c0,0-0.1,0-0.1,0.1c0.2-0.1,0.9,0.1,1.2,0l0,0c1.1,0,1.6,0,2.5,0c0-0.1,0.4-0.1,0.6-0.1c0.7,0,1.4,0.1,2.2,0.1
						c0.6,0,0.2-0.1,0.4-0.1c0,0.1,0.8,0.1,0.4,0.1c1,0,1.2,0,2.4-0.1c-0.1,0-0.3,0-0.2-0.1c0.2,0,0.5,0,0.5,0.1l-0.1,0
						c1.4-0.1,3.1,0.2,4.2,0.1l-0.1,0l1.1-0.1c0.5,0-0.3,0.1,0.1,0.1c1.2-0.1,1.9,0,2.9-0.1c0.8,0.2,2.7,0,3.8,0.1l-0.1,0
						c0.3,0,0.3,0,0.5,0c0,0-0.3,0-0.1-0.1c2.3-0.1,4.7,0.1,7,0.1c0.9,0,0.5-0.3,1.6-0.1l-0.3,0.1c1.7-0.1,3.5,0,5.2-0.1
						c-0.1,0-0.1,0-0.3,0c0.4,0.1,1.3,0,1.3-0.1c0.3,0,0.1,0,0.2,0.1c0.4,0,0.9-0.1,1.1,0c0,0,0,0-0.1,0c0.3,0,1,0,0.8-0.1
						c0.6,0,1.2,0,1.7,0c0.3-0.1,1.1,0,1.2-0.1c0,0.1,1.1,0.1,1.5,0c-0.1,0,0.3,0,0.2,0.1c0.5,0,0.9,0,0.8-0.1
						c0.8,0.2,1.7-0.1,2.2,0.1c1.4-0.1,2.6-0.1,3.8-0.1c0,0.1-1.4,0-1.3,0.1c1.2-0.1,1.8-0.2,3-0.1c0.3,0-0.2,0.1-0.3,0.1
						c1.2-0.1,2.2,0,3.3-0.1c0,0-0.1,0-0.2,0c0.2,0,0.5,0,0.4,0l-0.2,0c-0.3-0.1,0.8-0.2,0.8-0.2c-0.3,0.2,1,0,0.5,0.2
						c0.1,0,0.3,0,0.3-0.1c0.2,0,0.3,0,0.1,0.1c0.7,0,0.5-0.1,1.1-0.1c0,0-0.1,0-0.2,0.1c0.3-0.1,0.7-0.1,1.2-0.1c0,0,0,0-0.1,0
						c0.9,0,1.6-0.1,2.6-0.1c-0.3,0.1,0.4,0,0.4,0.1l0.6,0l-0.2-0.1c0.5,0,0.9-0.1,1.4,0l-0.4,0l0.9,0l-0.5,0
						c0.5-0.1-0.1-0.1,0.6-0.1c-0.1,0,0.5,0,0.8,0.1c0,0,0,0,0,0c0.2,0,0.5-0.1,0.9,0c0.1,0-0.1,0.1,0,0.1c0.2-0.1,1.2,0,1.5-0.1
						c-0.1,0-0.1,0.1-0.1,0.1l0.2-0.1c0.2,0,0.3,0,0.2,0.1c0.7,0-0.2-0.1,0.6-0.1c-0.1,0,0,0-0.2,0c0.8,0,1.6,0,2.3,0
						c0.2,0.1-0.7,0-0.4,0.1c1.1,0,2.3-0.1,3.3-0.1l-0.2,0c0.1-0.1,0.8,0.1,1.3,0c-0.1,0-0.2,0.1-0.1,0.1c0.7,0,1.5,0,2.6-0.1
						l-0.1,0c0.4,0,1.1,0,1.6,0c0.1,0,0.4,0,0.2-0.1c1.4,0.2,2.7-0.1,4,0.1c-0.2,0-0.4,0-0.2,0l1.1,0c-0.1-0.1-0.1,0-0.4-0.1
						c0.1,0,0.4-0.1,0.7-0.1c-0.5,0,0,0.1,0.2,0.1c0,0,0,0,0-0.1c0.6,0.1,0.1-0.1,0.9-0.1l0,0c0.3,0,0.5-0.1,0.9-0.1
						c0.1,0.1-0.3,0-0.3,0.1c0.4,0,0.9-0.1,1.2-0.1c-0.2,0-0.4,0-0.6,0c0.4,0.1,0.5,0.1,0.8,0.1l0,0l0.7,0l-0.2,0
						c0.5-0.2,1.1,0,1.8-0.2c-0.7,0.1-0.1,0.1-0.2,0.2c0.2,0,0.5,0,0.4,0.1c0.3-0.1,0.6,0.1,1.1,0c0,0,0.4,0,0.3,0.1
						c0.4,0-0.1,0-0.1-0.1c0.7-0.1,1.6,0.1,2.6,0c0.9-0.1,1-0.1,1.8-0.2c0.3,0-0.2,0.1-0.2,0.1c0.4,0,0.8,0,1.2,0
						c-0.1,0,0,0,0.1,0.1c0.3,0,0.2-0.1,0.7-0.1c-0.1,0-0.2,0.1-0.3,0.1c0.4,0,0.8-0.1,1.2-0.1c0.1,0-0.2,0.1-0.4,0.1
						c0.4,0,1.2,0,1.3-0.1l-0.2,0c0.1,0,0,0.1-0.1,0.1c-0.4,0.1-0.6,0-0.6-0.1l0.3,0c-0.3-0.2-1.1,0-1.7,0l0.2-0.1l-0.6,0.1
						c-0.1,0-0.2-0.1,0.1-0.1c-0.4-0.1-0.4,0-0.7,0c0,0,0,0,0,0l-0.4,0c0.1,0-0.1-0.1,0.2-0.1c-0.7-0.1-1.2,0.1-1.4,0l0.1,0
						c-1,0-0.1,0.1-0.8,0.2l-0.5-0.2l-0.1,0.1c-0.1,0-0.3,0-0.3,0c-0.4,0.1,0.1,0-0.2,0.1c-0.5-0.1-1.4,0-1.5-0.1
						c-0.2,0.1,0.5,0-0.1,0.1c-0.2-0.1-0.6,0-1.1,0c0.1-0.1,0.6,0,0.1-0.1c-0.3,0.1-0.9,0-1.3,0c0,0.1-0.8,0-1.5,0.1
						c0,0-1.2-0.1-1.8-0.1l0,0c-0.1,0.1-0.7,0.1-1.2,0.1c0-0.1,0.1-0.1,0.3-0.1l-0.4,0c-0.1,0-0.2,0-0.5,0.1l0.1-0.1
						c-0.6,0-1.1,0.1-1.9,0c0,0.1,0.6,0.2-0.2,0.2c0,0-0.1-0.1,0.1-0.1c-0.1,0-0.2,0-0.4,0l0.3-0.1c-0.3,0-0.2,0.1-0.4,0
						c0-0.1-0.2,0-0.2-0.1c0.1,0,0.2,0,0.3,0c-0.3,0-0.7,0-0.8-0.1c0,0,0,0.1-0.2,0.1c-0.6,0-0.2-0.1-0.5-0.1c-0.1,0-0.5,0-0.5,0.1
						c-0.2,0-0.2,0-0.3-0.1c-0.3,0-1.4,0-1,0.1l0.1,0c0,0,0,0,0,0c-1,0.1-2,0-2.9,0l0,0c-0.6,0-1.3,0-1.7,0.1
						c-0.2,0-0.4-0.1-0.3-0.1c-0.4,0-0.5,0.1-1.1,0c0.4,0-0.1,0,0.4,0c-0.6,0-0.7-0.1-1.3,0c0.2-0.1-0.4-0.1-0.7-0.1l0.4,0.1
						c-0.3,0-0.6,0-0.8,0l0.1-0.1c-1.1-0.1-2.1,0.2-2.9,0c-0.3,0.1,0.6,0,0.4,0.1c-0.5,0-1.1-0.1-1.2-0.1c-0.7-0.1-0.7,0.1-1.4,0.1
						c0.1,0,0.2,0.1-0.4,0.2c-0.5,0-0.6-0.1-0.3-0.2c0.1,0,0.2,0,0.2,0c0.2,0,0.4,0,0.2-0.1l-0.1,0c-0.3,0-1,0-0.8-0.1
						c-0.4,0-0.2,0.1,0.1,0.1c-0.7,0-1.1,0-1.8,0c0.1,0,0.2,0.1,0.1,0.1c-1,0-0.4,0.1-1.1,0.1c-0.4-0.1,0.1-0.1-0.6-0.1
						c-0.4,0-0.1-0.1,0.1-0.1c-0.6,0.1-1.2,0-1.5-0.1l0.3,0c-0.2,0-0.4,0-0.5,0l0.2,0.1c-0.2,0-0.4,0-0.4,0c-0.2,0,0.2,0.1-0.2,0.2
						c-0.3,0-0.8,0-0.9-0.1c0.8,0-0.1-0.1,0.6-0.1c-0.1,0-0.3,0-0.5,0c0,0,0,0,0.1,0c-0.8-0.1-0.4,0.1-1.2,0.1
						c0.1,0-0.2-0.1-0.3-0.1c0.3,0,0.2,0.1-0.1,0.1c-0.5,0-0.6,0-0.8,0l0.3,0c-0.1,0-0.4,0-0.7,0.1c0,0,0.3,0,0.2,0
						c-0.4,0.1-0.9-0.1-1.5,0c-0.3,0,0-0.1-0.3-0.1c-0.6,0.1-0.7-0.1-1.3,0c0.2,0.1,0.2,0.1-0.2,0.1l1.1,0l-0.7,0.1
						c0.3,0,0.7,0,0.9,0c-0.3,0.1-0.3,0-0.1,0.1c-0.5-0.1-0.9,0.1-1.4,0l0-0.2c-0.8-0.1-1.4,0.1-2.4,0l0.3,0c-0.1,0.1-0.6,0-1,0
						c0-0.1-0.2-0.1-0.3-0.1c0,0-0.7,0-0.8,0.1l-0.5-0.1c-0.8,0-0.9,0.2-1.7,0.1c0.2-0.1-0.1-0.1,0.4-0.1c-0.3,0-0.5,0-0.5,0
						c-0.2,0-0.7,0.1-1,0c-0.1,0-0.1,0.1-0.4,0.1c0,0,0,0,0,0c0,0-0.5,0-0.2,0.1c-0.8-0.2-2.3,0-3-0.1c-0.6,0-1.3,0-1.8,0
						c0,0,0,0,0.1,0c-0.7-0.1-0.4,0.2-1.3,0.1c-0.4-0.1,0.4,0,0.2-0.1c-0.1-0.2-1,0-1.5-0.1l0.1,0c-0.4-0.1-1,0.1-1.7,0.1
						c0,0,0,0,0,0c-0.5,0.1-1.4,0.1-2,0.1c0.2-0.1,0.3,0,0.2-0.1c-0.3,0,0.1,0.1-0.5,0.1c-0.2,0-0.6-0.1-0.7-0.1l0.6,0
						c-0.3-0.1-0.7,0-1,0l0,0c-0.9,0-0.9,0.1-1.8,0.1l0.1,0c-0.5,0.1-0.4-0.1-0.9,0l-0.2-0.1c-0.3,0-1.2,0.1-1.8,0.1
						c0.3-0.1,1-0.1,1.5-0.2c-0.3,0-1.1,0-1.3,0.1c0.1,0,0.3,0,0.4,0c-0.4,0.1-0.9,0.1-1.6,0.1c0.1-0.2-1.7-0.1-2.2-0.2
						c-1.2,0.1-2.3,0-3.7,0c0.5,0.2-0.4,0-0.3,0.2c-0.3,0-0.4,0-0.5,0l-1-0.1c-0.2,0,0.3,0,0.3-0.1c-0.7,0-0.3-0.1-0.7-0.1
						c0.1,0.1-0.2,0.1-0.6,0.1l0.6,0.1c-1,0.1-0.8-0.1-1.8-0.1l0.3-0.1c-0.5,0-1.8,0-2.3,0.1c-0.1,0-0.2-0.1,0-0.1
						c-1.2,0-2.7,0.1-3.6,0.1l0.1,0c-0.2,0-0.4,0.1-0.7,0c0,0,0.1,0,0,0c-0.1,0-0.6,0.1-0.9,0l0.3,0c-1.2-0.1-1.8,0.1-2.8,0.1
						c0-0.1-0.9-0.2-1.4-0.2l0,0c-1.4,0-2.3,0.1-3.6,0.1c-0.8-0.1-2.6-0.1-3.9-0.1c0.2,0,0,0.1-0.3,0.1c-0.3,0-0.8,0.1-0.8,0l0.1,0
						c-0.2-0.1-0.8-0.1-1.3-0.1l-0.1,0.1c-1.2-0.2-3.2,0.1-3.9-0.1c-0.3,0-0.7,0-1,0.1l0-0.1c-0.8,0-1.2,0-2.3,0l0.2-0.1
						c-0.6,0-0.7,0.2-1.3,0.2l-0.2-0.1c-1,0-2-0.1-3,0c0,0,0-0.1,0.2-0.1c-0.5,0-1.8-0.1-1.7,0.1c0-0.1-1,0-1.6,0l0.1-0.1
						c-0.5,0.1-0.5,0.1-1.1,0.2c-0.2,0-0.1-0.1,0.1,0c-0.5,0-0.4,0.1-1,0l0.2,0c-0.5,0-0.5,0-0.8,0.1c-0.3,0-1,0-1.1-0.1
						c-0.1,0-0.4,0.1-0.7,0.1c0,0,0.1,0,0.1-0.1c-0.9-0.1-1.3,0.1-1.9,0c0,0-0.1,0-0.1,0c0.7,0,1.2,0,1.2,0c0-0.1-0.6-0.1-0.1-0.2
						c-0.4,0.1-1.2,0.2-1.8,0.1c0,0-0.1,0-0.1,0l0.1,0c-0.1,0-0.2,0-0.3,0c-0.2,0-0.3,0-0.4,0c-0.1-0.1-0.6,0-0.9,0
						c0,0.1-0.3,0.1,0,0.1c0,0,0.1,0,0.2,0c0,0,0.1,0,0.1,0c0,0,0,0,0,0c0.2,0,0.4,0,0.7,0c-0.2,0-0.4,0.1-0.8,0
						c-0.1,0.1-0.3,0.1-0.4,0.1c-0.4-0.1-1.1-0.2-1.2-0.2c-0.8,0-2,0-2.5,0.2c-0.2,0-0.3,0-0.4-0.1c0.1,0,0.3,0,0.4,0
						c-0.5,0-1.4,0-1.5,0.1c-0.6,0,0.3-0.1-0.5-0.1l0.1,0c-1.6-0.2-2.7,0.3-4.5,0.1c0.1,0,0.2,0,0.2,0c-0.4,0-0.9,0-1.4,0
						c0,0.1,0,0.3-0.1,0.5c0.5,0,0.2,0.1,0.4,0.1C111.8,272.2,112.2,272.1,112.5,272.1C112.5,272.1,112.6,272.1,112.5,272.1z
						 M123.2,271.5c-0.1,0-0.2,0-0.3,0c0,0,0,0,0,0c0,0,0,0,0.1,0C123.2,271.4,123.2,271.4,123.2,271.5z M125.1,271.9
						c-0.1,0,0.2,0,0.4,0.1c-0.1,0-0.3,0-0.5,0C124.9,271.9,124.9,271.9,125.1,271.9z"/>
				</g>
				<g>
					<path class="st7" d="M124,272c0.1,0,0.2,0,0.3,0c0,0,0,0,0,0C124.1,272,124,272,124,272z"/>
				</g>
			</g>
			<g>
				<g>
					<path class="st7" d="M122.6,271.5C122.6,271.5,122.6,271.5,122.6,271.5C122.6,271.6,122.6,271.6,122.6,271.5
						C122.7,271.6,122.7,271.5,122.6,271.5C122.7,271.5,122.7,271.5,122.6,271.5z"/>
				</g>
			</g>
			<g>
				<g>
					<path class="st7" d="M228.3,271.7L228.3,271.7C228.3,271.7,228.4,271.7,228.3,271.7C228.3,271.7,228.3,271.7,228.3,271.7z"/>
				</g>
			</g>
			<g>
				<g>
					<polygon class="st7" points="141.5,272.1 141.5,272.1 141.4,272.1 					"/>
				</g>
			</g>
			<g>
				<g>
					<path class="st7" d="M234.8,271.9C234.8,271.9,234.8,271.9,234.8,271.9C234.8,271.9,234.8,271.9,234.8,271.9z"/>
				</g>
			</g>
			<g>
				<g>
					<path class="st7" d="M237.5,271.9l0.4,0C237.8,272,237.6,271.9,237.5,271.9z"/>
				</g>
			</g>
			<g>
				<g>
					<path class="st7" d="M239.7,272C239.7,272,239.7,272,239.7,272C239.7,271.9,239.7,271.9,239.7,272L239.7,272z"/>
				</g>
			</g>
			<g>
				<g>
					<path class="st7" d="M205.8,272.1C205.7,272.1,205.7,272.1,205.8,272.1C205.5,272.1,205.6,272.1,205.8,272.1z"/>
				</g>
			</g>
			<g>
				<g>
					<path class="st7" d="M215.8,271.9c-0.1,0-0.2,0-0.3,0C215.7,271.9,215.8,271.9,215.8,271.9z"/>
				</g>
			</g>
			<g>
				<g>
					<path class="st7" d="M194.5,272.2C194.5,272.2,194.5,272.2,194.5,272.2C194.5,272.2,194.4,272.2,194.5,272.2L194.5,272.2z"/>
				</g>
			</g>
			<g>
				<g>
					<path class="st7" d="M215.1,271.9c0.2,0,0.3,0,0.5,0C215.4,271.9,215.2,271.9,215.1,271.9z"/>
				</g>
			</g>
			<g>
				<g>
					<path class="st7" d="M248.9,272l0.1,0c0,0,0,0,0,0L248.9,272z"/>
				</g>
			</g>
			<g>
				<g>
					<path class="st7" d="M249,272l0.1,0C249.1,272,249,272,249,272z"/>
				</g>
			</g>
			<g>
				<g>
					<path class="st7" d="M249.4,272l-0.2,0C249.2,272,249.3,272,249.4,272z"/>
				</g>
			</g>
			<g>
				<g>
					<path class="st7" d="M246.1,272L246.1,272C246.1,272,246.1,272,246.1,272z"/>
				</g>
			</g>
			<g>
				<g>
					<path class="st7" d="M245.2,272c0.2,0,0.5,0.1,0.8,0l0,0C245.9,272,245.4,271.9,245.2,272z"/>
				</g>
			</g>
			<g>
				<g>
					<path class="st7" d="M241.6,271.6l0.7,0c-0.1,0-0.3-0.1,0-0.1C241.5,271.5,242.6,271.6,241.6,271.6z"/>
				</g>
			</g>
			<g>
				<g>
					<path class="st7" d="M239.4,271.6C239.8,271.6,239.4,271.5,239.4,271.6C239.2,271.6,239.1,271.6,239.4,271.6z"/>
				</g>
			</g>
			<g>
				<g>
					<path class="st7" d="M223.3,271.6L223.3,271.6C223,271.5,223.3,271.5,223.3,271.6z"/>
				</g>
			</g>
			<g>
				<g>
					<polygon class="st7" points="220.2,272 220.5,272 220.7,271.9 					"/>
				</g>
			</g>
			<g>
				<g>
					<polygon class="st7" points="218.4,271.5 218.5,271.4 218,271.5 					"/>
				</g>
			</g>
			<g>
				<g>
					<path class="st7" d="M191.4,271.5L191.4,271.5C191.6,271.6,191.7,271.5,191.4,271.5z"/>
				</g>
			</g>
			<g>
				<g>
					<path class="st7" d="M179.7,271.6c-0.1,0-0.5-0.1-0.7,0C179.3,271.5,179.5,271.6,179.7,271.6z"/>
				</g>
			</g>
			<g>
				<g>
					<polygon class="st7" points="144.6,271.4 144.9,271.4 144.4,271.4 					"/>
				</g>
			</g>
		</g>
	</g>
	<g>
		<g>
			<path class="st17" d="M267.2,180.2c-0.5,0-0.9,0-1.3,0c-3.7-0.1-6.6-0.4-7.2-0.8c-0.1-0.1-0.1-0.1-0.1-0.1l0-0.1
				c0-1,17.4-1,17.4,0l0,0c0,0,0,0,0,0.1c-0.4,0.5-3.6,0.8-7.7,0.9C267.9,180.2,267.6,180.2,267.2,180.2z"/>
			<path class="st18" d="M265.9,180.4c-2.9-0.1-6.6-0.3-7.4-0.9c0,0,0,0,0,0l-0.1,0.1l-0.1-0.3l0,0c0-0.3,0.2-0.6,3-0.8
				c1.6-0.1,3.9-0.2,6.2-0.2c2.2,0,4.3,0.1,5.8,0.2c2.6,0.2,2.8,0.5,2.8,0.8l0,0.2l0,0c0,0,0,0,0,0.1c-0.5,0.6-4.3,0.9-7.8,1
				c-0.3,0-0.7,0-1,0C266.8,180.5,266.3,180.5,265.9,180.4z M269.8,178.7c-5.4-0.1-10.2,0.2-11,0.5c0.6,0.3,3.2,0.7,7.1,0.8
				c0.8,0,1.6,0,2.3,0c4.5-0.1,6.9-0.5,7.4-0.8C275.3,179.1,273.7,178.8,269.8,178.7z"/>
		</g>
		<g>
			<g>
				<g>
					<path class="st19" d="M246.7,143.7c4.6-2.3,8,6.6,7.2,8.4C251.8,152.8,243.6,147.4,246.7,143.7z"/>
					<path class="st20" d="M246.6,147.9c-1-1.6-1-3.1,0-4.3l0,0l0,0c1.5-0.8,3.1-0.5,4.5,0.9c1,1,2,2.5,2.6,4.2
						c0.6,1.6,0.7,2.9,0.4,3.6l0,0.1l-0.1,0c-0.1,0-0.3,0.1-0.4,0.1C251.8,152.4,248.2,150.3,246.6,147.9z M250.8,144.8
						c-1.3-1.2-2.6-1.5-4-0.9c-0.9,1.1-0.8,2.3,0.1,3.7c1.7,2.6,5.5,4.6,6.8,4.3C254.2,150.7,252.9,146.8,250.8,144.8z"/>
				</g>
				<g>
					<path class="st19" d="M246.3,155.5c2.4-4.5,10.4,0.8,10.7,2.8C255.6,160,245.9,160.3,246.3,155.5z"/>
					<path class="st20" d="M248.6,159c-1.8-0.7-2.6-1.9-2.5-3.5l0,0l0,0c0.8-1.5,2.3-2.1,4.2-1.8c1.4,0.2,3.1,1,4.5,2
						c1.4,1,2.3,2,2.4,2.7l0,0.1l-0.1,0.1c-0.6,0.7-2.5,1.2-4.6,1.2C251.2,159.7,249.8,159.4,248.6,159z M250.3,154
						c-1.8-0.3-3,0.2-3.7,1.5c-0.1,1.4,0.6,2.4,2.2,3c2.8,1.2,7.1,0.7,8.1-0.3C256.4,157,253.1,154.5,250.3,154z"/>
				</g>
				<g>
					<path class="st19" d="M250.4,162.5c3.1-4.1,10.1,2.4,10.2,4.4C258.9,168.4,249.2,167.2,250.4,162.5z"/>
					<path class="st20" d="M252.1,166.3c-1.6-1-2.3-2.3-1.9-3.8l0,0l0,0c1-1.4,2.5-1.8,4.4-1.2c1.4,0.4,2.9,1.4,4.2,2.6
						c1.2,1.2,1.9,2.3,2,3l0,0.1l-0.1,0.1c-0.5,0.4-1.5,0.6-2.8,0.6C256,167.7,253.7,167.3,252.1,166.3z M254.5,161.6
						c-1.7-0.5-3-0.2-3.9,1c-0.3,1.3,0.3,2.4,1.7,3.3c2.6,1.6,6.9,1.7,8,0.9C260.2,165.5,257.3,162.5,254.5,161.6z"/>
				</g>
				<g>
					<path class="st19" d="M253.5,171.3c3.3-3.9,9.9,3,9.9,5.1C261.7,177.7,252.1,175.9,253.5,171.3z"/>
					<path class="st20" d="M255,175.2c-1.6-1.1-2.1-2.4-1.7-3.9l0,0l0,0c1.1-1.3,2.7-1.6,4.5-0.9c1.3,0.5,2.8,1.6,4,2.9
						c1.1,1.2,1.8,2.4,1.8,3.2l0,0.1l-0.1,0.1c-0.4,0.3-1.2,0.5-2.2,0.5C259.4,177,256.7,176.4,255,175.2z M257.7,170.7
						c-1.7-0.6-3-0.4-4,0.7c-0.4,1.3,0.1,2.4,1.5,3.4c2.5,1.7,6.8,2.1,8,1.4C263.1,174.9,260.4,171.7,257.7,170.7z"/>
				</g>
				<g>
					<path class="st19" d="M258.4,145.6c-5.1,0.2-3.8,9.7-2.2,10.9C258.3,156,262.9,147.3,258.4,145.6z"/>
					<path class="st20" d="M256,156.6c-0.6-0.4-1.1-1.7-1.4-3.4c-0.3-1.8-0.2-3.6,0.2-4.9c0.6-1.9,1.8-2.9,3.5-3l0,0l0,0
						c1.5,0.6,2.2,1.9,2,3.8c-0.2,3.1-2.7,7.2-4.3,7.5L256,156.6L256,156.6z M255.3,148.5c-0.9,2.8,0,6.9,0.9,7.8
						c1.3-0.5,3.6-4.1,3.9-7.1c0.1-1.7-0.5-2.8-1.7-3.3C256.9,145.9,255.8,146.8,255.3,148.5z"/>
				</g>
				<g>
					<path class="st19" d="M264.9,154.3c-4.9-1.4-6.6,8-5.4,9.7C261.7,164.2,268.7,157.4,264.9,154.3z"/>
					<path class="st20" d="M259.4,164.2L259.4,164.2l-0.2-0.1c-0.4-0.6-0.5-2-0.3-3.6c0.3-1.8,0.9-3.5,1.7-4.6
						c1.1-1.6,2.6-2.2,4.2-1.8l0,0l0,0c1.2,1,1.5,2.4,0.8,4.2C264.7,161.2,261.2,164.2,259.4,164.2
						C259.5,164.2,259.5,164.2,259.4,164.2z M261.1,156.1c-1.7,2.4-2.2,6.5-1.5,7.7c1.4,0,4.7-2.7,5.8-5.6c0.6-1.6,0.4-2.8-0.6-3.7
						C263.4,154.1,262.1,154.7,261.1,156.1z"/>
				</g>
				<g>
					<path class="st19" d="M268.9,164.5c-4.8-1.8-7.3,7.4-6.2,9.2C264.9,174.1,272.4,167.9,268.9,164.5z"/>
					<path class="st20" d="M262.7,173.9L262.7,173.9l-0.1-0.1c-0.4-0.6-0.3-2,0-3.6c0.4-1.7,1.2-3.4,2.1-4.5c1.3-1.5,2.8-2,4.4-1.4
						l0,0l0,0c1.1,1.1,1.3,2.6,0.4,4.3c-1.3,2.7-4.9,5.3-6.6,5.3C262.8,173.9,262.7,173.9,262.7,173.9z M265,166
						c-1.9,2.2-2.7,6.3-2.2,7.5c0,0,0,0,0.1,0c1.4,0,4.9-2.4,6.2-5.1c0.8-1.5,0.7-2.8-0.3-3.7C267.4,164.2,266.1,164.6,265,166z"/>
				</g>
				<g>
					<path class="st21" d="M263.2,176c-0.5-0.4-1-0.7-1.5-1.1c-1.3-0.9-2.7-1.7-4.1-2.3c-0.6-0.3-1.2-0.5-1.8-0.7
						c-0.1,0-0.1,0-0.2,0.1c0,0.1,0,0.1,0.1,0.2c0.6,0.2,1.2,0.4,1.8,0.7c1.4,0.6,2.8,1.4,4.1,2.3c0.6,0.4,1.2,0.8,1.8,1.2
						c0.8,3.2,1.4,6.3,1.8,9.5c0,0.1,0.1,0.1,0.2,0.1c0.1,0,0.1-0.1,0.1-0.2c-0.5-4.1-1.4-8.2-2.5-12.2c0.3-0.6,0.6-1.3,0.9-1.9
						c0.7-1.4,1.6-2.7,2.5-4c0.4-0.5,0.8-1,1.2-1.5c0.1-0.1,0-0.1,0-0.2c-0.1-0.1-0.1,0-0.2,0c-0.4,0.5-0.9,1-1.2,1.5
						c-0.9,1.3-1.8,2.6-2.5,4c-0.3,0.5-0.6,1.1-0.8,1.6c-0.9-3.2-1.9-6.2-3.1-9.3c0.2-0.7,0.5-1.3,0.8-2c0.6-1.4,1.3-2.9,2.1-4.2
						c0.3-0.5,0.7-1.1,1.1-1.6c0-0.1,0-0.1,0-0.2c-0.1,0-0.1,0-0.2,0c-0.4,0.5-0.8,1-1.1,1.6c-0.8,1.3-1.5,2.8-2.2,4.2
						c-0.2,0.6-0.5,1.1-0.7,1.7c-0.2-0.5-0.4-1-0.6-1.5c-0.8-1.9-1.6-3.8-2.5-5.7c0-0.7,0.1-1.4,0.1-2.1c0.1-1.6,0.4-3.1,0.8-4.6
						c0.2-0.6,0.3-1.2,0.6-1.8c0-0.1,0-0.1-0.1-0.2c-0.1,0-0.1,0-0.2,0.1c-0.2,0.6-0.4,1.2-0.6,1.8c-0.4,1.5-0.6,3.1-0.8,4.7
						c0,0.5-0.1,1.1-0.1,1.6c-0.2-0.4-0.4-0.7-0.5-1.1c-0.5-0.9-1-1.8-1.5-2.7c0,0,0,0,0,0c-0.4-0.6-0.8-1.3-1.2-1.9
						c-0.9-1.3-1.9-2.6-2.9-3.7c-0.4-0.5-0.9-0.9-1.4-1.3c-0.1,0-0.1,0-0.2,0c0,0.1,0,0.1,0,0.2c0.5,0.4,0.9,0.9,1.4,1.3
						c1.1,1.1,2,2.4,2.9,3.7c0.4,0.6,0.8,1.2,1.2,1.9c0,0,0,0,0,0c0.5,0.9,1,1.8,1.5,2.7c0.5,1,1,2.1,1.5,3.1
						c-0.6-0.3-1.1-0.5-1.7-0.7c-1.5-0.6-3-1.1-4.5-1.4c-0.6-0.1-1.3-0.2-1.9-0.3c-0.1,0-0.1,0-0.1,0.1c0,0.1,0,0.1,0.1,0.1
						c0.6,0.1,1.3,0.2,1.9,0.3c1.5,0.3,3,0.8,4.5,1.4c0.7,0.3,1.3,0.5,2,0.8c0.6,1.2,1.1,2.5,1.6,3.8c0.2,0.6,0.5,1.2,0.7,1.8
						c0,0,0,0.1,0,0.1c0.3,0.8,0.6,1.7,0.9,2.5c-0.5-0.3-1-0.6-1.5-0.9c-1.4-0.8-2.8-1.5-4.3-2.1c-0.6-0.2-1.2-0.4-1.8-0.6
						c-0.1,0-0.1,0-0.2,0.1c0,0.1,0,0.1,0.1,0.2c0.6,0.2,1.2,0.4,1.8,0.6c1.5,0.6,2.9,1.3,4.2,2c0.6,0.3,1.2,0.7,1.8,1.1
						C261.5,169.9,262.4,173,263.2,176z"/>
					<path class="st22" d="M265.2,186.3C265.2,186.3,265.2,186.3,265.2,186.3c0.1,0,0.2-0.1,0.3-0.1c0.1-0.1,0.1-0.2,0.1-0.3
						c-0.5-4-1.3-8.1-2.5-12.2c0.2-0.5,0.5-1.1,0.9-1.8c0.8-1.5,1.6-2.8,2.5-4c0.4-0.5,0.8-1,1.2-1.4c0.1-0.1,0.1-0.4,0-0.5
						c-0.1-0.1-0.4-0.1-0.5,0c-0.4,0.4-0.8,0.9-1.3,1.5c-0.9,1.2-1.7,2.5-2.5,4.1c-0.2,0.4-0.4,0.8-0.6,1.1c-0.8-2.9-1.8-5.8-3-8.7
						c0.2-0.7,0.5-1.4,0.7-1.9c0.7-1.6,1.4-3,2.1-4.2c0.4-0.6,0.7-1.1,1.1-1.5c0.1-0.1,0.1-0.2,0.1-0.3c0-0.1-0.1-0.2-0.1-0.2
						c-0.2-0.1-0.4-0.1-0.5,0.1c-0.4,0.5-0.7,1-1.1,1.6c-0.8,1.2-1.5,2.6-2.2,4.3c-0.2,0.4-0.3,0.8-0.5,1.2c-0.1-0.3-0.3-0.7-0.4-1
						c-0.8-2-1.7-3.9-2.5-5.7c0-0.6,0-1.2,0.1-2.1c0.2-1.7,0.4-3.2,0.7-4.6c0.2-0.7,0.3-1.2,0.6-1.8c0-0.1,0-0.2,0-0.3
						c0-0.1-0.1-0.1-0.2-0.2c-0.1,0-0.2,0-0.3,0c-0.1,0-0.1,0.1-0.2,0.2c-0.2,0.6-0.4,1.2-0.6,1.9c-0.4,1.4-0.6,3-0.8,4.7
						c0,0.3,0,0.6-0.1,0.8c-0.1-0.1-0.1-0.2-0.2-0.4c-0.5-1-1-1.9-1.5-2.7c-0.4-0.7-0.8-1.4-1.2-1.9c-1-1.5-2-2.7-3-3.8
						c-0.5-0.5-0.9-1-1.4-1.4c-0.1-0.1-0.2-0.1-0.3-0.1c-0.1,0-0.2,0.1-0.2,0.1c-0.1,0.1-0.1,0.2-0.1,0.3c0,0.1,0.1,0.2,0.1,0.2
						c0.4,0.4,0.9,0.8,1.4,1.3c1,1,1.9,2.2,2.9,3.7c0.3,0.5,0.8,1.2,1.2,1.8c0.5,0.9,1,1.9,1.5,2.7c0.4,0.8,0.8,1.7,1.3,2.6
						c-0.4-0.2-0.7-0.3-1.2-0.5c-1.6-0.6-3.1-1.1-4.6-1.4c-0.7-0.1-1.3-0.3-1.9-0.3c-0.2,0-0.4,0.1-0.4,0.3c0,0.1,0,0.2,0.1,0.3
						c0.1,0.1,0.1,0.1,0.2,0.1c0.6,0.1,1.2,0.2,1.9,0.3c1.4,0.3,2.8,0.7,4.5,1.4c0.5,0.2,1.2,0.5,1.9,0.8c0.5,1.2,1.1,2.4,1.6,3.7
						c0.2,0.6,0.5,1.2,0.7,1.8c0,0,0,0.1,0.1,0.1c0.2,0.6,0.5,1.2,0.7,1.9c-0.3-0.2-0.6-0.4-1-0.6c-1.5-0.9-2.9-1.6-4.3-2.1
						c-0.7-0.2-1.3-0.4-1.9-0.6c-0.1,0-0.2,0-0.3,0c-0.1,0-0.1,0.1-0.2,0.2c0,0.1,0,0.2,0,0.3c0,0.1,0.1,0.1,0.2,0.2
						c0.6,0.1,1.2,0.3,1.8,0.6c1.3,0.5,2.7,1.2,4.2,2c0.4,0.3,1.1,0.6,1.7,1.1c1,2.8,1.9,5.6,2.6,8.4c-0.3-0.2-0.6-0.4-1-0.7
						c-1.5-1-2.8-1.7-4.2-2.3c-0.6-0.3-1.2-0.5-1.8-0.7c-0.1,0-0.2,0-0.3,0s-0.1,0.1-0.2,0.2c-0.1,0.2,0,0.4,0.2,0.4
						c0.6,0.2,1.1,0.4,1.7,0.7c1.3,0.6,2.6,1.3,4.1,2.3c0.7,0.5,1.2,0.8,1.7,1.2c0.8,3.2,1.4,6.4,1.7,9.4c0,0.1,0.1,0.2,0.1,0.2
						C265,186.3,265.1,186.3,265.2,186.3z"/>
				</g>
			</g>
			<g>
				<g>
					<path class="st21" d="M289.7,128.4c-4.6-2.3-8,6.6-7.2,8.4C284.6,137.4,292.8,132.1,289.7,128.4z"/>
					<path class="st23" d="M282.4,137L282.4,137l-0.1-0.1c-0.3-0.7-0.1-2,0.4-3.6c0.6-1.7,1.6-3.2,2.6-4.2c1.4-1.4,3-1.7,4.5-0.9
						l0,0l0,0c1,1.2,1,2.7,0,4.3c-1.6,2.4-5.2,4.6-7,4.6C282.7,137.1,282.5,137,282.4,137z M285.6,129.4c-2.1,2-3.4,6-3,7.2
						c0.1,0,0.1,0,0.2,0c1.5,0,5-1.9,6.6-4.4c0.9-1.4,1-2.7,0.1-3.7C288.2,127.9,286.9,128.2,285.6,129.4z"/>
				</g>
				<g>
					<path class="st21" d="M290.1,140.1c-2.4-4.5-10.4,0.8-10.7,2.8C280.8,144.7,290.5,144.9,290.1,140.1z"/>
					<path class="st23" d="M279.2,143.1L279.2,143.1l0-0.2c0.1-0.7,1-1.7,2.4-2.7c1.5-1,3.1-1.8,4.5-2c1.9-0.3,3.4,0.3,4.2,1.8l0,0
						l0,0c0.1,1.6-0.7,2.8-2.5,3.5c-1.2,0.5-2.6,0.7-4,0.7C281.7,144.3,279.8,143.8,279.2,143.1z M286.1,138.6
						c-2.9,0.5-6.2,3-6.5,4.3c1,1,5.3,1.5,8.1,0.3c1.6-0.6,2.3-1.7,2.2-3C289.1,138.9,287.9,138.4,286.1,138.6z"/>
				</g>
				<g>
					<path class="st21" d="M286,147.2c-3.1-4.1-10.1,2.4-10.2,4.4C277.5,153,287.2,151.8,286,147.2z"/>
					<path class="st23" d="M275.7,151.7L275.7,151.7l-0.1-0.2c0-0.7,0.8-1.9,2-3c1.3-1.3,2.8-2.2,4.2-2.6c1.9-0.6,3.4-0.2,4.4,1.2
						l0,0l0,0c0.4,1.5-0.3,2.8-1.9,3.8c-1.6,1-3.9,1.4-5.8,1.4C277.2,152.4,276.2,152.2,275.7,151.7z M281.9,146.3
						c-2.8,0.9-5.7,3.9-5.8,5.2c1.1,0.8,5.4,0.7,8-0.9c1.5-0.9,2-2,1.7-3.3C284.9,146.1,283.6,145.7,281.9,146.3z"/>
				</g>
				<g>
					<path class="st21" d="M282.9,155.9c-3.3-3.9-9.9,3-9.9,5.1C274.7,162.3,284.3,160.5,282.9,155.9z"/>
					<path class="st23" d="M272.9,161.2L272.9,161.2l-0.1-0.2c0-0.7,0.7-1.9,1.8-3.2c1.2-1.3,2.7-2.4,4-2.9c1.8-0.7,3.4-0.4,4.5,0.9
						l0,0l0,0c0.5,1.5-0.1,2.9-1.7,3.9c-1.7,1.2-4.4,1.8-6.4,1.8C274.1,161.6,273.3,161.5,272.9,161.2z M278.7,155.3
						c-2.7,1.1-5.4,4.2-5.5,5.6c0.4,0.2,1,0.3,1.8,0.3c1.8,0,4.4-0.6,6.1-1.8c1.4-1,1.9-2.1,1.5-3.4
						C281.7,154.9,280.4,154.7,278.7,155.3z"/>
				</g>
				<g>
					<path class="st21" d="M278,130.2c5.1,0.2,3.8,9.7,2.2,10.9C278.1,140.6,273.5,132,278,130.2z"/>
					<path class="st23" d="M280.2,141.3c-1.5-0.4-4.1-4.4-4.3-7.5c-0.1-1.9,0.6-3.2,2-3.8l0,0l0,0c1.7,0.1,2.9,1.1,3.5,3
						c0.4,1.4,0.5,3.2,0.2,4.9c-0.3,1.6-0.8,2.9-1.4,3.4L280.2,141.3L280.2,141.3z M276.3,133.8c0.2,3,2.6,6.6,3.9,7.1
						c1-0.9,1.8-5,0.9-7.8c-0.5-1.7-1.6-2.6-3-2.7C276.8,131,276.2,132.1,276.3,133.8z"/>
				</g>
				<g>
					<path class="st21" d="M271.5,139c4.9-1.4,6.6,8,5.4,9.7C274.7,148.8,267.7,142,271.5,139z"/>
					<path class="st23" d="M270.6,143c-0.7-1.8-0.4-3.2,0.8-4.2l0,0l0,0c1.6-0.5,3.1,0.1,4.2,1.8c0.8,1.2,1.4,2.9,1.7,4.6
						c0.3,1.6,0.2,3-0.3,3.6l-0.1,0.1l-0.1,0c0,0-0.1,0-0.1,0C275.2,148.9,271.7,145.9,270.6,143z M271.6,139.2
						c-1,0.9-1.3,2.1-0.6,3.7c1.1,2.8,4.5,5.5,5.8,5.6c0.6-1.1,0.2-5.3-1.5-7.7c-0.8-1.1-1.8-1.7-2.8-1.7
						C272.2,139,271.9,139.1,271.6,139.2z"/>
				</g>
				<g>
					<path class="st21" d="M267.4,149.2c4.8-1.8,7.3,7.4,6.2,9.2C271.5,158.7,264,152.5,267.4,149.2z"/>
					<path class="st23" d="M266.9,153.3c-0.9-1.7-0.7-3.2,0.4-4.3l0,0l0,0c1.6-0.6,3.1-0.1,4.4,1.4c0.9,1.1,1.7,2.7,2.1,4.5
						c0.4,1.6,0.4,3,0,3.6l-0.1,0.1l-0.1,0c-0.1,0-0.1,0-0.2,0C271.8,158.6,268.2,156,266.9,153.3z M271.4,150.6
						c-1.1-1.4-2.4-1.8-3.8-1.3c-1,1-1.1,2.2-0.3,3.7c1.3,2.7,4.8,5.1,6.2,5.1c0,0,0,0,0.1,0C274.1,156.9,273.3,152.9,271.4,150.6z"
						/>
				</g>
				<g>
					<path class="st21" d="M281.8,165.4c-2.7-4.4-10.3,1.5-10.5,3.5C272.8,170.5,282.6,170.2,281.8,165.4z"/>
					<path class="st23" d="M271.2,169L271.2,169l-0.1-0.2c0.1-0.7,0.9-1.8,2.2-2.9c1.4-1.1,3-2,4.4-2.3c1.9-0.4,3.4,0.1,4.3,1.5l0,0
						l0,0c0.2,1.5-0.5,2.8-2.2,3.6c-1.4,0.7-3.2,1-4.8,1C273.2,170,271.7,169.6,271.2,169z M277.8,164.2c-2.8,0.6-6,3.4-6.3,4.7
						c0.5,0.5,1.9,0.7,3.5,0.7c1.5,0,3.3-0.3,4.6-0.9c1.5-0.7,2.2-1.8,2-3.1C280.8,164.2,279.5,163.8,277.8,164.2z"/>
				</g>
				<g>
					<path class="st21" d="M264.1,159.6c4.5-2.5,8.2,6.4,7.4,8.2C269.4,168.5,261.1,163.4,264.1,159.6z"/>
					<path class="st23" d="M264.1,163.8c-1.1-1.6-1.1-3-0.2-4.3l0,0l0,0c1.5-0.8,3-0.5,4.5,0.8c1.1,1,2,2.5,2.7,4.1
						c0.6,1.5,0.8,2.9,0.5,3.6l0,0.1l-0.1,0c-0.1,0-0.3,0.1-0.5,0.1C269.3,168.1,265.7,166.1,264.1,163.8z M268.2,160.5
						c-1.3-1.2-2.7-1.4-4-0.7c-0.8,1.1-0.8,2.3,0.2,3.7c1.7,2.5,5.6,4.4,6.9,4.2C271.7,166.4,270.3,162.5,268.2,160.5z"/>
				</g>
				<g>
					<path class="st19" d="M283.8,135c0.9-1.3,1.8-2.6,2.9-3.7c0.4-0.5,0.9-0.9,1.4-1.3c0.1,0,0.1-0.1,0-0.2s-0.1-0.1-0.2,0
						c-0.5,0.4-1,0.9-1.4,1.3c-1.1,1.1-2.1,2.4-2.9,3.7c-0.8,1.2-1.6,2.5-2.3,3.8c-0.3,0.6-0.6,1.2-0.9,1.7c0-0.5-0.1-1-0.1-1.5
						c-0.1-1.6-0.4-3.2-0.8-4.7c-0.2-0.6-0.3-1.2-0.6-1.8c0-0.1-0.1-0.1-0.2-0.1c-0.1,0-0.1,0.1-0.1,0.2c0.2,0.6,0.4,1.2,0.6,1.8
						c0.4,1.5,0.6,3.1,0.8,4.6c0.1,0.7,0.1,1.3,0.1,2c-1.2,2.3-2.2,4.7-3.1,7.1c0,0,0,0.1,0,0.1c-0.2-0.5-0.4-1.1-0.6-1.6
						c-0.6-1.4-1.3-2.9-2.2-4.2c-0.3-0.5-0.7-1.1-1.1-1.6c0-0.1-0.1-0.1-0.2,0c-0.1,0-0.1,0.1,0,0.2c0.4,0.5,0.8,1,1.1,1.6
						c0.8,1.3,1.5,2.7,2.1,4.2c0.3,0.6,0.5,1.3,0.7,1.9c-1.2,3.1-2.2,6.2-3.1,9.4c-0.3-0.6-0.5-1.1-0.8-1.7c-0.7-1.4-1.6-2.8-2.5-4
						c-0.4-0.5-0.8-1-1.2-1.5c-0.1-0.1-0.1-0.1-0.2,0c-0.1,0.1-0.1,0.1,0,0.2c0.4,0.5,0.8,1,1.2,1.5c0.9,1.2,1.8,2.6,2.5,4
						c0.3,0.6,0.7,1.3,1,1.9c-0.5,1.8-0.9,3.5-1.3,5.4c-0.3,1.2-0.5,2.5-0.8,3.7c-0.3-0.5-0.7-1-1-1.5c-0.9-1.3-1.9-2.5-3-3.6
						c-0.5-0.5-0.9-0.9-1.4-1.3c-0.1,0-0.1,0-0.2,0c0,0.1,0,0.1,0,0.2c0.5,0.4,1,0.8,1.4,1.3c1.1,1.1,2.1,2.3,3,3.6
						c0.4,0.6,0.8,1.2,1.2,1.8c-1.1,6-1.9,12-2.3,18.1c0,0.1,0.1,0.1,0.1,0.1c0.1,0,0.1-0.1,0.1-0.1c0.4-5.7,1.1-11.4,2.1-17
						c0.6-0.3,1.3-0.7,1.9-1c1.4-0.7,2.9-1.2,4.4-1.7c0.6-0.2,1.2-0.3,1.9-0.4c0.1,0,0.1-0.1,0.1-0.2s-0.1-0.1-0.2-0.1
						c-0.6,0.1-1.3,0.3-1.9,0.4c-1.5,0.4-3,1-4.4,1.7c-0.6,0.3-1.2,0.6-1.7,0.9c0.3-1.6,0.6-3.2,1-4.8c0.2-0.9,0.4-1.8,0.7-2.7
						c0.6-0.4,1.1-0.8,1.7-1.2c1.3-0.9,2.7-1.7,4.1-2.3c0.6-0.3,1.2-0.5,1.8-0.7c0.1,0,0.1-0.1,0.1-0.2c0-0.1-0.1-0.1-0.2-0.1
						c-0.6,0.2-1.2,0.4-1.8,0.7c-1.4,0.6-2.8,1.5-4.1,2.3c-0.5,0.3-1,0.7-1.5,1c0.8-3,1.6-6,2.7-9c0.6-0.4,1.2-0.8,1.9-1.1
						c1.4-0.8,2.8-1.5,4.2-2c0.6-0.2,1.2-0.4,1.8-0.6c0.1,0,0.1-0.1,0.1-0.2c0-0.1-0.1-0.1-0.2-0.1c-0.6,0.2-1.2,0.4-1.8,0.6
						c-1.5,0.6-2.9,1.3-4.3,2.1c-0.5,0.3-1.1,0.6-1.6,1c0.4-1,0.8-2.1,1.2-3.1c0.7-1.7,1.4-3.4,2.1-5c0,0,0.1,0,0.1,0
						c0.7-0.3,1.3-0.6,2-0.9c1.5-0.6,3-1.1,4.5-1.4c0.6-0.1,1.2-0.2,1.9-0.3c0.1,0,0.1-0.1,0.1-0.1c0-0.1-0.1-0.1-0.1-0.1
						c-0.6,0.1-1.3,0.2-1.9,0.3c-1.5,0.3-3.1,0.8-4.5,1.4c-0.6,0.2-1.2,0.5-1.8,0.8c0.6-1.2,1.4-2.8,2-4
						C282.1,137.6,283,136.1,283.8,135z"/>
					<path class="st22" d="M269.2,186.3c0.1,0,0.2,0,0.2-0.1c0.1-0.1,0.1-0.1,0.1-0.2c0.4-5.8,1.1-11.5,2.1-16.9
						c0.5-0.3,1.1-0.6,1.8-0.9c1.6-0.7,3-1.3,4.4-1.6c0.7-0.2,1.3-0.3,1.8-0.4c0.2,0,0.3-0.2,0.3-0.4c0-0.2-0.2-0.3-0.4-0.3
						c-0.6,0.1-1.2,0.2-1.9,0.4c-1.4,0.4-2.9,0.9-4.5,1.7c-0.5,0.2-1,0.5-1.4,0.7c0.3-1.5,0.6-3,0.9-4.4c0.2-0.9,0.4-1.8,0.6-2.7
						c0.5-0.4,1-0.7,1.7-1.2c1.4-1,2.8-1.7,4.1-2.3c0.6-0.3,1.2-0.5,1.7-0.7c0.2-0.1,0.3-0.3,0.2-0.4c-0.1-0.2-0.3-0.3-0.4-0.2
						c-0.6,0.2-1.2,0.4-1.8,0.7c-1.3,0.6-2.7,1.4-4.2,2.3c-0.4,0.3-0.7,0.5-1,0.7c0.7-2.9,1.6-5.7,2.5-8.3c0.5-0.3,1-0.7,1.8-1.1
						c1.5-0.9,2.9-1.5,4.2-2c0.6-0.2,1.2-0.4,1.8-0.6c0.1,0,0.2-0.1,0.2-0.2c0-0.1,0.1-0.2,0-0.3c0-0.1-0.1-0.2-0.2-0.2
						c-0.1,0-0.2-0.1-0.3,0c-0.6,0.2-1.2,0.3-1.9,0.6c-1.4,0.5-2.8,1.2-4.3,2.1c-0.4,0.2-0.7,0.4-1.1,0.6c0.3-0.9,0.6-1.7,0.9-2.5
						c0.7-1.7,1.4-3.4,2.1-4.9c0,0,0,0,0,0c0.7-0.3,1.5-0.7,2-0.9c1.6-0.6,3.1-1.1,4.5-1.4c0.7-0.1,1.3-0.2,1.9-0.3
						c0.2,0,0.3-0.2,0.3-0.4c0-0.1-0.1-0.2-0.1-0.2c-0.1-0.1-0.2-0.1-0.3-0.1c-0.6,0.1-1.2,0.2-1.9,0.3c-1.4,0.3-2.9,0.8-4.6,1.4
						c-0.5,0.2-0.9,0.4-1.3,0.5c0.6-1.1,1.2-2.4,1.8-3.4c0.9-1.7,1.6-2.9,2.2-3.8l0,0c1-1.4,1.9-2.6,2.9-3.7
						c0.5-0.5,0.9-0.9,1.4-1.3c0.1-0.1,0.1-0.1,0.1-0.2c0-0.1,0-0.2-0.1-0.3c-0.1-0.1-0.1-0.1-0.2-0.1c-0.1,0-0.2,0-0.3,0.1
						c-0.5,0.4-0.9,0.8-1.4,1.4c-1,1.1-2,2.3-3,3.8c-0.8,1.2-1.5,2.5-2.3,3.8c-0.2,0.3-0.4,0.7-0.6,1.1c0-0.2,0-0.5-0.1-0.7
						c-0.2-1.8-0.4-3.3-0.8-4.7c-0.2-0.7-0.4-1.3-0.6-1.9c0-0.1-0.1-0.2-0.2-0.2c-0.1,0-0.2,0-0.3,0c-0.1,0-0.2,0.1-0.2,0.2
						c0,0.1,0,0.2,0,0.3c0.2,0.5,0.4,1.1,0.6,1.8c0.3,1.4,0.6,2.9,0.7,4.6c0,0.5,0.1,1.2,0.1,1.9c-1,2-2,4.3-3,6.7
						c-0.1-0.3-0.3-0.7-0.4-1.1c-0.7-1.6-1.4-3-2.2-4.3c-0.4-0.6-0.7-1.1-1.1-1.6c-0.1-0.2-0.3-0.2-0.5-0.1
						c-0.1,0.1-0.1,0.1-0.1,0.2c0,0.1,0,0.2,0.1,0.3c0.4,0.5,0.7,1,1.1,1.5c0.8,1.2,1.4,2.6,2.1,4.2c0.3,0.7,0.5,1.3,0.7,1.8
						c-1.1,2.8-2,5.8-2.9,8.8c-0.2-0.3-0.4-0.7-0.6-1.2c-0.8-1.6-1.7-2.9-2.5-4.1c-0.4-0.6-0.8-1.1-1.3-1.5
						c-0.1-0.1-0.2-0.1-0.2-0.1c-0.1,0-0.2,0-0.2,0.1c-0.1,0.1-0.1,0.2-0.1,0.2c0,0.1,0,0.2,0.1,0.2c0.4,0.4,0.8,0.9,1.2,1.4
						c0.9,1.1,1.7,2.4,2.5,4c0.4,0.7,0.7,1.3,0.9,1.9c-0.5,1.7-0.9,3.5-1.3,5.3c-0.2,1.1-0.5,2.1-0.7,3.2c-0.2-0.3-0.5-0.7-0.8-1.1
						c-1-1.4-2-2.6-3.1-3.7c-0.5-0.5-1-0.9-1.5-1.3c-0.1-0.1-0.4-0.1-0.5,0.1c-0.1,0.1-0.1,0.4,0.1,0.5c0.5,0.4,0.9,0.8,1.4,1.3
						c1,1,2,2.2,3,3.6c0.5,0.7,0.8,1.2,1.1,1.7c-1.1,5.7-1.9,11.8-2.3,18c0,0.1,0,0.2,0.1,0.3C269,186.3,269.1,186.3,269.2,186.3
						C269.2,186.3,269.2,186.3,269.2,186.3z"/>
				</g>
			</g>
		</g>
		<g>
			<path class="st24" d="M265.9,180.2c0.4,0,0.9,0,1.3,0c0.3,0,0.7,0,1,0c4-0.1,7.2-0.4,7.7-0.9c0,0,0-0.1,0-0.1c0,0,0,0,0,0.1
				l-2.3,15.6l-0.1,1c0,0,0,0.1,0,0.2c0,0.8-2.8,1.4-6.3,1.4s-6.3-0.6-6.3-1.4c0-0.1,0-0.1,0-0.2l-0.1-1l-2.3-15.5
				c0-0.1,0-0.1,0-0.2c0,0,0,0.1,0.1,0.1C259.3,179.8,262.2,180.1,265.9,180.2z"/>
			<path class="st18" d="M260.7,196.1c0-0.1,0-0.1,0-0.2l-2.4-16.5c0,0,0-0.1,0-0.1c0-0.1,0-0.2,0.1-0.3c0,0,0.2-0.1,0.3,0.1
				c0,0,0,0,0,0c0.5,0.3,3.1,0.7,7.1,0.8l0,0c0.4,0,0.9,0,1.3,0c0.3,0,0.7,0,1,0c4.7-0.1,7.2-0.5,7.5-0.8c0,0,0,0,0,0
				c0,0,0,0,0.1-0.1l0.1-0.1l0.1,0.1c0,0,0.1,0.1,0.1,0.2c0,0,0,0,0,0.1l-2.4,16.5c0,0.1,0,0.1,0,0.2c0,1.1-3.3,1.7-6.5,1.7
				C264,197.7,260.7,197.2,260.7,196.1z M268.2,180.4c-0.3,0-0.7,0-1,0c-0.4,0-0.9,0-1.3,0h0c-2.6,0-5.9-0.3-7.1-0.7l2.4,16.3l0,0.1
				c0,0,0,0,0,0.1c0,0.2,0.4,0.5,1.7,0.8c1.2,0.3,2.7,0.4,4.4,0.4c1.7,0,3.2-0.1,4.4-0.4c1.3-0.3,1.7-0.7,1.7-0.8c0,0,0,0,0-0.1
				l0-0.1l2.4-16.3C274.4,180.2,271,180.4,268.2,180.4z"/>
		</g>
	</g>
	<g>
		<path class="st25" d="M290.9,198.6h-54.8v62.6h0h22.1h32.7L290.9,198.6L290.9,198.6z M240.9,257.1v-23.5h45.2v23.5H240.9
			L240.9,257.1z M240.9,205.2h45.2v23.5h-45.2V205.2z"/>
		<rect x="240.9" y="233.6" class="st26" width="45.2" height="23.5"/>
		<rect x="240.9" y="205.2" class="st26" width="45.2" height="23.5"/>
		<g>
			<polygon class="st27" points="290.9,198.6 236.1,198.6 234.4,198.6 234.4,195.3 292.7,195.3 292.7,198.6 			"/>
			<path class="st28" d="M234.3,195.2h58.5v3.6h-58.5V195.2z M292.6,195.4h-58.1v3.2h58.1V195.4z"/>
		</g>
		<g>
			<polygon class="st27" points="284,264.6 243.1,264.6 237.6,264.6 234.4,264.6 234.4,261.2 236.1,261.2 236.1,261.2 290.9,261.2 
				292.7,261.2 292.7,264.6 289.5,264.6 			"/>
			<path class="st29" d="M234.3,261.1h58.5v3.6h-58.5V261.1z M292.6,261.3h-58.1v3.2h58.1V261.3z"/>
		</g>
		<g>
			<polygon class="st27" points="243.1,264.6 239.5,270.9 235.8,270.9 237.6,264.6 			"/>
			<path class="st30" d="M237.5,264.5h5.8l-3.7,6.5h-4L237.5,264.5z M243,264.7h-5.3l-1.7,6.1h3.6L243,264.7z"/>
		</g>
		<g>
			<polygon class="st27" points="289.5,264.6 291.3,270.9 287.6,270.9 284,264.6 			"/>
			<path class="st30" d="M283.8,264.5h5.8l1.9,6.5h-4L283.8,264.5z M289.5,264.7h-5.3l3.5,6.1h3.6L289.5,264.7z"/>
		</g>
		
			<rect x="259.6" y="244.2" transform="matrix(0.4034 -0.915 0.915 0.4034 -64.3615 394.2854)" class="st31" width="21.2" height="4.6"/>
		
			<rect x="267.2" y="244" transform="matrix(0.1306 -0.9914 0.9914 0.1306 -2.6971 489.5663)" class="st24" width="21.2" height="4.6"/>
		
			<rect x="271.9" y="244" transform="matrix(0.1306 -0.9914 0.9914 0.1306 1.3562 494.1884)" class="st31" width="21.2" height="4.6"/>
		<polygon class="st31" points="283.9,228.6 262.7,228.6 262.7,224 262.9,224 282.2,224 283.9,224 		"/>
		<rect x="262.9" y="221.7" class="st32" width="19.2" height="2.3"/>
		
			<rect x="243.5" y="207.2" transform="matrix(0.9914 -0.1306 0.1306 0.9914 -26.3359 33.958)" class="st33" width="4.6" height="21.2"/>
		
			<rect x="248.2" y="207.2" transform="matrix(0.9914 -0.1306 0.1306 0.9914 -26.2961 34.5667)" class="st24" width="4.6" height="21.2"/>
		<path class="st34" d="M292,199.6h-54.8v62.6h0h22.1H292L292,199.6L292,199.6z M241.9,258.1v-23.5h45.2v23.5H241.9L241.9,258.1z
			 M241.9,206.1h45.2v23.5h-45.2V206.1z"/>
	</g>
	<g>
		<g>
			<g>
				<path class="st35" d="M289.9,75l-1.1-0.3c-0.3-0.1-0.6-0.4-0.5-0.8c0.1-0.3,0.4-0.6,0.8-0.5l1.1,0.3c0.3,0.1,0.6,0.4,0.5,0.8
					C290.4,74.9,290.1,75.1,289.9,75z"/>
			</g>
			<g>
				<path class="st35" d="M285.2,74l-1.1-0.3c-0.3-0.1-0.6-0.4-0.5-0.8s0.4-0.6,0.8-0.5l1.1,0.3c0.3,0.1,0.6,0.4,0.5,0.8
					C285.9,73.9,285.6,74.1,285.2,74z"/>
			</g>
			<g>
				<path class="st35" d="M280.6,72.9l-1.1-0.3c-0.3-0.1-0.6-0.4-0.5-0.8c0.1-0.3,0.4-0.6,0.8-0.5l1.1,0.3c0.3,0.1,0.6,0.4,0.5,0.8
					C281.3,72.8,281,73,280.6,72.9z"/>
			</g>
			<g>
				<path class="st35" d="M276.1,71.9l-1.1-0.3c-0.3-0.1-0.6-0.4-0.5-0.8s0.4-0.6,0.8-0.5l1.1,0.3c0.3,0.1,0.6,0.4,0.5,0.8
					C276.7,71.7,276.3,71.9,276.1,71.9z"/>
			</g>
			<g>
				<path class="st35" d="M279.8,97.5l-16.1-3.7c-0.3-0.1-0.6-0.4-0.5-0.8l5.4-23.5c0.1-0.3,0.4-0.6,0.8-0.5l2.9,0.7
					c0.3,0.1,0.6,0.4,0.5,0.8c-0.1,0.3-0.4,0.6-0.8,0.5l-2.3-0.5l-5.1,22.4l15.5,3.6c0.3,0.1,0.6,0.4,0.5,0.8
					C280.5,97.4,280.2,97.6,279.8,97.5z"/>
			</g>
			<g>
				<path class="st35" d="M292.6,89.6c-0.3-0.1-0.6-0.4-0.5-0.8l2.9-12.6l-2.3-0.5c-0.3-0.1-0.6-0.4-0.5-0.8
					c0.1-0.3,0.4-0.6,0.8-0.5l2.9,0.7c0.3,0.1,0.6,0.4,0.5,0.8l-3,13.3C293.2,89.5,292.8,89.7,292.6,89.6z"/>
			</g>
			<g>
				<path class="st35" d="M272.1,81.2l-2.3-0.5c-0.3-0.1-0.6-0.4-0.5-0.8l0.5-2.3c0.1-0.3,0.4-0.6,0.8-0.5l2.3,0.5
					c0.3,0.1,0.6,0.4,0.5,0.8l-0.5,2.3C272.7,81.1,272.3,81.3,272.1,81.2z M270.6,79.7l1.1,0.3l0.3-1.1l-1.1-0.3L270.6,79.7z"/>
			</g>
			<g>
				<path class="st35" d="M276.6,82.3l-2.3-0.5c-0.3-0.1-0.6-0.4-0.5-0.8l0.5-2.3c0.1-0.3,0.4-0.6,0.8-0.5l2.3,0.5
					c0.3,0.1,0.6,0.4,0.5,0.8l-0.5,2.3C277.3,82.2,277,82.4,276.6,82.3z M275.2,80.8l1.1,0.3l0.3-1.1l-1.1-0.3L275.2,80.8z"/>
			</g>
			<g>
				<path class="st35" d="M281.2,83.3l-2.3-0.5c-0.3-0.1-0.6-0.4-0.5-0.8l0.5-2.3c0.1-0.3,0.4-0.6,0.8-0.5l2.3,0.5
					c0.3,0.1,0.6,0.4,0.5,0.8l-0.5,2.3C281.9,83.2,281.6,83.4,281.2,83.3z M279.8,81.8l1.1,0.3l0.3-1.1l-1.1-0.3L279.8,81.8z"/>
			</g>
			<g>
				<path class="st35" d="M285.9,84.4l-2.3-0.5c-0.3-0.1-0.6-0.4-0.5-0.8l0.5-2.3c0.1-0.3,0.4-0.6,0.8-0.5l2.3,0.5
					c0.3,0.1,0.6,0.4,0.5,0.8l-0.5,2.3C286.5,84.3,286.2,84.5,285.9,84.4z M284.4,82.9l1.1,0.3l0.3-1.1l-1.1-0.3L284.4,82.9z"/>
			</g>
			<g>
				<path class="st35" d="M290.5,85.5l-2.3-0.5c-0.3-0.1-0.6-0.4-0.5-0.8l0.5-2.3c0.1-0.3,0.4-0.6,0.8-0.5l2.3,0.5
					c0.3,0.1,0.6,0.4,0.5,0.8l-0.5,2.3C291.1,85.3,290.8,85.5,290.5,85.5z M289,83.9l1.1,0.3l0.3-1.1l-1.1-0.3L289,83.9z"/>
			</g>
			<g>
				<path class="st35" d="M271,85.9l-2.3-0.5c-0.3-0.1-0.6-0.4-0.5-0.8l0.5-2.3c0.1-0.3,0.4-0.6,0.8-0.5l2.3,0.5
					c0.3,0.1,0.6,0.4,0.5,0.8l-0.5,2.3C271.6,85.7,271.3,85.9,271,85.9z M269.5,84.3l1.1,0.3l0.3-1.1l-1.1-0.3L269.5,84.3z"/>
			</g>
			<g>
				<path class="st35" d="M275.6,86.9l-2.3-0.5c-0.3-0.1-0.6-0.4-0.5-0.8l0.5-2.3c0.1-0.3,0.4-0.6,0.8-0.5l2.3,0.5
					c0.3,0.1,0.6,0.4,0.5,0.8l-0.5,2.3C276.2,86.8,275.9,87,275.6,86.9z M274.2,85.4l1.1,0.3l0.3-1.1l-1.1-0.3L274.2,85.4z"/>
			</g>
			<g>
				<path class="st35" d="M280.2,88l-2.3-0.5c-0.3-0.1-0.6-0.4-0.5-0.8l0.5-2.3c0.1-0.3,0.4-0.6,0.8-0.5l2.3,0.5
					c0.3,0.1,0.6,0.4,0.5,0.8l-0.5,2.3C280.9,87.9,280.5,88.1,280.2,88z M278.7,86.4l1.1,0.3l0.3-1.1l-1.1-0.3L278.7,86.4z"/>
			</g>
			<g>
				<path class="st35" d="M270,90.4l-2.3-0.5c-0.3-0.1-0.6-0.4-0.5-0.8l0.5-2.3c0.1-0.3,0.4-0.6,0.8-0.5l2.3,0.5
					c0.3,0.1,0.6,0.4,0.5,0.8l-0.5,2.3C270.6,90.3,270.2,90.5,270,90.4z M268.5,88.9l1.1,0.3l0.3-1.1l-1.1-0.3L268.5,88.9z"/>
			</g>
			<g>
				<path class="st35" d="M274.5,91.4l-2.3-0.5c-0.3-0.1-0.6-0.4-0.5-0.8l0.5-2.3c0.1-0.3,0.4-0.6,0.8-0.5l2.3,0.5
					c0.3,0.1,0.6,0.4,0.5,0.8l-0.5,2.3C275.2,91.3,274.9,91.5,274.5,91.4z M273.1,89.9l1.1,0.3l0.3-1.1l-1.1-0.3L273.1,89.9z"/>
			</g>
			<g>
				<path class="st35" d="M278.6,92.4l-1.7-0.4c-0.3-0.1-0.6-0.4-0.5-0.8l0.5-2.3c0.1-0.3,0.4-0.6,0.8-0.5l1.7,0.4
					c0.3,0.1,0.6,0.4,0.5,0.8c-0.1,0.3-0.4,0.6-0.8,0.5l-1.1-0.3l-0.3,1.1l1.1,0.3c0.3,0.1,0.6,0.4,0.5,0.8
					C279.2,92.2,278.9,92.4,278.6,92.4z"/>
			</g>
			<g>
				<path class="st35" d="M272.5,74.1c-1-0.2-1.6-1.2-1.3-2.1l0.8-3.5c0.2-1,1.2-1.6,2.1-1.3c1,0.2,1.6,1.2,1.3,2.1l-0.8,3.5
					C274.4,73.7,273.4,74.3,272.5,74.1z M273.9,68.3c-0.3-0.1-0.7,0.1-0.8,0.5l-0.8,3.5c-0.1,0.3,0.1,0.7,0.5,0.8
					c0.3,0.1,0.7-0.1,0.8-0.5l0.8-3.5C274.3,68.7,274.1,68.4,273.9,68.3z"/>
			</g>
			<g>
				<path class="st35" d="M277.1,75.1c-1-0.2-1.6-1.2-1.3-2.1l0.8-3.5c0.2-1,1.2-1.6,2.1-1.3c1,0.2,1.6,1.2,1.3,2.1l-0.8,3.5
					C279,74.8,278,75.4,277.1,75.1z M278.4,69.4c-0.3-0.1-0.7,0.1-0.8,0.5l-0.8,3.5c-0.1,0.3,0.1,0.7,0.5,0.8s0.7-0.1,0.8-0.5
					l0.8-3.5C278.9,69.8,278.7,69.5,278.4,69.4z"/>
			</g>
			<g>
				<path class="st35" d="M281.7,76.2c-1-0.2-1.6-1.2-1.3-2.1l0.8-3.5c0.2-1,1.2-1.6,2.1-1.3s1.6,1.2,1.3,2.1l-0.8,3.5
					C283.6,75.8,282.7,76.4,281.7,76.2z M283,70.4c-0.3-0.1-0.7,0.1-0.8,0.5l-0.8,3.5c-0.1,0.3,0.1,0.7,0.5,0.8
					c0.3,0.1,0.7-0.1,0.8-0.5l0.8-3.5C283.6,70.8,283.4,70.5,283,70.4z"/>
			</g>
			<g>
				<path class="st35" d="M286.3,77.3c-1-0.2-1.6-1.2-1.3-2.1l0.8-3.5c0.2-1,1.2-1.6,2.1-1.3c1,0.2,1.6,1.2,1.3,2.1l-0.8,3.5
					C288.2,76.9,287.3,77.5,286.3,77.3z M287.6,71.5c-0.3-0.1-0.7,0.1-0.8,0.5l-0.8,3.5c-0.1,0.3,0.1,0.7,0.5,0.8
					c0.3,0.1,0.7-0.1,0.8-0.5l0.8-3.5C288.1,71.9,287.9,71.6,287.6,71.5z"/>
			</g>
			<g>
				<path class="st35" d="M290.9,78.3c-1-0.2-1.6-1.2-1.3-2.1l0.8-3.5c0.2-1,1.2-1.6,2.1-1.3c1,0.2,1.6,1.2,1.3,2.1L293,77
					C292.8,77.9,291.8,78.5,290.9,78.3z M292.2,72.5c-0.3-0.1-0.7,0.1-0.8,0.5l-0.8,3.5c-0.1,0.3,0.1,0.7,0.5,0.8
					c0.3,0.1,0.7-0.1,0.8-0.5l0.8-3.5C292.7,72.9,292.5,72.6,292.2,72.5z"/>
			</g>
			<g>
				<g>
					<path class="st35" d="M284.7,98.7c-3.3-0.8-5.4-4.1-4.6-7.4c0.8-3.3,4.1-5.4,7.4-4.6s5.4,4.1,4.6,7.4
						C291.4,97.3,288,99.4,284.7,98.7z M287.2,87.7c-2.7-0.6-5.4,1.1-6,3.8s1.1,5.4,3.8,6s5.4-1.1,6-3.8
						C291.6,91.1,289.9,88.4,287.2,87.7z"/>
				</g>
			</g>
		</g>
		<g>
			<path class="st35" d="M288.4,90.8l-0.6,0.4c-0.2-0.3-0.5-0.5-0.9-0.6l-0.4,1.6c0.8,0.3,0.9,0.4,1.1,0.7c0.2,0.3,0.3,0.7,0.2,1.1
				c-0.2,0.9-0.9,1.3-1.9,1.1l-0.2,0.8l-0.6-0.1l0.2-0.8c-0.7-0.2-1.2-0.5-1.5-1.1l0.6-0.4c0.3,0.4,0.6,0.6,1.1,0.8l0.4-1.7
				c-0.6-0.2-0.9-0.4-1-0.7c-0.2-0.3-0.2-0.6-0.1-1c0.2-0.8,0.8-1.3,1.8-1.1l0.1-0.6l0.6,0.1l-0.1,0.6C287.6,90,288,90.3,288.4,90.8
				z M285.5,91c0,0.2,0,0.4,0.1,0.5c0.1,0.2,0.3,0.3,0.6,0.4l0.3-1.5C285.9,90.4,285.5,90.7,285.5,91z M287,93.8
				c0.1-0.3,0-0.5-0.1-0.6c-0.1-0.2-0.3-0.3-0.6-0.4l-0.4,1.6C286.5,94.5,286.9,94.3,287,93.8z"/>
		</g>
	</g>
	<g>
		<g>
			<line class="st36" x1="248.2" y1="28.8" x2="241" y2="39.2"/>
			<g>
				<path class="st36" d="M243.1,30.2c0,1.1-0.9,2-2,2c-1.1,0-2-0.9-2-2c0-1.1,0.9-2,2-2C242.2,28.2,243.1,29.1,243.1,30.2z"/>
				<path class="st36" d="M250.1,37.8c0,1.1-0.9,2-2,2c-1.1,0-2-0.9-2-2c0-1.1,0.9-2,2-2C249.2,35.8,250.1,36.7,250.1,37.8z"/>
			</g>
		</g>
		<g>
			<g>
				<path class="st37" d="M252.8,25.8c4.5,4.5,4.5,11.9,0,16.4c-4.5,4.5-11.9,4.5-16.4,0c-4.5-4.5-4.5-11.9,0-16.4
					C240.9,21.3,248.3,21.3,252.8,25.8z"/>
				<path class="st37" d="M253.9,41l5.8,5.8c0.6,0.6,0.5,1.5-0.1,2.2c-0.6,0.6-1.6,0.7-2.2,0.1l-4.2-4.2"/>
			</g>
		</g>
	</g>
	<g>
		<g>
			<g>
				
					<rect x="87" y="74.3" transform="matrix(0.473 -0.8811 0.8811 0.473 -16.5959 122.0961)" class="st35" width="13.5" height="1.3"/>
			</g>
			<g>
				<path class="st35" d="M90.7,75.3c-0.6,0.2-1.3,0.1-1.9-0.2c-0.6-0.3-1-0.8-1.2-1.4c-0.2-0.6-0.1-1.3,0.2-1.9
					c0.6-1.2,2.1-1.6,3.3-1c0.6,0.3,1,0.8,1.2,1.4c0.2,0.6,0.1,1.3-0.2,1.9l0,0c0,0,0,0,0,0l0,0C91.9,74.6,91.4,75.1,90.7,75.3z
					 M89.7,71.8c-0.3,0.1-0.5,0.3-0.7,0.6c-0.1,0.3-0.2,0.6-0.1,0.9c0.1,0.3,0.3,0.5,0.6,0.7c0.6,0.3,1.3,0.1,1.6-0.5c0,0,0,0,0,0
					c0.1-0.3,0.2-0.6,0.1-0.9c-0.1-0.3-0.3-0.5-0.6-0.7C90.3,71.7,90,71.7,89.7,71.8z"/>
			</g>
			<g>
				<path class="st35" d="M98.2,79.2c-0.6,0.2-1.3,0.1-1.9-0.2c-0.6-0.3-1-0.8-1.2-1.4C95,77,95,76.3,95.3,75.8
					c0.6-1.2,2.1-1.6,3.3-1c0.6,0.3,1,0.8,1.2,1.4c0.2,0.6,0.1,1.3-0.2,1.9C99.3,78.7,98.8,79.1,98.2,79.2z M97.1,75.8
					c-0.3,0.1-0.5,0.3-0.7,0.6c-0.1,0.3-0.2,0.6-0.1,0.9c0.1,0.3,0.3,0.5,0.6,0.7c0.6,0.3,1.3,0.1,1.6-0.5c0.1-0.3,0.2-0.6,0.1-0.9
					c-0.1-0.3-0.3-0.5-0.6-0.7C97.7,75.7,97.4,75.7,97.1,75.8z"/>
			</g>
		</g>
		<g>
			<g>
				<g>
					<g>
						<path class="st35" d="M93.2,90.3c-1,0.3-5.9,1.7-6.4-0.1c-0.5-1.8,4.3-3.4,5.3-3.7c1-0.3,5.9-1.7,6.4,0.1
							C99,88.5,94.2,90,93.2,90.3z M88.1,89.8c0.6,0.1,2.3,0.1,4.7-0.7c2.5-0.7,3.9-1.6,4.3-2.1c-0.6-0.1-2.3-0.1-4.7,0.7
							C90,88.5,88.5,89.3,88.1,89.8z"/>
					</g>
					<g>
						<path class="st35" d="M94.3,93.9c-1,0.3-5.9,1.7-6.4-0.1l-1.1-3.6c-0.1-0.3,0.1-0.7,0.4-0.8c0.3-0.1,0.6,0.1,0.7,0.3
							c0.4,0.2,2.1,0.2,4.9-0.6c2.7-0.8,4.2-1.8,4.4-2.2c0-0.3,0.1-0.6,0.4-0.7c0.3-0.1,0.7,0.1,0.8,0.4l1.1,3.6
							C100.1,92,95.2,93.6,94.3,93.9z M89,93.3c0.4,0.2,2.2,0.2,4.9-0.6c2.7-0.8,4.2-1.8,4.4-2.2l-0.7-2.2c-1.3,1.1-3.8,1.8-4.4,2
							c-0.7,0.2-3.1,0.9-4.8,0.8L89,93.3z"/>
					</g>
				</g>
				<g>
					<g>
						<path class="st35" d="M95.3,97.4c-1,0.3-5.9,1.7-6.4-0.1l-1.1-3.6c-0.1-0.3,0.1-0.7,0.4-0.8c0.3-0.1,0.6,0.1,0.7,0.3
							c0.4,0.2,2.1,0.2,4.9-0.6c2.7-0.8,4.2-1.8,4.4-2.2c0-0.3,0.1-0.6,0.4-0.7c0.3-0.1,0.7,0.1,0.8,0.4l1.1,3.6
							C101.1,95.6,96.3,97.1,95.3,97.4z M90.1,96.8c0.4,0.2,2.2,0.2,4.9-0.6c2.7-0.8,4.2-1.8,4.4-2.2l-0.7-2.2
							c-1.3,1.1-3.8,1.8-4.4,2c-0.7,0.2-3.1,0.9-4.8,0.8L90.1,96.8z"/>
					</g>
				</g>
				<g>
					<g>
						<path class="st35" d="M96.4,101c-1,0.3-5.9,1.7-6.4-0.1l-1.1-3.6c-0.1-0.3,0.1-0.7,0.4-0.8c0.3-0.1,0.6,0.1,0.7,0.3
							c0.4,0.2,2.1,0.2,4.9-0.6c2.7-0.8,4.2-1.8,4.4-2.2c0-0.3,0.1-0.6,0.4-0.7c0.3-0.1,0.7,0.1,0.8,0.4l1.1,3.6
							C102.2,99.1,97.4,100.7,96.4,101z M91.2,100.4c0.4,0.2,2.2,0.2,4.9-0.6c2.7-0.8,4.2-1.8,4.4-2.2l-0.7-2.2
							c-1.3,1.1-3.8,1.8-4.4,2c-0.7,0.2-3.1,0.9-4.8,0.8L91.2,100.4z"/>
					</g>
				</g>
			</g>
			<g>
				<g>
					<g>
						<path class="st35" d="M75.1,90c-1,0.3-5.9,1.7-6.4-0.1c-0.5-1.8,4.3-3.4,5.3-3.7c0.4-0.1,0.8-0.2,1.2-0.3l0.3,1.2
							c-0.4,0.1-0.7,0.2-1.1,0.3c-2.5,0.7-3.9,1.6-4.3,2.1c0.6,0.1,2.3,0.1,4.7-0.7c0.4-0.1,0.8-0.2,1.1-0.4l0.4,1.2
							C76,89.8,75.6,89.9,75.1,90z"/>
					</g>
					<g>
						<path class="st35" d="M76.2,93.6c-1,0.3-5.9,1.7-6.4-0.1l-1.1-3.6c-0.1-0.3,0.1-0.7,0.4-0.8c0.3-0.1,0.6,0.1,0.7,0.3
							c0.4,0.2,2.1,0.2,4.9-0.6l0.4,1.2c-0.7,0.2-3.1,0.9-4.8,0.8L71,93c0.4,0.2,2.2,0.2,4.9-0.6L76.2,93.6z"/>
					</g>
				</g>
				<g>
					<g>
						<path class="st35" d="M77.3,97.1c-1,0.3-5.9,1.7-6.4-0.1l-1.1-3.6c-0.1-0.3,0.1-0.7,0.4-0.8c0.3-0.1,0.6,0.1,0.7,0.3
							c0.4,0.2,2.1,0.2,4.9-0.6c0.3-0.1,0.7-0.2,1-0.3l0.4,1.2c-0.3,0.1-0.7,0.2-1,0.3c-0.7,0.2-3.1,0.9-4.8,0.8l0.7,2.2
							c0.4,0.2,2.2,0.2,4.9-0.6c0.3-0.1,0.7-0.2,1-0.3l0.4,1.2C78,96.9,77.6,97,77.3,97.1z"/>
					</g>
				</g>
				<g>
					<g>
						<path class="st35" d="M78.4,100.7c-1,0.3-5.9,1.7-6.4-0.1L70.9,97c-0.1-0.3,0.1-0.7,0.4-0.8c0.3-0.1,0.6,0.1,0.7,0.3
							c0.4,0.2,2.1,0.2,4.9-0.6l0.4,1.2c-0.7,0.2-3.1,0.9-4.8,0.8l0.7,2.2c0.4,0.2,2.2,0.2,4.9-0.6c0.4-0.1,0.8-0.3,1.2-0.4l0.4,1.2
							C79.2,100.4,78.8,100.5,78.4,100.7z"/>
					</g>
				</g>
			</g>
			<g>
				<g>
					<g>
						<path class="st35" d="M81.2,82.4c-1,0.3-5.9,1.7-6.4-0.1c-0.5-1.8,4.3-3.4,5.3-3.7c1-0.3,5.9-1.7,6.4,0.1
							C87,80.5,82.2,82.1,81.2,82.4z M76.2,81.8c0.6,0.1,2.3,0.1,4.7-0.7c2.5-0.7,3.9-1.6,4.3-2.1c-0.6-0.1-2.3-0.1-4.7,0.7
							C78,80.5,76.6,81.4,76.2,81.8z"/>
					</g>
					<g>
						<path class="st35" d="M82.3,85.9c-1,0.3-5.9,1.7-6.4-0.1l-1.1-3.6c-0.1-0.3,0.1-0.7,0.4-0.8c0.3-0.1,0.6,0.1,0.7,0.3
							c0.4,0.2,2.1,0.2,4.9-0.6c2.7-0.8,4.2-1.8,4.4-2.2c0-0.3,0.1-0.6,0.4-0.7c0.3-0.1,0.7,0.1,0.8,0.4l1.1,3.6
							C88.1,84.1,83.3,85.6,82.3,85.9z M77.1,85.3c0.4,0.2,2.2,0.2,4.9-0.6c2.7-0.8,4.2-1.8,4.4-2.2l-0.7-2.2
							c-1.3,1.1-3.8,1.8-4.4,2c-0.7,0.2-3.1,0.9-4.8,0.8L77.1,85.3z"/>
					</g>
				</g>
				<g>
					<g>
						<path class="st35" d="M83.4,89.5c-1,0.3-5.9,1.7-6.4-0.1l-1.1-3.6c-0.1-0.3,0.1-0.7,0.4-0.8c0.3-0.1,0.6,0.1,0.7,0.3
							c0.4,0.2,2.1,0.2,4.9-0.6c2.7-0.8,4.2-1.8,4.4-2.2c0-0.3,0.1-0.6,0.4-0.7c0.3-0.1,0.7,0.1,0.8,0.4l1.1,3.6
							C89.2,87.6,84.4,89.2,83.4,89.5z M78.2,88.9c0.4,0.2,2.2,0.2,4.9-0.6c2.7-0.8,4.2-1.8,4.4-2.2l-0.7-2.2
							c-1.3,1.1-3.8,1.8-4.4,2c-0.7,0.2-3.1,0.9-4.8,0.8L78.2,88.9z"/>
					</g>
				</g>
				<g>
					<g>
						<path class="st35" d="M84.5,93c-1,0.3-5.9,1.7-6.4-0.1L77,89.3c-0.1-0.3,0.1-0.7,0.4-0.8c0.3-0.1,0.6,0.1,0.7,0.3
							c0.4,0.2,2.1,0.2,4.9-0.6c2.7-0.8,4.2-1.8,4.4-2.2c0-0.3,0.1-0.6,0.4-0.7c0.3-0.1,0.7,0.1,0.8,0.4L89,87l-1.2,0.4
							c-1.3,1.1-3.8,1.9-4.5,2.1c-0.7,0.2-3.1,0.9-4.8,0.8l0.7,2.2c0.4,0.2,2.2,0.2,4.9-0.6L84.5,93z"/>
					</g>
				</g>
				<g>
					<g>
						<path class="st35" d="M85.5,96.6c-1,0.3-5.9,1.7-6.4-0.1l-1.1-3.6c-0.1-0.3,0.1-0.7,0.4-0.8c0.3-0.1,0.6,0.1,0.7,0.3
							c0.4,0.2,2.1,0.2,4.9-0.6c0.7-0.2,1.3-0.4,1.9-0.7l0.5,1.2c-0.6,0.3-1.3,0.5-2.1,0.7c-0.7,0.2-3.1,0.9-4.8,0.8l0.7,2.2
							c0.4,0.2,2.2,0.2,4.9-0.6c0.7-0.2,1.4-0.4,2-0.7l0.5,1.2C87,96.1,86.3,96.3,85.5,96.6z"/>
					</g>
				</g>
				<g>
					<g>
						<path class="st35" d="M86.6,100.1c-1,0.3-5.9,1.7-6.4-0.1l-1.1-3.6c-0.1-0.3,0.1-0.7,0.4-0.8c0.3-0.1,0.6,0.1,0.7,0.3
							c0.4,0.2,2.1,0.2,4.9-0.6l0.4,1.2c-0.7,0.2-3.1,0.9-4.8,0.8l0.7,2.2c0.4,0.2,2.2,0.2,4.9-0.6c0.6-0.2,1.2-0.4,1.8-0.6l0.5,1.2
							C87.9,99.7,87.3,99.9,86.6,100.1z"/>
					</g>
				</g>
			</g>
		</g>
	</g>
</g>
</svg>
